<?xml version="1.0" encoding="us-ascii" standalone="no"?><svg xmlns="http://www.w3.org/2000/svg" xmlns:xlink="http://www.w3.org/1999/xlink" contentStyleType="text/css" height="1529px" preserveAspectRatio="none" style="width:692px;height:1529px;background:#FFFFFF;" version="1.1" viewBox="0 0 692 1529" width="692px" zoomAndPan="magnify"><defs/><g><text fill="#000000" font-family="sans-serif" font-size="14" font-weight="bold" lengthAdjust="spacing" textLength="367" x="155.5" y="22.9951">API and scripting domain - code dependencies</text><!--cluster Freeplane--><g id="cluster_Freeplane"><rect fill="none" height="1270" rx="2.5" ry="2.5" style="stroke:#000000;stroke-width:1.5;" width="587" x="99" y="112.2969"/><text fill="#000000" font-family="sans-serif" font-size="14" font-weight="bold" lengthAdjust="spacing" textLength="108" x="338.5" y="127.292">org.freeplane</text></g><!--cluster ApiPkg--><g id="cluster_ApiPkg"><rect fill="none" height="643" rx="2.5" ry="2.5" style="stroke:#000000;stroke-width:1.5;" width="142" x="503.5" y="707.2969"/><text fill="#000000" font-family="sans-serif" font-size="14" font-weight="bold" lengthAdjust="spacing" textLength="106" x="521.5" y="722.292">freeplane_api</text><text fill="#000000" font-family="sans-serif" font-size="14" font-weight="bold" lengthAdjust="spacing" textLength="77" x="536" y="738.5889">public API</text></g><!--cluster ProxyPkg--><g id="cluster_ProxyPkg"><rect fill="none" height="451" rx="2.5" ry="2.5" style="stroke:#000000;stroke-width:1.5;" width="199" x="131" y="180.2969"/><text fill="#000000" font-family="sans-serif" font-size="14" font-weight="bold" lengthAdjust="spacing" textLength="183" x="139" y="195.292">freeplane_plugin_script</text><text fill="#000000" font-family="sans-serif" font-size="14" font-weight="bold" lengthAdjust="spacing" textLength="89" x="186" y="211.5889">proxy layer</text></g><!--cluster ModelPkg--><g id="cluster_ModelPkg"><rect fill="none" height="451" rx="2.5" ry="2.5" style="stroke:#000000;stroke-width:1.5;" width="159" x="495" y="163.2969"/><text fill="#000000" font-family="sans-serif" font-size="14" font-weight="bold" lengthAdjust="spacing" textLength="105" x="522" y="178.292">features/map</text><text fill="#000000" font-family="sans-serif" font-size="14" font-weight="bold" lengthAdjust="spacing" textLength="113" x="518" y="194.5889">internal model</text></g><!--class NodeRO--><g id="elem_NodeRO"><rect codeLine="23" fill="#F1F1F1" height="32" id="NodeRO" rx="2.5" ry="2.5" style="stroke:#181818;stroke-width:0.5;" width="91" x="529" y="958.2969"/><ellipse cx="544" cy="974.2969" fill="#B4A7E5" rx="11" ry="11" style="stroke:#181818;stroke-width:1.0;"/><path d="M539.9219,970.0625 L539.9219,967.9063 L547.3125,967.9063 L547.3125,970.0625 L544.8438,970.0625 L544.8438,978.1406 L547.3125,978.1406 L547.3125,980.2969 L539.9219,980.2969 L539.9219,978.1406 L542.3906,978.1406 L542.3906,970.0625 L539.9219,970.0625 Z " fill="#000000"/><text fill="#000000" font-family="sans-serif" font-size="14" font-style="italic" lengthAdjust="spacing" textLength="59" x="558" y="979.1436">NodeRO</text></g><!--class Node--><g id="elem_Node"><rect codeLine="24" fill="#F1F1F1" height="32" id="Node" rx="2.5" ry="2.5" style="stroke:#181818;stroke-width:0.5;" width="70" x="539.5" y="766.2969"/><ellipse cx="554.5" cy="782.2969" fill="#B4A7E5" rx="11" ry="11" style="stroke:#181818;stroke-width:1.0;"/><path d="M550.4219,778.0625 L550.4219,775.9063 L557.8125,775.9063 L557.8125,778.0625 L555.3438,778.0625 L555.3438,786.1406 L557.8125,786.1406 L557.8125,788.2969 L550.4219,788.2969 L550.4219,786.1406 L552.8906,786.1406 L552.8906,778.0625 L550.4219,778.0625 Z " fill="#000000"/><text fill="#000000" font-family="sans-serif" font-size="14" font-style="italic" lengthAdjust="spacing" textLength="38" x="568.5" y="787.1436">Node</text></g><!--class MindMap--><g id="elem_MindMap"><rect codeLine="25" fill="#F1F1F1" height="32" id="MindMap" rx="2.5" ry="2.5" style="stroke:#181818;stroke-width:0.5;" width="94" x="527.5" y="1150.2969"/><ellipse cx="542.5" cy="1166.2969" fill="#B4A7E5" rx="11" ry="11" style="stroke:#181818;stroke-width:1.0;"/><path d="M538.4219,1162.0625 L538.4219,1159.9063 L545.8125,1159.9063 L545.8125,1162.0625 L543.3438,1162.0625 L543.3438,1170.1406 L545.8125,1170.1406 L545.8125,1172.2969 L538.4219,1172.2969 L538.4219,1170.1406 L540.8906,1170.1406 L540.8906,1162.0625 L538.4219,1162.0625 Z " fill="#000000"/><text fill="#000000" font-family="sans-serif" font-size="14" font-style="italic" lengthAdjust="spacing" textLength="62" x="556.5" y="1171.1436">MindMap</text></g><!--class NodeProxy--><g id="elem_NodeProxy"><rect codeLine="33" fill="#F1F1F1" height="32" id="NodeProxy" rx="2.5" ry="2.5" style="stroke:#181818;stroke-width:0.5;" width="106" x="177" y="239.2969"/><ellipse cx="192" cy="255.2969" fill="#ADD1B2" rx="11" ry="11" style="stroke:#181818;stroke-width:1.0;"/><path d="M194.9688,260.9375 Q194.3906,261.2344 193.75,261.375 Q193.1094,261.5313 192.4063,261.5313 Q189.9063,261.5313 188.5781,259.8906 Q187.2656,258.2344 187.2656,255.1094 Q187.2656,251.9844 188.5781,250.3281 Q189.9063,248.6719 192.4063,248.6719 Q193.1094,248.6719 193.75,248.8281 Q194.4063,248.9844 194.9688,249.2813 L194.9688,252 Q194.3438,251.4219 193.75,251.1563 Q193.1563,250.875 192.5313,250.875 Q191.1875,250.875 190.5,251.9531 Q189.8125,253.0156 189.8125,255.1094 Q189.8125,257.2031 190.5,258.2813 Q191.1875,259.3438 192.5313,259.3438 Q193.1563,259.3438 193.75,259.0781 Q194.3438,258.7969 194.9688,258.2188 L194.9688,260.9375 Z " fill="#000000"/><text fill="#000000" font-family="sans-serif" font-size="14" lengthAdjust="spacing" textLength="74" x="206" y="260.1436">NodeProxy</text></g><!--class MapProxy--><g id="elem_MapProxy"><rect codeLine="34" fill="#F1F1F1" height="32" id="MapProxy" rx="2.5" ry="2.5" style="stroke:#181818;stroke-width:0.5;" width="98" x="181" y="431.2969"/><ellipse cx="196" cy="447.2969" fill="#ADD1B2" rx="11" ry="11" style="stroke:#181818;stroke-width:1.0;"/><path d="M198.9688,452.9375 Q198.3906,453.2344 197.75,453.375 Q197.1094,453.5313 196.4063,453.5313 Q193.9063,453.5313 192.5781,451.8906 Q191.2656,450.2344 191.2656,447.1094 Q191.2656,443.9844 192.5781,442.3281 Q193.9063,440.6719 196.4063,440.6719 Q197.1094,440.6719 197.75,440.8281 Q198.4063,440.9844 198.9688,441.2813 L198.9688,444 Q198.3438,443.4219 197.75,443.1563 Q197.1563,442.875 196.5313,442.875 Q195.1875,442.875 194.5,443.9531 Q193.8125,445.0156 193.8125,447.1094 Q193.8125,449.2031 194.5,450.2813 Q195.1875,451.3438 196.5313,451.3438 Q197.1563,451.3438 197.75,451.0781 Q198.3438,450.7969 198.9688,450.2188 L198.9688,452.9375 Z " fill="#000000"/><text fill="#000000" font-family="sans-serif" font-size="14" lengthAdjust="spacing" textLength="66" x="210" y="452.1436">MapProxy</text></g><!--class NodeModel--><g id="elem_NodeModel"><rect codeLine="41" fill="#F1F1F1" height="32" id="NodeModel" rx="2.5" ry="2.5" style="stroke:#181818;stroke-width:0.5;" width="111" x="519" y="222.2969"/><ellipse cx="534" cy="238.2969" fill="#ADD1B2" rx="11" ry="11" style="stroke:#181818;stroke-width:1.0;"/><path d="M536.9688,243.9375 Q536.3906,244.2344 535.75,244.375 Q535.1094,244.5313 534.4063,244.5313 Q531.9063,244.5313 530.5781,242.8906 Q529.2656,241.2344 529.2656,238.1094 Q529.2656,234.9844 530.5781,233.3281 Q531.9063,231.6719 534.4063,231.6719 Q535.1094,231.6719 535.75,231.8281 Q536.4063,231.9844 536.9688,232.2813 L536.9688,235 Q536.3438,234.4219 535.75,234.1563 Q535.1563,233.875 534.5313,233.875 Q533.1875,233.875 532.5,234.9531 Q531.8125,236.0156 531.8125,238.1094 Q531.8125,240.2031 532.5,241.2813 Q533.1875,242.3438 534.5313,242.3438 Q535.1563,242.3438 535.75,242.0781 Q536.3438,241.7969 536.9688,241.2188 L536.9688,243.9375 Z " fill="#000000"/><text fill="#000000" font-family="sans-serif" font-size="14" lengthAdjust="spacing" textLength="79" x="548" y="243.1436">NodeModel</text></g><!--class MapModel--><g id="elem_MapModel"><rect codeLine="42" fill="#F1F1F1" height="32" id="MapModel" rx="2.5" ry="2.5" style="stroke:#181818;stroke-width:0.5;" width="103" x="523" y="414.2969"/><ellipse cx="538" cy="430.2969" fill="#ADD1B2" rx="11" ry="11" style="stroke:#181818;stroke-width:1.0;"/><path d="M540.9688,435.9375 Q540.3906,436.2344 539.75,436.375 Q539.1094,436.5313 538.4063,436.5313 Q535.9063,436.5313 534.5781,434.8906 Q533.2656,433.2344 533.2656,430.1094 Q533.2656,426.9844 534.5781,425.3281 Q535.9063,423.6719 538.4063,423.6719 Q539.1094,423.6719 539.75,423.8281 Q540.4063,423.9844 540.9688,424.2813 L540.9688,427 Q540.3438,426.4219 539.75,426.1563 Q539.1563,425.875 538.5313,425.875 Q537.1875,425.875 536.5,426.9531 Q535.8125,428.0156 535.8125,430.1094 Q535.8125,432.2031 536.5,433.2813 Q537.1875,434.3438 538.5313,434.3438 Q539.1563,434.3438 539.75,434.0781 Q540.3438,433.7969 540.9688,433.2188 L540.9688,435.9375 Z " fill="#000000"/><text fill="#000000" font-family="sans-serif" font-size="14" lengthAdjust="spacing" textLength="71" x="552" y="435.1436">MapModel</text></g><!--class Scripts--><g id="elem_Scripts"><rect codeLine="18" fill="#F1F1F1" height="32" id="Scripts" rx="2.5" ry="2.5" style="stroke:#181818;stroke-width:0.5;" width="114" x="173" y="1398.2969"/><ellipse cx="188" cy="1414.2969" fill="#ADD1B2" rx="11" ry="11" style="stroke:#181818;stroke-width:1.0;"/><path d="M190.9688,1419.9375 Q190.3906,1420.2344 189.75,1420.375 Q189.1094,1420.5313 188.4063,1420.5313 Q185.9063,1420.5313 184.5781,1418.8906 Q183.2656,1417.2344 183.2656,1414.1094 Q183.2656,1410.9844 184.5781,1409.3281 Q185.9063,1407.6719 188.4063,1407.6719 Q189.1094,1407.6719 189.75,1407.8281 Q190.4063,1407.9844 190.9688,1408.2813 L190.9688,1411 Q190.3438,1410.4219 189.75,1410.1563 Q189.1563,1409.875 188.5313,1409.875 Q187.1875,1409.875 186.5,1410.9531 Q185.8125,1412.0156 185.8125,1414.1094 Q185.8125,1416.2031 186.5,1417.2813 Q187.1875,1418.3438 188.5313,1418.3438 Q189.1563,1418.3438 189.75,1418.0781 Q190.3438,1417.7969 190.9688,1417.2188 L190.9688,1419.9375 Z " fill="#000000"/><text fill="#000000" font-family="sans-serif" font-size="14" lengthAdjust="spacing" textLength="82" x="202" y="1419.1436">User scripts</text></g><g id="elem_GMN32"><path d="M6,43.2969 L6,78.9063 L454,78.9063 L454,53.2969 L444,43.2969 L6,43.2969 " fill="#FEFFDD" style="stroke:#181818;stroke-width:0.5;"/><path d="M444,43.2969 L444,53.2969 L454,53.2969 L444,43.2969 " fill="#FEFFDD" style="stroke:#181818;stroke-width:1.0;"/><text fill="#000000" font-family="sans-serif" font-size="11" lengthAdjust="spacing" textLength="374" x="12" y="58.5073">The proxy layer keeps scripts separated from the internal model.</text><text fill="#000000" font-family="sans-serif" font-size="11" lengthAdjust="spacing" textLength="427" x="12" y="71.312">Scripts use the public API, while proxies access NodeModel and MapModel.</text></g><!--link NodeRO to Node--><!--link Node to NodeRO--><g id="link_Node_NodeRO"><path codeLine="57" d="M563,798.3369 C563,834.4769 563,903.9469 563,940.1669 " fill="none" id="Node-to-NodeRO" style="stroke:#181818;stroke-width:1.0;"/><polygon fill="none" points="563,958.1669,569,940.1669,557,940.1669,563,958.1669" style="stroke:#181818;stroke-width:1.0;"/><text fill="#000000" font-family="sans-serif" font-size="11" lengthAdjust="spacing" textLength="45" x="517" y="889.4673">extends</text></g><!--link Node to MindMap--><!--link NodeProxy to MapProxy--><!--link NodeProxy to MapProxy--><g id="link_NodeProxy_MapProxy"><path codeLine="76" d="M206,271.3369 C206,307.4769 206,388.9469 206,425.1669 " fill="none" id="NodeProxy-to-MapProxy" style="stroke:#808080;stroke-width:1.0;stroke-dasharray:7.0,7.0;"/><polygon fill="#808080" points="206,431.1669,210,422.1669,206,426.1669,202,422.1669,206,431.1669" style="stroke:#808080;stroke-width:1.0;"/><text fill="#000000" font-family="sans-serif" font-size="11" lengthAdjust="spacing" textLength="25" x="172.5" y="362.4673">map</text><text fill="#000000" font-family="sans-serif" font-size="11" lengthAdjust="spacing" textLength="40" x="165" y="375.272">access</text></g><!--link MapProxy to NodeProxy--><g id="link_MapProxy_NodeProxy"><path codeLine="77" d="M255,431.2569 C255,395.1169 255,313.6469 255,277.4269 " fill="none" id="MapProxy-to-NodeProxy" style="stroke:#808080;stroke-width:1.0;stroke-dasharray:7.0,7.0;"/><polygon fill="#808080" points="255,271.4269,251,280.4269,255,276.4269,259,280.4269,255,271.4269" style="stroke:#808080;stroke-width:1.0;"/><text fill="#000000" font-family="sans-serif" font-size="11" lengthAdjust="spacing" textLength="28" x="220" y="362.5473">node</text><text fill="#000000" font-family="sans-serif" font-size="11" lengthAdjust="spacing" textLength="40" x="214" y="375.352">access</text></g><!--link NodeModel to MapModel--><!--link MapModel to NodeModel--><g id="link_MapModel_NodeModel"><path codeLine="72" d="M549,414.2569 C549,378.1169 549,296.6469 549,260.4269 " fill="none" id="MapModel-to-NodeModel" style="stroke:#181818;stroke-width:1.0;"/><polygon fill="#181818" points="549,254.4269,545,263.4269,549,259.4269,553,263.4269,549,254.4269" style="stroke:#181818;stroke-width:1.0;"/><text fill="#000000" font-family="sans-serif" font-size="11" lengthAdjust="spacing" textLength="48" x="500" y="345.5473">contains</text><text fill="#000000" font-family="sans-serif" font-size="11" lengthAdjust="spacing" textLength="35" x="506.5" y="358.352">nodes</text></g><!--link NodeModel to MapModel--><g id="link_NodeModel_MapModel"><path codeLine="73" d="M575,254.3369 C575,290.4769 575,371.9469 575,408.1669 " fill="none" id="NodeModel-to-MapModel" style="stroke:#181818;stroke-width:1.0;"/><polygon fill="#181818" points="575,414.1669,579,405.1669,575,409.1669,571,405.1669,575,414.1669" style="stroke:#181818;stroke-width:1.0;"/><text fill="#000000" font-family="sans-serif" font-size="11" lengthAdjust="spacing" textLength="45" x="576" y="345.4673">belongs</text><text fill="#000000" font-family="sans-serif" font-size="11" lengthAdjust="spacing" textLength="11" x="593" y="358.272">to</text></g><!--link ApiPkg to ProxyPkg--><!--link ProxyPkg to ModelPkg--><!--link Scripts to ApiPkg--><!--link Scripts to Node--><g id="link_Scripts_Node"><path codeLine="60" d="M264,1398.1769 C264,1300.0869 264,787.6269 264,787.6269 C264,787.6269 452.28,787.6269 533.49,787.6269 " fill="none" id="Scripts-to-Node" style="stroke:#808080;stroke-width:1.0;stroke-dasharray:7.0,7.0;"/><polygon fill="#808080" points="539.49,787.6269,530.49,783.6269,534.49,787.6269,530.49,791.6269,539.49,787.6269" style="stroke:#808080;stroke-width:1.0;"/><text fill="#000000" font-family="sans-serif" font-size="11" lengthAdjust="spacing" textLength="28" x="265" y="966.3673">uses</text></g><!--link Scripts to MindMap--><g id="link_Scripts_MindMap"><path codeLine="61" d="M287.02,1408.9669 C379.26,1408.9669 551,1408.9669 551,1408.9669 C551,1408.9669 551,1243.0069 551,1188.5969 " fill="none" id="Scripts-to-MindMap" style="stroke:#808080;stroke-width:1.0;stroke-dasharray:7.0,7.0;"/><polygon fill="#808080" points="551,1182.5969,547,1191.5969,551,1187.5969,555,1191.5969,551,1182.5969" style="stroke:#808080;stroke-width:1.0;"/><text fill="#000000" font-family="sans-serif" font-size="11" lengthAdjust="spacing" textLength="28" x="503.19" y="1420.1773">uses</text></g><!--link NodeProxy to Node--><g id="link_NodeProxy_Node"><path codeLine="64" d="M283.31,262.7969 C323.23,262.7969 371,262.7969 371,262.7969 C371,262.7969 371,776.9669 371,776.9669 C371,776.9669 474.75,776.9669 533.05,776.9669 " fill="none" id="NodeProxy-to-Node" style="stroke:#181818;stroke-width:1.0;"/><polygon fill="#181818" points="539.05,776.9669,530.05,772.9669,534.05,776.9669,530.05,780.9669,539.05,776.9669" style="stroke:#181818;stroke-width:1.0;"/><text fill="#000000" font-family="sans-serif" font-size="11" lengthAdjust="spacing" textLength="48" x="321.5" y="571.2673">exposes</text><text fill="#000000" font-family="sans-serif" font-size="11" lengthAdjust="spacing" textLength="49" x="321" y="584.072">node API</text></g><!--link MapProxy to MindMap--><g id="link_MapProxy_MindMap"><path codeLine="65" d="M248,463.3269 C248,569.4069 248,1166.2969 248,1166.2969 C248,1166.2969 430.95,1166.2969 521.37,1166.2969 " fill="none" id="MapProxy-to-MindMap" style="stroke:#181818;stroke-width:1.0;"/><polygon fill="#181818" points="527.37,1166.2969,518.37,1162.2969,522.37,1166.2969,518.37,1170.2969,527.37,1166.2969" style="stroke:#181818;stroke-width:1.0;"/><text fill="#000000" font-family="sans-serif" font-size="11" lengthAdjust="spacing" textLength="48" x="199" y="965.7073">exposes</text><text fill="#000000" font-family="sans-serif" font-size="11" lengthAdjust="spacing" textLength="46" x="200" y="978.512">map API</text></g><!--link NodeProxy to NodeModel--><g id="link_NodeProxy_NodeModel"><path codeLine="68" d="M283.07,246.7969 C346.96,246.7969 447.75,246.7969 512.79,246.7969 " fill="none" id="NodeProxy-to-NodeModel" style="stroke:#181818;stroke-width:1.0;"/><polygon fill="#181818" points="518.79,246.7969,509.79,242.7969,513.79,246.7969,509.79,250.7969,518.79,246.7969" style="stroke:#181818;stroke-width:1.0;"/><text fill="#000000" font-family="sans-serif" font-size="11" lengthAdjust="spacing" textLength="35" x="364.93" y="258.0073">wraps</text></g><!--link MapProxy to MapModel--><g id="link_MapProxy_MapModel"><path codeLine="69" d="M279.36,438.7969 C344.1,438.7969 451.18,438.7969 516.98,438.7969 " fill="none" id="MapProxy-to-MapModel" style="stroke:#181818;stroke-width:1.0;"/><polygon fill="#181818" points="522.98,438.7969,513.98,434.7969,517.98,438.7969,513.98,442.7969,522.98,438.7969" style="stroke:#181818;stroke-width:1.0;"/><text fill="#000000" font-family="sans-serif" font-size="11" lengthAdjust="spacing" textLength="35" x="365.17" y="450.0073">wraps</text></g><!--link ProxyPkg to GMN32--><g id="link_ProxyPkg_GMN32"><path d="M130.5417,623.2969 C130.056,623.2969 129.5727,623.2969 129.0917,623.2969 C128.1299,623.2969 127.1778,623.2969 126.2364,623.2969 C124.3536,623.2969 122.5136,623.2969 120.7243,623.2969 C117.1457,623.2969 113.7695,623.2969 110.658,623.2969 C98.2119,623.2969 90,623.2969 90,623.2969 C90,623.2969 90,175.5569 90,79.3569 " fill="none" id="ProxyPkg-GMN32" style="stroke:#181818;stroke-width:1.0;stroke-dasharray:7.0,7.0;"/></g><rect fill="#DDDDDD" height="61.2188" id="_legend" rx="7.5" ry="7.5" style="stroke:#000000;stroke-width:1.0;" width="290" x="376" y="1448.2969"/><text fill="#000000" font-family="sans-serif" font-size="11" font-weight="bold" lengthAdjust="spacing" textLength="69" x="381" y="1463.5073">Line styles</text><text fill="#000000" font-family="sans-serif" font-size="11" lengthAdjust="spacing" textLength="280" x="381" y="1476.312">Hollow triangle arrow: API inheritance / extension</text><text fill="#000000" font-family="sans-serif" font-size="11" lengthAdjust="spacing" textLength="252" x="381" y="1489.1167">Solid black line: main structural dependency</text><text fill="#000000" font-family="sans-serif" font-size="11" lengthAdjust="spacing" textLength="235" x="381" y="1501.9214">Dashed gray line: secondary dependency</text><!--SRC=[bLPDRzim3BthLn3TOPUcNG_heHWA11YA5MYtODbEQr4eDcCBaIL3KfQcs_xxACgodOyDMozr9PAFZtoa6bJG2DFPBKXJWY-SQeCo5PIsaSh010fR8fJOeYdH50gz41gN0O85fwewGAaS5a5P8pm6CB91tye2vzXA9uDrOAn18VnAcNZIGA6bzzCGd5gi0zuMripL2yARaOclPMatCO-br1v7DnHw9IkSXosb7O6bgVJOG2k3OTiYM1TgExemHCHZ2nUNOoGdpIgUNhuT7KwTiviRQm8dTd4nklfe0nw_kSEAQZI-4xMYsc7JXYqqs2pGKV6OFPnyzUYwSliJa1xcwLk8ZY6SM5UTBHrYgwL1jhd9Vy4F8G1wozxgIRRgmRJhXLP5R2fxJLirMrNa0lIZJ42tfFuGan8_Vpfok7TqhqnvBrl1nw_XnheY2GOrDcY21siWr0YUMW-rTUg5QY0rTuAT4X9Clb4zI4IFh9l9W1K_3cupBC2lFt1jzRfIvYaLaLWx-xm5BRVecFOi_ZqGJtMFK7mnEYEKTBJ3C8LZ2_mtYXpaa4UEVa04PLWxzEUDR1yCrzjGo8OYQIPm7x-E4U2BNGBfQ8S01_el0Xpa684Co0Ho_1WkrDIDRbVuk19ya5lI3i7jm2ortP1hfyHzXDmfikYRTf15Lmn1EUGCkl7fSJkEl9xiah-ZJhkAYsx23aAdh6BOMJyuj5gqvAMMn3dvUPrbV0Nu76ZIVVH8CK4M1Ne_GdXLERazBQMliNoS95_oN5Ch_cBLQJuRnem6KHDiQsChX_4M8zaD89tTWuaRZyso1jbg0EaDIO5ijmUuSRBriAlC8v19DbV9V0-hqqv_ImYtE_66GlUs-t6Bg27ILoBanKYgkn0BrDPKP1SizmR9ivHkIu_ITrKn2jc43QBXyLPTi3ou1-t8LAw0PxJhyi3mQ9kpIqoszn66tWrOs11i4xNPI_vBdLTDglcAjfllbUtJ8uebB1qvHaNljkEiLnCfXky7TPp2fbOQCzLEfAFInXS_b-zCaAGXPXdVz_YIvMnvIcWqtoskxsXRqAZHq-lVdI-kwV23rJJQG6yvlyCWuyjvnHEaJ8rEqVjCatgUPiR7FWFChLOKNjDSyWAAvQMTuODR5xGIYLl__qPSc- -vl11BtPdxlhCZG_gT4XU_0G00]--></g></svg>