<?xml version="1.0" encoding="us-ascii" standalone="no"?><svg xmlns="http://www.w3.org/2000/svg" xmlns:xlink="http://www.w3.org/1999/xlink" contentStyleType="text/css" height="1185px" preserveAspectRatio="none" style="width:1178px;height:1185px;background:#FFFFFF;" version="1.1" viewBox="0 0 1178 1185" width="1178px" zoomAndPan="magnify"><defs/><g><text fill="#000000" font-family="sans-serif" font-size="14" font-weight="bold" lengthAdjust="spacing" textLength="381" x="391.5" y="22.9951">Outline subsystem domain - code dependencies</text><!--cluster Freeplane--><g id="cluster_Freeplane"><rect fill="none" height="1043" rx="2.5" ry="2.5" style="stroke:#000000;stroke-width:1.5;" width="822" x="350" y="44.2969"/><text fill="#000000" font-family="sans-serif" font-size="14" font-weight="bold" lengthAdjust="spacing" textLength="108" x="707" y="59.292">org.freeplane</text></g><!--cluster OutlinePkg--><g id="cluster_OutlinePkg"><rect fill="none" height="441" rx="2.5" ry="2.5" style="stroke:#000000;stroke-width:1.5;" width="758" x="382" y="614.2969"/><text fill="#000000" font-family="sans-serif" font-size="14" font-weight="bold" lengthAdjust="spacing" textLength="186" x="668" y="629.292">view/swing/map/outline</text></g><!--cluster MapPkg--><g id="cluster_MapPkg"><rect fill="none" height="385" rx="2.5" ry="2.5" style="stroke:#000000;stroke-width:1.5;" width="149" x="696" y="189.2969"/><text fill="#000000" font-family="sans-serif" font-size="14" font-weight="bold" lengthAdjust="spacing" textLength="127" x="707" y="204.292">view/swing/map</text></g><!--cluster FeaturesPkg--><g id="cluster_FeaturesPkg"><rect fill="none" height="218" rx="2.5" ry="2.5" style="stroke:#000000;stroke-width:1.5;" width="159" x="952.5" y="95.2969"/><text fill="#000000" font-family="sans-serif" font-size="14" font-weight="bold" lengthAdjust="spacing" textLength="105" x="979.5" y="110.292">features/map</text></g><!--class MapAwareOutlinePane--><g id="elem_MapAwareOutlinePane"><rect codeLine="21" fill="#F1F1F1" height="32" id="MapAwareOutlinePane" rx="2.5" ry="2.5" style="stroke:#181818;stroke-width:0.5;" width="187" x="406" y="776.2969"/><ellipse cx="421" cy="792.2969" fill="#ADD1B2" rx="11" ry="11" style="stroke:#181818;stroke-width:1.0;"/><path d="M423.9688,797.9375 Q423.3906,798.2344 422.75,798.375 Q422.1094,798.5313 421.4063,798.5313 Q418.9063,798.5313 417.5781,796.8906 Q416.2656,795.2344 416.2656,792.1094 Q416.2656,788.9844 417.5781,787.3281 Q418.9063,785.6719 421.4063,785.6719 Q422.1094,785.6719 422.75,785.8281 Q423.4063,785.9844 423.9688,786.2813 L423.9688,789 Q423.3438,788.4219 422.75,788.1563 Q422.1563,787.875 421.5313,787.875 Q420.1875,787.875 419.5,788.9531 Q418.8125,790.0156 418.8125,792.1094 Q418.8125,794.2031 419.5,795.2813 Q420.1875,796.3438 421.5313,796.3438 Q422.1563,796.3438 422.75,796.0781 Q423.3438,795.7969 423.9688,795.2188 L423.9688,797.9375 Z " fill="#000000"/><text fill="#000000" font-family="sans-serif" font-size="14" lengthAdjust="spacing" textLength="155" x="435" y="797.1436">MapAwareOutlinePane</text></g><!--class OutlinePane--><g id="elem_OutlinePane"><rect codeLine="22" fill="#F1F1F1" height="32" id="OutlinePane" rx="2.5" ry="2.5" style="stroke:#181818;stroke-width:0.5;" width="116" x="441.5" y="943.2969"/><ellipse cx="456.5" cy="959.2969" fill="#ADD1B2" rx="11" ry="11" style="stroke:#181818;stroke-width:1.0;"/><path d="M459.4688,964.9375 Q458.8906,965.2344 458.25,965.375 Q457.6094,965.5313 456.9063,965.5313 Q454.4063,965.5313 453.0781,963.8906 Q451.7656,962.2344 451.7656,959.1094 Q451.7656,955.9844 453.0781,954.3281 Q454.4063,952.6719 456.9063,952.6719 Q457.6094,952.6719 458.25,952.8281 Q458.9063,952.9844 459.4688,953.2813 L459.4688,956 Q458.8438,955.4219 458.25,955.1563 Q457.6563,954.875 457.0313,954.875 Q455.6875,954.875 455,955.9531 Q454.3125,957.0156 454.3125,959.1094 Q454.3125,961.2031 455,962.2813 Q455.6875,963.3438 457.0313,963.3438 Q457.6563,963.3438 458.25,963.0781 Q458.8438,962.7969 459.4688,962.2188 L459.4688,964.9375 Z " fill="#000000"/><text fill="#000000" font-family="sans-serif" font-size="14" lengthAdjust="spacing" textLength="84" x="470.5" y="964.1436">OutlinePane</text></g><!--class BreadcrumbPanel--><g id="elem_BreadcrumbPanel"><rect codeLine="23" fill="#F1F1F1" height="32" id="BreadcrumbPanel" rx="2.5" ry="2.5" style="stroke:#181818;stroke-width:0.5;" width="155" x="693" y="685.2969"/><ellipse cx="708" cy="701.2969" fill="#ADD1B2" rx="11" ry="11" style="stroke:#181818;stroke-width:1.0;"/><path d="M710.9688,706.9375 Q710.3906,707.2344 709.75,707.375 Q709.1094,707.5313 708.4063,707.5313 Q705.9063,707.5313 704.5781,705.8906 Q703.2656,704.2344 703.2656,701.1094 Q703.2656,697.9844 704.5781,696.3281 Q705.9063,694.6719 708.4063,694.6719 Q709.1094,694.6719 709.75,694.8281 Q710.4063,694.9844 710.9688,695.2813 L710.9688,698 Q710.3438,697.4219 709.75,697.1563 Q709.1563,696.875 708.5313,696.875 Q707.1875,696.875 706.5,697.9531 Q705.8125,699.0156 705.8125,701.1094 Q705.8125,703.2031 706.5,704.2813 Q707.1875,705.3438 708.5313,705.3438 Q709.1563,705.3438 709.75,705.0781 Q710.3438,704.7969 710.9688,704.2188 L710.9688,706.9375 Z " fill="#000000"/><text fill="#000000" font-family="sans-serif" font-size="14" lengthAdjust="spacing" textLength="123" x="722" y="706.1436">BreadcrumbPanel</text></g><!--class ScrollableTreePanel--><g id="elem_ScrollableTreePanel"><rect codeLine="24" fill="#F1F1F1" height="32" id="ScrollableTreePanel" rx="2.5" ry="2.5" style="stroke:#181818;stroke-width:0.5;" width="168" x="948" y="832.2969"/><ellipse cx="963" cy="848.2969" fill="#ADD1B2" rx="11" ry="11" style="stroke:#181818;stroke-width:1.0;"/><path d="M965.9688,853.9375 Q965.3906,854.2344 964.75,854.375 Q964.1094,854.5313 963.4063,854.5313 Q960.9063,854.5313 959.5781,852.8906 Q958.2656,851.2344 958.2656,848.1094 Q958.2656,844.9844 959.5781,843.3281 Q960.9063,841.6719 963.4063,841.6719 Q964.1094,841.6719 964.75,841.8281 Q965.4063,841.9844 965.9688,842.2813 L965.9688,845 Q965.3438,844.4219 964.75,844.1563 Q964.1563,843.875 963.5313,843.875 Q962.1875,843.875 961.5,844.9531 Q960.8125,846.0156 960.8125,848.1094 Q960.8125,850.2031 961.5,851.2813 Q962.1875,852.3438 963.5313,852.3438 Q964.1563,852.3438 964.75,852.0781 Q965.3438,851.7969 965.9688,851.2188 L965.9688,853.9375 Z " fill="#000000"/><text fill="#000000" font-family="sans-serif" font-size="14" lengthAdjust="spacing" textLength="136" x="977" y="853.1436">ScrollableTreePanel</text></g><!--class OutlineController--><g id="elem_OutlineController"><rect codeLine="25" fill="#F1F1F1" height="32" id="OutlineController" rx="2.5" ry="2.5" style="stroke:#181818;stroke-width:0.5;" width="148" x="696.5" y="989.2969"/><ellipse cx="711.5" cy="1005.2969" fill="#ADD1B2" rx="11" ry="11" style="stroke:#181818;stroke-width:1.0;"/><path d="M714.4688,1010.9375 Q713.8906,1011.2344 713.25,1011.375 Q712.6094,1011.5313 711.9063,1011.5313 Q709.4063,1011.5313 708.0781,1009.8906 Q706.7656,1008.2344 706.7656,1005.1094 Q706.7656,1001.9844 708.0781,1000.3281 Q709.4063,998.6719 711.9063,998.6719 Q712.6094,998.6719 713.25,998.8281 Q713.9063,998.9844 714.4688,999.2813 L714.4688,1002 Q713.8438,1001.4219 713.25,1001.1563 Q712.6563,1000.875 712.0313,1000.875 Q710.6875,1000.875 710,1001.9531 Q709.3125,1003.0156 709.3125,1005.1094 Q709.3125,1007.2031 710,1008.2813 Q710.6875,1009.3438 712.0313,1009.3438 Q712.6563,1009.3438 713.25,1009.0781 Q713.8438,1008.7969 714.4688,1008.2188 L714.4688,1010.9375 Z " fill="#000000"/><text fill="#000000" font-family="sans-serif" font-size="14" lengthAdjust="spacing" textLength="116" x="725.5" y="1010.1436">OutlineController</text></g><!--class BlockPanel--><g id="elem_BlockPanel"><rect codeLine="26" fill="#F1F1F1" height="32" id="BlockPanel" rx="2.5" ry="2.5" style="stroke:#181818;stroke-width:0.5;" width="108" x="978" y="999.2969"/><ellipse cx="993" cy="1015.2969" fill="#ADD1B2" rx="11" ry="11" style="stroke:#181818;stroke-width:1.0;"/><path d="M995.9688,1020.9375 Q995.3906,1021.2344 994.75,1021.375 Q994.1094,1021.5313 993.4063,1021.5313 Q990.9063,1021.5313 989.5781,1019.8906 Q988.2656,1018.2344 988.2656,1015.1094 Q988.2656,1011.9844 989.5781,1010.3281 Q990.9063,1008.6719 993.4063,1008.6719 Q994.1094,1008.6719 994.75,1008.8281 Q995.4063,1008.9844 995.9688,1009.2813 L995.9688,1012 Q995.3438,1011.4219 994.75,1011.1563 Q994.1563,1010.875 993.5313,1010.875 Q992.1875,1010.875 991.5,1011.9531 Q990.8125,1013.0156 990.8125,1015.1094 Q990.8125,1017.2031 991.5,1018.2813 Q992.1875,1019.3438 993.5313,1019.3438 Q994.1563,1019.3438 994.75,1019.0781 Q995.3438,1018.7969 995.9688,1018.2188 L995.9688,1020.9375 Z " fill="#000000"/><text fill="#000000" font-family="sans-serif" font-size="14" lengthAdjust="spacing" textLength="76" x="1007" y="1020.1436">BlockPanel</text></g><!--class OutlineViewport--><g id="elem_OutlineViewport"><rect codeLine="27" fill="#F1F1F1" height="32" id="OutlineViewport" rx="2.5" ry="2.5" style="stroke:#181818;stroke-width:0.5;" width="141" x="961.5" y="665.2969"/><ellipse cx="976.5" cy="681.2969" fill="#ADD1B2" rx="11" ry="11" style="stroke:#181818;stroke-width:1.0;"/><path d="M979.4688,686.9375 Q978.8906,687.2344 978.25,687.375 Q977.6094,687.5313 976.9063,687.5313 Q974.4063,687.5313 973.0781,685.8906 Q971.7656,684.2344 971.7656,681.1094 Q971.7656,677.9844 973.0781,676.3281 Q974.4063,674.6719 976.9063,674.6719 Q977.6094,674.6719 978.25,674.8281 Q978.9063,674.9844 979.4688,675.2813 L979.4688,678 Q978.8438,677.4219 978.25,677.1563 Q977.6563,676.875 977.0313,676.875 Q975.6875,676.875 975,677.9531 Q974.3125,679.0156 974.3125,681.1094 Q974.3125,683.2031 975,684.2813 Q975.6875,685.3438 977.0313,685.3438 Q977.6563,685.3438 978.25,685.0781 Q978.8438,684.7969 979.4688,684.2188 L979.4688,686.9375 Z " fill="#000000"/><text fill="#000000" font-family="sans-serif" font-size="14" lengthAdjust="spacing" textLength="109" x="990.5" y="686.1436">OutlineViewport</text></g><!--class MapView--><g id="elem_MapView"><rect codeLine="40" fill="#F1F1F1" height="32" id="MapView" rx="2.5" ry="2.5" style="stroke:#181818;stroke-width:0.5;" width="93" x="724" y="518.2969"/><ellipse cx="739" cy="534.2969" fill="#ADD1B2" rx="11" ry="11" style="stroke:#181818;stroke-width:1.0;"/><path d="M741.9688,539.9375 Q741.3906,540.2344 740.75,540.375 Q740.1094,540.5313 739.4063,540.5313 Q736.9063,540.5313 735.5781,538.8906 Q734.2656,537.2344 734.2656,534.1094 Q734.2656,530.9844 735.5781,529.3281 Q736.9063,527.6719 739.4063,527.6719 Q740.1094,527.6719 740.75,527.8281 Q741.4063,527.9844 741.9688,528.2813 L741.9688,531 Q741.3438,530.4219 740.75,530.1563 Q740.1563,529.875 739.5313,529.875 Q738.1875,529.875 737.5,530.9531 Q736.8125,532.0156 736.8125,534.1094 Q736.8125,536.2031 737.5,537.2813 Q738.1875,538.3438 739.5313,538.3438 Q740.1563,538.3438 740.75,538.0781 Q741.3438,537.7969 741.9688,537.2188 L741.9688,539.9375 Z " fill="#000000"/><text fill="#000000" font-family="sans-serif" font-size="14" lengthAdjust="spacing" textLength="61" x="753" y="539.1436">MapView</text></g><!--class NodeView--><g id="elem_NodeView"><rect codeLine="41" fill="#F1F1F1" height="32" id="NodeView" rx="2.5" ry="2.5" style="stroke:#181818;stroke-width:0.5;" width="101" x="720" y="351.2969"/><ellipse cx="735" cy="367.2969" fill="#ADD1B2" rx="11" ry="11" style="stroke:#181818;stroke-width:1.0;"/><path d="M737.9688,372.9375 Q737.3906,373.2344 736.75,373.375 Q736.1094,373.5313 735.4063,373.5313 Q732.9063,373.5313 731.5781,371.8906 Q730.2656,370.2344 730.2656,367.1094 Q730.2656,363.9844 731.5781,362.3281 Q732.9063,360.6719 735.4063,360.6719 Q736.1094,360.6719 736.75,360.8281 Q737.4063,360.9844 737.9688,361.2813 L737.9688,364 Q737.3438,363.4219 736.75,363.1563 Q736.1563,362.875 735.5313,362.875 Q734.1875,362.875 733.5,363.9531 Q732.8125,365.0156 732.8125,367.1094 Q732.8125,369.2031 733.5,370.2813 Q734.1875,371.3438 735.5313,371.3438 Q736.1563,371.3438 736.75,371.0781 Q737.3438,370.7969 737.9688,370.2188 L737.9688,372.9375 Z " fill="#000000"/><text fill="#000000" font-family="sans-serif" font-size="14" lengthAdjust="spacing" textLength="69" x="749" y="372.1436">NodeView</text></g><!--class NodeModel--><g id="elem_NodeModel"><rect codeLine="45" fill="#F1F1F1" height="32" id="NodeModel" rx="2.5" ry="2.5" style="stroke:#181818;stroke-width:0.5;" width="111" x="976.5" y="138.2969"/><ellipse cx="991.5" cy="154.2969" fill="#ADD1B2" rx="11" ry="11" style="stroke:#181818;stroke-width:1.0;"/><path d="M994.4688,159.9375 Q993.8906,160.2344 993.25,160.375 Q992.6094,160.5313 991.9063,160.5313 Q989.4063,160.5313 988.0781,158.8906 Q986.7656,157.2344 986.7656,154.1094 Q986.7656,150.9844 988.0781,149.3281 Q989.4063,147.6719 991.9063,147.6719 Q992.6094,147.6719 993.25,147.8281 Q993.9063,147.9844 994.4688,148.2813 L994.4688,151 Q993.8438,150.4219 993.25,150.1563 Q992.6563,149.875 992.0313,149.875 Q990.6875,149.875 990,150.9531 Q989.3125,152.0156 989.3125,154.1094 Q989.3125,156.2031 990,157.2813 Q990.6875,158.3438 992.0313,158.3438 Q992.6563,158.3438 993.25,158.0781 Q993.8438,157.7969 994.4688,157.2188 L994.4688,159.9375 Z " fill="#000000"/><text fill="#000000" font-family="sans-serif" font-size="14" lengthAdjust="spacing" textLength="79" x="1005.5" y="159.1436">NodeModel</text></g><!--class ExternalConcerns--><g id="elem_ExternalConcerns"><rect codeLine="53" fill="#F1F1F1" height="58.8906" id="ExternalConcerns" rx="2.5" ry="2.5" style="stroke:#181818;stroke-width:0.5;" width="210" x="51" y="762.7969"/><ellipse cx="66" cy="792.2422" fill="#ADD1B2" rx="11" ry="11" style="stroke:#181818;stroke-width:1.0;"/><path d="M68.9688,797.8828 Q68.3906,798.1797 67.75,798.3203 Q67.1094,798.4766 66.4063,798.4766 Q63.9063,798.4766 62.5781,796.8359 Q61.2656,795.1797 61.2656,792.0547 Q61.2656,788.9297 62.5781,787.2734 Q63.9063,785.6172 66.4063,785.6172 Q67.1094,785.6172 67.75,785.7734 Q68.4063,785.9297 68.9688,786.2266 L68.9688,788.9453 Q68.3438,788.3672 67.75,788.1016 Q67.1563,787.8203 66.5313,787.8203 Q65.1875,787.8203 64.5,788.8984 Q63.8125,789.9609 63.8125,792.0547 Q63.8125,794.1484 64.5,795.2266 Q65.1875,796.2891 66.5313,796.2891 Q67.1563,796.2891 67.75,796.0234 Q68.3438,795.7422 68.9688,795.1641 L68.9688,797.8828 Z " fill="#000000"/><text fill="#000000" font-family="sans-serif" font-size="14" lengthAdjust="spacing" textLength="124" x="107" y="780.792">External concerns</text><text fill="#000000" font-family="sans-serif" font-size="14" lengthAdjust="spacing" textLength="108" x="115" y="797.0889">listeners, filters,</text><text fill="#000000" font-family="sans-serif" font-size="14" lengthAdjust="spacing" textLength="178" x="80" y="813.3857">bookmarks, toolbar/menu</text></g><g id="elem_GMN43"><path d="M6,579.2969 L6,627.7109 A0,0 0 0 0 6,627.7109 L152,627.7109 L156,762.7869 L160,627.7109 L306,627.7109 A0,0 0 0 0 306,627.7109 L306,589.2969 L296,579.2969 L6,579.2969 A0,0 0 0 0 6,579.2969 " fill="#FEFFDD" style="stroke:#181818;stroke-width:0.5;"/><path d="M296,579.2969 L296,589.2969 L306,589.2969 L296,579.2969 " fill="#FEFFDD" style="stroke:#181818;stroke-width:0.5;"/><text fill="#000000" font-family="sans-serif" font-size="11" lengthAdjust="spacing" textLength="279" x="12" y="594.5073">Grouped external concerns show that the outline</text><text fill="#000000" font-family="sans-serif" font-size="11" lengthAdjust="spacing" textLength="272" x="12" y="607.312">must react to map listeners, filters, bookmarks</text><text fill="#000000" font-family="sans-serif" font-size="11" lengthAdjust="spacing" textLength="150" x="12" y="620.1167">and toolbar/menu actions.</text></g><!--link MapAwareOutlinePane to OutlinePane--><!--link MapAwareOutlinePane to OutlinePane--><g id="link_MapAwareOutlinePane_OutlinePane"><path codeLine="58" d="M481,808.3069 C481,840.1469 481,893.0869 481,925.0869 " fill="none" id="MapAwareOutlinePane-to-OutlinePane" style="stroke:#181818;stroke-width:1.0;"/><polygon fill="none" points="481,943.0869,487,925.0869,475,925.0869,481,943.0869" style="stroke:#181818;stroke-width:1.0;"/><text fill="#000000" font-family="sans-serif" font-size="10" lengthAdjust="spacing" textLength="39" x="441" y="885.9791">extends</text></g><!--link OutlinePane to ScrollableTreePanel--><!--link OutlinePane to ScrollableTreePanel--><g id="link_OutlinePane_ScrollableTreePanel"><path codeLine="62" d="M557.52,962.4969 C680.05,962.4969 954,962.4969 954,962.4969 C954,962.4969 954,902.2369 954,870.6569 " fill="none" id="OutlinePane-to-ScrollableTreePanel" style="stroke:#181818;stroke-width:1.0;"/><polygon fill="#181818" points="954,864.6569,950,873.6569,954,869.6569,958,873.6569,954,864.6569" style="stroke:#181818;stroke-width:1.0;"/><text fill="#000000" font-family="sans-serif" font-size="10" lengthAdjust="spacing" textLength="57" x="746.68" y="972.7791">creates and</text><text fill="#000000" font-family="sans-serif" font-size="10" lengthAdjust="spacing" textLength="56" x="747.18" y="984.4197">coordinates</text></g><!--link ScrollableTreePanel to BlockPanel--><!--link ScrollableTreePanel to BlockPanel--><g id="link_ScrollableTreePanel_BlockPanel"><path codeLine="68" d="M1005,864.3069 C1005,896.1469 1005,961.0869 1005,993.0869 " fill="none" id="ScrollableTreePanel-to-BlockPanel" style="stroke:#181818;stroke-width:1.0;"/><polygon fill="#181818" points="1005,999.0869,1009,990.0869,1005,994.0869,1001,990.0869,1005,999.0869" style="stroke:#181818;stroke-width:1.0;"/><text fill="#000000" font-family="sans-serif" font-size="10" lengthAdjust="spacing" textLength="47" x="948" y="941.9791">delegates</text><text fill="#000000" font-family="sans-serif" font-size="10" lengthAdjust="spacing" textLength="65" x="939" y="953.6197">visible groups</text></g><!--link BlockPanel to ScrollableTreePanel--><g id="link_BlockPanel_ScrollableTreePanel"><path codeLine="69" d="M1059,999.2869 C1059,967.4469 1059,902.5069 1059,870.5069 " fill="none" id="BlockPanel-to-ScrollableTreePanel" style="stroke:#181818;stroke-width:1.0;"/><polygon fill="#181818" points="1059,864.5069,1055,873.5069,1059,869.5069,1063,873.5069,1059,864.5069" style="stroke:#181818;stroke-width:1.0;"/><text fill="#000000" font-family="sans-serif" font-size="10" lengthAdjust="spacing" textLength="59" x="1060" y="942.1791">returns user</text><text fill="#000000" font-family="sans-serif" font-size="10" lengthAdjust="spacing" textLength="34" x="1072.5" y="953.8197">actions</text></g><!--link ScrollableTreePanel to OutlineViewport--><!--link ScrollableTreePanel to OutlineViewport--><g id="link_ScrollableTreePanel_OutlineViewport"><path codeLine="71" d="M1009,832.2869 C1009,800.4469 1009,735.5069 1009,703.5069 " fill="none" id="ScrollableTreePanel-to-OutlineViewport" style="stroke:#181818;stroke-width:1.0;"/><polygon fill="#181818" points="1009,697.5069,1005,706.5069,1009,702.5069,1013,706.5069,1009,697.5069" style="stroke:#181818;stroke-width:1.0;"/><text fill="#000000" font-family="sans-serif" font-size="10" lengthAdjust="spacing" textLength="57" x="936.5" y="775.1791">creates and</text><text fill="#000000" font-family="sans-serif" font-size="10" lengthAdjust="spacing" textLength="86" x="922" y="786.8197">manages scrolling</text></g><!--link BreadcrumbPanel to OutlinePane--><!--reverse link BreadcrumbPanel to OutlinePane--><g id="link_BreadcrumbPanel_OutlinePane"><path codeLine="61" d="M727,723.5969 C727,778.8569 727,949.6969 727,949.6969 C727,949.6969 625.2,949.6969 557.79,949.6969 " fill="none" id="BreadcrumbPanel-backto-OutlinePane" style="stroke:#181818;stroke-width:1.0;"/><polygon fill="#181818" points="727,717.5969,723,726.5969,727,722.5969,731,726.5969,727,717.5969" style="stroke:#181818;stroke-width:1.0;"/><text fill="#000000" font-family="sans-serif" font-size="10" lengthAdjust="spacing" textLength="57" x="669" y="928.5291">creates and</text><text fill="#000000" font-family="sans-serif" font-size="10" lengthAdjust="spacing" textLength="56" x="669.5" y="940.1697">coordinates</text></g><!--link BreadcrumbPanel to OutlineController--><!--reverse link OutlineController to BreadcrumbPanel--><g id="link_OutlineController_BreadcrumbPanel"><path codeLine="65" d="M815,982.9569 C815,930.0469 815,769.8469 815,717.3569 " fill="none" id="OutlineController-backto-BreadcrumbPanel" style="stroke:#181818;stroke-width:1.0;"/><polygon fill="#181818" points="815,988.9569,819,979.9569,815,983.9569,811,979.9569,815,988.9569" style="stroke:#181818;stroke-width:1.0;"/><text fill="#000000" font-family="sans-serif" font-size="10" lengthAdjust="spacing" textLength="92" x="722" y="863.4391">delegates selection</text><text fill="#000000" font-family="sans-serif" font-size="10" lengthAdjust="spacing" textLength="70" x="733" y="875.0797">and expansion</text></g><!--link OutlineController to ScrollableTreePanel--><!--link OutlineController to ScrollableTreePanel--><g id="link_OutlineController_ScrollableTreePanel"><path codeLine="66" d="M844.67,995.9669 C902.13,995.9669 972,995.9669 972,995.9669 C972,995.9669 972,908.6569 972,870.3769 " fill="none" id="OutlineController-to-ScrollableTreePanel" style="stroke:#181818;stroke-width:1.0;"/><polygon fill="#181818" points="972,864.3769,968,873.3769,972,869.3769,976,873.3769,972,864.3769" style="stroke:#181818;stroke-width:1.0;"/><text fill="#000000" font-family="sans-serif" font-size="10" lengthAdjust="spacing" textLength="38" x="933" y="1004.1191">controls</text></g><!--link OutlinePkg to MapPkg--><!--link MapPkg to FeaturesPkg--><!--link ExternalConcerns to MapAwareOutlinePane--><!--link MapAwareOutlinePane to ExternalConcerns--><g id="link_MapAwareOutlinePane_ExternalConcerns"><path codeLine="77" d="M405.64,786.9669 C360.94,786.9669 313.32,786.9669 267.25,786.9669 " fill="none" id="MapAwareOutlinePane-to-ExternalConcerns" style="stroke:#808080;stroke-width:1.0;stroke-dasharray:7.0,7.0;"/><polygon fill="#808080" points="261.25,786.9669,270.25,790.9669,266.25,786.9669,270.25,782.9669,261.25,786.9669" style="stroke:#808080;stroke-width:1.0;"/><text fill="#000000" font-family="sans-serif" font-size="10" lengthAdjust="spacing" textLength="22" x="310.44" y="797.2491">uses</text></g><!--link OutlinePane to OutlineController--><g id="link_OutlinePane_OutlineController"><path codeLine="63" d="M500,975.3869 C500,988.6469 500,1005.2969 500,1005.2969 C500,1005.2969 610.15,1005.2969 690.23,1005.2969 " fill="none" id="OutlinePane-to-OutlineController" style="stroke:#181818;stroke-width:1.0;"/><polygon fill="#181818" points="696.23,1005.2969,687.23,1001.2969,691.23,1005.2969,687.23,1009.2969,696.23,1005.2969" style="stroke:#181818;stroke-width:1.0;"/><text fill="#000000" font-family="sans-serif" font-size="10" lengthAdjust="spacing" textLength="57" x="525.16" y="1015.5791">creates and</text><text fill="#000000" font-family="sans-serif" font-size="10" lengthAdjust="spacing" textLength="56" x="525.66" y="1027.2197">coordinates</text></g><!--link MapAwareOutlinePane to MapView--><g id="link_MapAwareOutlinePane_MapView"><path codeLine="74" d="M570,776.1569 C570,719.6769 570,534.2969 570,534.2969 C570,534.2969 658.77,534.2969 718,534.2969 " fill="none" id="MapAwareOutlinePane-to-MapView" style="stroke:#808080;stroke-width:1.0;stroke-dasharray:7.0,7.0;"/><polygon fill="#808080" points="724,534.2969,715,530.2969,719,534.2969,715,538.2969,724,534.2969" style="stroke:#808080;stroke-width:1.0;"/><text fill="#000000" font-family="sans-serif" font-size="10" lengthAdjust="spacing" textLength="22" x="547" y="588.5091">sync</text></g><!--link MapAwareOutlinePane to NodeView--><g id="link_MapAwareOutlinePane_NodeView"><path codeLine="75" d="M547,776.1569 C547,698.5269 547,367.2969 547,367.2969 C547,367.2969 647.84,367.2969 713.78,367.2969 " fill="none" id="MapAwareOutlinePane-to-NodeView" style="stroke:#808080;stroke-width:1.0;stroke-dasharray:7.0,7.0;"/><polygon fill="#808080" points="719.78,367.2969,710.78,363.2969,714.78,367.2969,710.78,371.2969,719.78,367.2969" style="stroke:#808080;stroke-width:1.0;"/><text fill="#000000" font-family="sans-serif" font-size="10" lengthAdjust="spacing" textLength="42" x="504" y="495.6191">selection</text></g><!--link MapAwareOutlinePane to NodeModel--><g id="link_MapAwareOutlinePane_NodeModel"><path codeLine="76" d="M524,776.2069 C524,677.1469 524,154.2969 524,154.2969 C524,154.2969 838.22,154.2969 970.18,154.2969 " fill="none" id="MapAwareOutlinePane-to-NodeModel" style="stroke:#808080;stroke-width:1.0;stroke-dasharray:7.0,7.0;"/><polygon fill="#808080" points="976.18,154.2969,967.18,150.2969,971.18,154.2969,967.18,158.2969,976.18,154.2969" style="stroke:#808080;stroke-width:1.0;"/><text fill="#000000" font-family="sans-serif" font-size="10" lengthAdjust="spacing" textLength="22" x="501" y="249.4391">data</text></g><rect fill="#DDDDDD" height="61.2188" id="_legend" rx="7.5" ry="7.5" style="stroke:#000000;stroke-width:1.0;" width="335" x="817" y="1104.2969"/><text fill="#000000" font-family="sans-serif" font-size="11" font-weight="bold" lengthAdjust="spacing" textLength="69" x="822" y="1119.5073">Line styles</text><text fill="#000000" font-family="sans-serif" font-size="11" lengthAdjust="spacing" textLength="259" x="822" y="1132.312">Hollow triangle arrow: inheritance / extension</text><text fill="#000000" font-family="sans-serif" font-size="11" lengthAdjust="spacing" textLength="320" x="822" y="1145.1167">Solid black line: main structural / creational dependency</text><text fill="#000000" font-family="sans-serif" font-size="11" lengthAdjust="spacing" textLength="325" x="822" y="1157.9214">Dashed gray line: secondary / cross-domain dependency</text><!--SRC=[bLPBZzis4BxpLmosXxt4SHP5BqPWO9jssm99Mc2BNkeSnj9O9amD1PAAepx-UuUKvD2oR6mNM42UuRo-cVd8e8CX-BKDHZE1RxU-yu5gA6sDcc41XIq9Icg8I-92arVAq2v0iE1qjGzGQaT5q9QLfm2CDVa62tgc1Xq6wu0jarB-e3bAQYWCUlyOWjFRDj0lXULd_HV1c-o8tsDfZvehsA7nb6d4zG4hUWwTf1q38rScFn3h25r3O5tOsqp1KeYd1Xw-_IwJEkH3ahx9upywPuzFbaFAx25NVRI1lceUCirxgWIaNAVsMi2ZkWaTr5HloGbwGmLmPrtrUkU86eDCTu0UdiPVyBTI0AUJdpKTbpxYiQonMTg-MybawDnlXqfiGFuIkl01cySZEXhLuZFJpak_TuHbuTfw6nKcqpmNpXg3MqE_IuPJxU3jdHGUZv7BVHfR7AuO_25LDT8bbLJtOB2Jog1g1RGL70GA62eTf_4OuKGkeI29XRtFcL9XyQSWB_FwAOteugBWMsUl5JiZlx2Tb7lJH0QS5nTOHBD98wwOd8gvUloy-4b_BgJJCFCu_7jZCDD0IZjcXZ7Mbqa-oYuEedE7EyBGEl8dTq-3OEepUlWW_wUSxlk9eI-17AE1k2XrF30wzs0PmfvwsbAGhyuKihu81MCr4sYof9G4xpEw-t4CBOnMo9VViD52fYnh_mfsseJuiU6jjOSQtK64mLgpHRUiYTjKxkZZtU12gPlZtJQB6PDxqBmdfuKR2vftiFXdVRO4gmGSbyawxPeFhYsaIgddZFtFtCIROB6-cC0L52890haiwuOBQrsfEGhEpNkqrxDxyb8VgIFhcN6-uK1Th8m0EUz31eYgvCNBLxhdDXmfYBuqo3vUUpERTBsc_f2aCCiD4SiJXUJHD_nPUos7eNAsRRpAZbsFvaWQo1vQJqwoJjbV2ptsOa98KnXhvBHBFlcGnOy38z_UBmQIFfkM-UdzfdBOlIhHxwdy9347Wf1OlkFYXKOZXqIhiJN_mpIHHuGO0xxGRBffOYt82g0iRmBPPRclTfVh-5Di69LVcMca1tdbsACm4eP4IyDTf-hM1-cST2k-iOJ6O8P5u4GYAWvZpYCmzFcraZP0J2s-sEBJH8n2iFM90Dzkr-_Jgoy-flpRvNOjmf-bhJ4jfzFB2Z0-XLOvey2o9uiq_7B9MQF5jH6MJO-lrGL_BFiHakCvcNHY-qF25YBEWwqdWQT4roMhkR7gObrzGUe_]--></g></svg>