<?xml version="1.0" encoding="us-ascii" standalone="no"?><svg xmlns="http://www.w3.org/2000/svg" xmlns:xlink="http://www.w3.org/1999/xlink" contentStyleType="text/css" height="729px" preserveAspectRatio="none" style="width:1162px;height:729px;background:#FFFFFF;" version="1.1" viewBox="0 0 1162 729" width="1162px" zoomAndPan="magnify"><defs/><g><text fill="#000000" font-family="sans-serif" font-size="14" font-weight="bold" lengthAdjust="spacing" textLength="360" x="394" y="22.9951">Swing map view cluster - code dependencies</text><!--cluster Freeplane--><g id="cluster_Freeplane"><rect fill="none" height="399" rx="2.5" ry="2.5" style="stroke:#000000;stroke-width:1.5;" width="1072.5" x="7" y="44.2969"/><text fill="#000000" font-family="sans-serif" font-size="14" font-weight="bold" lengthAdjust="spacing" textLength="108" x="489.25" y="59.292">org.freeplane</text></g><!--cluster MapPkg--><g id="cluster_MapPkg"><rect fill="none" height="225" rx="2.5" ry="2.5" style="stroke:#000000;stroke-width:1.5;" width="1017" x="31" y="194.2969"/><text fill="#000000" font-family="sans-serif" font-size="14" font-weight="bold" lengthAdjust="spacing" textLength="127" x="476" y="209.292">view/swing/map</text></g><!--cluster FeaturesPkg--><g id="cluster_FeaturesPkg"><rect fill="none" height="83" rx="2.5" ry="2.5" style="stroke:#000000;stroke-width:1.5;" width="143" x="912.5" y="87.2969"/><text fill="#000000" font-family="sans-serif" font-size="14" font-weight="bold" lengthAdjust="spacing" textLength="105" x="931.5" y="102.292">features/map</text></g><!--class MapView--><g id="elem_MapView"><rect codeLine="19" fill="#F1F1F1" height="32" id="MapView" rx="2.5" ry="2.5" style="stroke:#181818;stroke-width:0.5;" width="93" x="47" y="371.2969"/><ellipse cx="62" cy="387.2969" fill="#ADD1B2" rx="11" ry="11" style="stroke:#181818;stroke-width:1.0;"/><path d="M64.9688,392.9375 Q64.3906,393.2344 63.75,393.375 Q63.1094,393.5313 62.4063,393.5313 Q59.9063,393.5313 58.5781,391.8906 Q57.2656,390.2344 57.2656,387.1094 Q57.2656,383.9844 58.5781,382.3281 Q59.9063,380.6719 62.4063,380.6719 Q63.1094,380.6719 63.75,380.8281 Q64.4063,380.9844 64.9688,381.2813 L64.9688,384 Q64.3438,383.4219 63.75,383.1563 Q63.1563,382.875 62.5313,382.875 Q61.1875,382.875 60.5,383.9531 Q59.8125,385.0156 59.8125,387.1094 Q59.8125,389.2031 60.5,390.2813 Q61.1875,391.3438 62.5313,391.3438 Q63.1563,391.3438 63.75,391.0781 Q64.3438,390.7969 64.9688,390.2188 L64.9688,392.9375 Z " fill="#000000"/><text fill="#000000" font-family="sans-serif" font-size="14" lengthAdjust="spacing" textLength="61" x="76" y="392.1436">MapView</text></g><!--class NodeView--><g id="elem_NodeView"><rect codeLine="20" fill="#F1F1F1" height="32" id="NodeView" rx="2.5" ry="2.5" style="stroke:#181818;stroke-width:0.5;" width="101" x="556.5" y="229.2969"/><ellipse cx="571.5" cy="245.2969" fill="#ADD1B2" rx="11" ry="11" style="stroke:#181818;stroke-width:1.0;"/><path d="M574.4688,250.9375 Q573.8906,251.2344 573.25,251.375 Q572.6094,251.5313 571.9063,251.5313 Q569.4063,251.5313 568.0781,249.8906 Q566.7656,248.2344 566.7656,245.1094 Q566.7656,241.9844 568.0781,240.3281 Q569.4063,238.6719 571.9063,238.6719 Q572.6094,238.6719 573.25,238.8281 Q573.9063,238.9844 574.4688,239.2813 L574.4688,242 Q573.8438,241.4219 573.25,241.1563 Q572.6563,240.875 572.0313,240.875 Q570.6875,240.875 570,241.9531 Q569.3125,243.0156 569.3125,245.1094 Q569.3125,247.2031 570,248.2813 Q570.6875,249.3438 572.0313,249.3438 Q572.6563,249.3438 573.25,249.0781 Q573.8438,248.7969 574.4688,248.2188 L574.4688,250.9375 Z " fill="#000000"/><text fill="#000000" font-family="sans-serif" font-size="14" lengthAdjust="spacing" textLength="69" x="585.5" y="250.1436">NodeView</text></g><!--class NodeViewFactory--><g id="elem_NodeViewFactory"><rect codeLine="21" fill="#F1F1F1" height="32" id="NodeViewFactory" rx="2.5" ry="2.5" style="stroke:#181818;stroke-width:0.5;" width="151" x="250" y="371.2969"/><ellipse cx="265" cy="387.2969" fill="#ADD1B2" rx="11" ry="11" style="stroke:#181818;stroke-width:1.0;"/><path d="M267.9688,392.9375 Q267.3906,393.2344 266.75,393.375 Q266.1094,393.5313 265.4063,393.5313 Q262.9063,393.5313 261.5781,391.8906 Q260.2656,390.2344 260.2656,387.1094 Q260.2656,383.9844 261.5781,382.3281 Q262.9063,380.6719 265.4063,380.6719 Q266.1094,380.6719 266.75,380.8281 Q267.4063,380.9844 267.9688,381.2813 L267.9688,384 Q267.3438,383.4219 266.75,383.1563 Q266.1563,382.875 265.5313,382.875 Q264.1875,382.875 263.5,383.9531 Q262.8125,385.0156 262.8125,387.1094 Q262.8125,389.2031 263.5,390.2813 Q264.1875,391.3438 265.5313,391.3438 Q266.1563,391.3438 266.75,391.0781 Q267.3438,390.7969 267.9688,390.2188 L267.9688,392.9375 Z " fill="#000000"/><text fill="#000000" font-family="sans-serif" font-size="14" lengthAdjust="spacing" textLength="119" x="279" y="392.1436">NodeViewFactory</text></g><!--class MainView--><g id="elem_MainView"><rect codeLine="22" fill="#F1F1F1" height="32" id="MainView" rx="2.5" ry="2.5" style="stroke:#181818;stroke-width:0.5;" width="96" x="936" y="326.2969"/><ellipse cx="951" cy="342.2969" fill="#ADD1B2" rx="11" ry="11" style="stroke:#181818;stroke-width:1.0;"/><path d="M953.9688,347.9375 Q953.3906,348.2344 952.75,348.375 Q952.1094,348.5313 951.4063,348.5313 Q948.9063,348.5313 947.5781,346.8906 Q946.2656,345.2344 946.2656,342.1094 Q946.2656,338.9844 947.5781,337.3281 Q948.9063,335.6719 951.4063,335.6719 Q952.1094,335.6719 952.75,335.8281 Q953.4063,335.9844 953.9688,336.2813 L953.9688,339 Q953.3438,338.4219 952.75,338.1563 Q952.1563,337.875 951.5313,337.875 Q950.1875,337.875 949.5,338.9531 Q948.8125,340.0156 948.8125,342.1094 Q948.8125,344.2031 949.5,345.2813 Q950.1875,346.3438 951.5313,346.3438 Q952.1563,346.3438 952.75,346.0781 Q953.3438,345.7969 953.9688,345.2188 L953.9688,347.9375 Z " fill="#000000"/><text fill="#000000" font-family="sans-serif" font-size="14" lengthAdjust="spacing" textLength="64" x="965" y="347.1436">MainView</text></g><!--class NodeModel--><g id="elem_NodeModel"><rect codeLine="31" fill="#F1F1F1" height="32" id="NodeModel" rx="2.5" ry="2.5" style="stroke:#181818;stroke-width:0.5;" width="111" x="928.5" y="122.2969"/><ellipse cx="943.5" cy="138.2969" fill="#ADD1B2" rx="11" ry="11" style="stroke:#181818;stroke-width:1.0;"/><path d="M946.4688,143.9375 Q945.8906,144.2344 945.25,144.375 Q944.6094,144.5313 943.9063,144.5313 Q941.4063,144.5313 940.0781,142.8906 Q938.7656,141.2344 938.7656,138.1094 Q938.7656,134.9844 940.0781,133.3281 Q941.4063,131.6719 943.9063,131.6719 Q944.6094,131.6719 945.25,131.8281 Q945.9063,131.9844 946.4688,132.2813 L946.4688,135 Q945.8438,134.4219 945.25,134.1563 Q944.6563,133.875 944.0313,133.875 Q942.6875,133.875 942,134.9531 Q941.3125,136.0156 941.3125,138.1094 Q941.3125,140.2031 942,141.2813 Q942.6875,142.3438 944.0313,142.3438 Q944.6563,142.3438 945.25,142.0781 Q945.8438,141.7969 946.4688,141.2188 L946.4688,143.9375 Z " fill="#000000"/><text fill="#000000" font-family="sans-serif" font-size="14" lengthAdjust="spacing" textLength="79" x="957.5" y="143.1436">NodeModel</text></g><!--class ExternalConcerns--><g id="elem_ExternalConcerns"><rect codeLine="37" fill="#F1F1F1" height="58.8906" id="ExternalConcerns" rx="2.5" ry="2.5" style="stroke:#181818;stroke-width:0.5;" width="192" x="511" y="543.7969"/><ellipse cx="526" cy="573.2422" fill="#ADD1B2" rx="11" ry="11" style="stroke:#181818;stroke-width:1.0;"/><path d="M528.9688,578.8828 Q528.3906,579.1797 527.75,579.3203 Q527.1094,579.4766 526.4063,579.4766 Q523.9063,579.4766 522.5781,577.8359 Q521.2656,576.1797 521.2656,573.0547 Q521.2656,569.9297 522.5781,568.2734 Q523.9063,566.6172 526.4063,566.6172 Q527.1094,566.6172 527.75,566.7734 Q528.4063,566.9297 528.9688,567.2266 L528.9688,569.9453 Q528.3438,569.3672 527.75,569.1016 Q527.1563,568.8203 526.5313,568.8203 Q525.1875,568.8203 524.5,569.8984 Q523.8125,570.9609 523.8125,573.0547 Q523.8125,575.1484 524.5,576.2266 Q525.1875,577.2891 526.5313,577.2891 Q527.1563,577.2891 527.75,577.0234 Q528.3438,576.7422 528.9688,576.1641 L528.9688,578.8828 Z " fill="#000000"/><text fill="#000000" font-family="sans-serif" font-size="14" lengthAdjust="spacing" textLength="124" x="558" y="561.792">External concerns</text><text fill="#000000" font-family="sans-serif" font-size="14" lengthAdjust="spacing" textLength="123" x="558.5" y="578.0889">styles, filters, text,</text><text fill="#000000" font-family="sans-serif" font-size="14" lengthAdjust="spacing" textLength="160" x="540" y="594.3857">links, icons, UI listeners</text></g><g id="elem_GMN25"><path d="M813,530.2969 L813,569.2969 L703.11,573.2969 L813,577.2969 L813,615.9609 A0,0 0 0 0 813,615.9609 L1155,615.9609 A0,0 0 0 0 1155,615.9609 L1155,540.2969 L1145,530.2969 L813,530.2969 A0,0 0 0 0 813,530.2969 " fill="#FEFFDD" style="stroke:#181818;stroke-width:0.5;"/><path d="M1145,530.2969 L1145,540.2969 L1155,540.2969 L1145,530.2969 " fill="#FEFFDD" style="stroke:#181818;stroke-width:0.5;"/><text fill="#000000" font-family="sans-serif" font-size="13" lengthAdjust="spacing" textLength="281" x="819" y="547.3638">External concerns are grouped here to keep</text><text fill="#000000" font-family="sans-serif" font-size="13" lengthAdjust="spacing" textLength="300" x="819" y="562.4966">the diagram readable. They show that the map</text><text fill="#000000" font-family="sans-serif" font-size="13" lengthAdjust="spacing" textLength="321" x="819" y="577.6294">view depends on several surrounding subsystems,</text><text fill="#000000" font-family="sans-serif" font-size="13" lengthAdjust="spacing" textLength="256" x="819" y="592.7622">which contributes to its high fan-out and</text><text fill="#000000" font-family="sans-serif" font-size="13" lengthAdjust="spacing" textLength="136" x="819" y="607.895">higher cognitive load.</text></g><!--link MapView to NodeView--><!--link MapView to NodeView--><g id="link_MapView_NodeView"><path codeLine="41" d="M78,371.2469 C78,333.0669 78,239.9669 78,239.9669 C78,239.9669 417.87,239.9669 550.28,239.9669 " fill="none" id="MapView-to-NodeView" style="stroke:#181818;stroke-width:1.0;"/><polygon fill="#181818" points="556.28,239.9669,547.28,235.9669,551.28,239.9669,547.28,243.9669,556.28,239.9669" style="stroke:#181818;stroke-width:1.0;"/><text fill="#000000" font-family="sans-serif" font-size="12" lengthAdjust="spacing" textLength="58" x="192.5" y="252.1055">manages</text></g><!--link MapView to NodeViewFactory--><!--link MapView to NodeViewFactory--><g id="link_MapView_NodeViewFactory"><path codeLine="45" d="M140.17,381.9669 C171.53,381.9669 207.57,381.9669 243.68,381.9669 " fill="none" id="MapView-to-NodeViewFactory" style="stroke:#181818;stroke-width:1.0;stroke-dasharray:7.0,7.0;"/><polygon fill="#181818" points="249.68,381.9669,240.68,377.9669,244.68,381.9669,240.68,385.9669,249.68,381.9669" style="stroke:#181818;stroke-width:1.0;"/><text fill="#000000" font-family="sans-serif" font-size="12" lengthAdjust="spacing" textLength="51" x="142.42" y="394.1055">uses for</text><text fill="#000000" font-family="sans-serif" font-size="12" lengthAdjust="spacing" textLength="52" x="141.92" y="408.0743">creation</text></g><!--link NodeViewFactory to MainView--><!--link NodeViewFactory to MainView--><g id="link_NodeViewFactory_MainView"><path codeLine="46" d="M401.09,387.2969 C570.93,387.2969 968,387.2969 968,387.2969 C968,387.2969 968,377.4369 968,364.5469 " fill="none" id="NodeViewFactory-to-MainView" style="stroke:#181818;stroke-width:1.0;stroke-dasharray:7.0,7.0;"/><polygon fill="#181818" points="968,358.5469,964,367.5469,968,363.5469,972,367.5469,968,358.5469" style="stroke:#181818;stroke-width:1.0;"/><text fill="#000000" font-family="sans-serif" font-size="12" lengthAdjust="spacing" textLength="48" x="649.92" y="399.4355">creates</text></g><!--link NodeView to MainView--><!--link NodeView to MainView--><g id="link_NodeView_MainView"><path codeLine="42" d="M657.57,245.2969 C763.72,245.2969 1000,245.2969 1000,245.2969 C1000,245.2969 1000,292.7269 1000,320.2769 " fill="none" id="NodeView-to-MainView" style="stroke:#181818;stroke-width:1.0;"/><polygon fill="#181818" points="1000,326.2769,1004,317.2769,1000,321.2769,996,317.2769,1000,326.2769" style="stroke:#181818;stroke-width:1.0;"/><text fill="#000000" font-family="sans-serif" font-size="12" lengthAdjust="spacing" textLength="54" x="814.28" y="257.4355">contains</text></g><!--link NodeView to NodeModel--><!--link NodeView to NodeModel--><g id="link_NodeView_NodeModel"><path codeLine="43" d="M607,229.0469 C607,199.1169 607,138.2969 607,138.2969 C607,138.2969 817.5,138.2969 922.37,138.2969 " fill="none" id="NodeView-to-NodeModel" style="stroke:#181818;stroke-width:1.0;"/><polygon fill="#181818" points="928.37,138.2969,919.37,134.2969,923.37,138.2969,919.37,142.2969,928.37,138.2969" style="stroke:#181818;stroke-width:1.0;"/><text fill="#000000" font-family="sans-serif" font-size="12" lengthAdjust="spacing" textLength="69" x="652.31" y="150.4355">represents</text></g><!--link NodeView to ExternalConcerns--><!--link NodeView to ExternalConcerns--><g id="link_NodeView_ExternalConcerns"><path codeLine="49" d="M607,261.5669 C607,313.5869 607,470.4669 607,537.7569 " fill="none" id="NodeView-to-ExternalConcerns" style="stroke:#808080;stroke-width:1.0;stroke-dasharray:7.0,7.0;"/><polygon fill="#808080" points="607,543.7569,611,534.7569,607,538.7569,603,534.7569,607,543.7569" style="stroke:#808080;stroke-width:1.0;"/><text fill="#000000" font-family="sans-serif" font-size="12" lengthAdjust="spacing" textLength="30" x="576" y="414.7955">uses</text></g><!--link NodeViewFactory to NodeView--><g id="link_NodeViewFactory_NodeView"><path codeLine="47" d="M401.07,379.2969 C476.73,379.2969 582,379.2969 582,379.2969 C582,379.2969 582,303.0969 582,267.4569 " fill="none" id="NodeViewFactory-to-NodeView" style="stroke:#181818;stroke-width:1.0;stroke-dasharray:7.0,7.0;"/><polygon fill="#181818" points="582,261.4569,578,270.4569,582,266.4569,586,270.4569,582,261.4569" style="stroke:#181818;stroke-width:1.0;"/><text fill="#000000" font-family="sans-serif" font-size="12" lengthAdjust="spacing" textLength="48" x="501.45" y="391.4355">creates</text></g><!--link MapView to ExternalConcerns--><g id="link_MapView_ExternalConcerns"><path codeLine="50" d="M94,403.4769 C94,448.7269 94,573.2969 94,573.2969 C94,573.2969 356.27,573.2969 504.81,573.2969 " fill="none" id="MapView-to-ExternalConcerns" style="stroke:#808080;stroke-width:1.0;stroke-dasharray:7.0,7.0;"/><polygon fill="#808080" points="510.81,573.2969,501.81,569.2969,505.81,573.2969,501.81,577.2969,510.81,573.2969" style="stroke:#808080;stroke-width:1.0;"/><text fill="#000000" font-family="sans-serif" font-size="12" lengthAdjust="spacing" textLength="30" x="186.5" y="585.4355">uses</text></g><rect fill="#DDDDDD" height="75.1875" id="_legend" rx="7.5" ry="7.5" style="stroke:#000000;stroke-width:1.0;" width="388" x="748" y="633.9609"/><text fill="#000000" font-family="sans-serif" font-size="14" font-weight="bold" lengthAdjust="spacing" textLength="85" x="753" y="651.9561">Line styles</text><text fill="#000000" font-family="sans-serif" font-size="14" lengthAdjust="spacing" textLength="303" x="753" y="668.2529">Solid black line: main structural dependency</text><text fill="#000000" font-family="sans-serif" font-size="14" lengthAdjust="spacing" textLength="378" x="753" y="684.5498">Dashed black line: creation / construction dependency</text><text fill="#000000" font-family="sans-serif" font-size="14" lengthAdjust="spacing" textLength="287" x="753" y="700.8467">Dashed gray line: secondary dependency</text><!--SRC=[ZLHDQnin4BthLmpfrHzDwIc4G6Xh23IbuBQN9WTvTxmhl3jQfDauRkb_xzFw8xBTG0t6rkXfvkbfvgdJXcc-Tb9HQpjwShocekcZSg0n5RvaAhbZALaAnz6OXfTAwYcugbOgNU12dHSJMKbiox6p1S-viy6g3oHUs9YuSf8YBNBR66zLWrlqodU5bxdxnVGsWyJQbdvWjBHDv6m7gLUsuhbkG3eLjb8rEQ1nmhhfc7pGscSRWej4xkZoVLufM5aDqSiyUXk2Ny-ywC3iyfqnjOCCt7QwePRR1GVeiED25pvKasLWxXehV44sqco_ej_641sGITnfJ3URGki1Uc-xhwiAEC9dq2Q5VW2OHRw0_2kXcIsWykRek9C1FCHsoMZy4tV06puEppO-Jda6Wlmo_cUDazXPtaFr77oQE0FzEH9eoLRxmF4WpsmNEDKePRx7jzcdUAtK2n2mxTcBJyzeRh4DkbiA_8iF4bD7nH4jNOCz_55-rj63e9zMM3aWyVFz3Ws6oH101dhxJ1zsYOmvvx4JvXnwK7ryyqB_2bCeq29ccR2_LmpxeA9OdG0EzmGYS0V9M3GhCfdSdBtT5VMH8orzU90YGEaqngUWT32ldd0PknoMNM8Fo_LuKmMx6PKsrbm-WlAf8Zi-BxhyzmaZNdbdI7vvBlNPWvCDJ5NmVSSbrOm536s5eJLQm- -ShGPtO5lQHSCJ-bRp1hRarwIrXVi1X0urWrbktJ6I5uhyn05bOWy7wQLC5XRxHToWPzeuCklQ5VNmW5ltYwciqqWrgCFiPEnx9IkbIG4OSE4hSUgUc1floub18KftJIvSfSN2g_fsUtLCmVNYvZCSaBRjV3rTt20uzuq3ii6G3VwOMio1h8Q-m721xy7Wqun_7EG-mk-RWwQ9_FPWMlxhN7gotR78G9SMtP41yRlb_XS0]--></g></svg>