<?xml version="1.0" encoding="us-ascii" standalone="no"?><svg xmlns="http://www.w3.org/2000/svg" xmlns:xlink="http://www.w3.org/1999/xlink" contentStyleType="text/css" height="1387px" preserveAspectRatio="none" style="width:1270px;height:1387px;background:#FFFFFF;" version="1.1" viewBox="0 0 1270 1387" width="1270px" zoomAndPan="magnify"><defs/><g><text fill="#000000" font-family="sans-serif" font-size="14" font-weight="bold" lengthAdjust="spacing" textLength="414" x="421" y="22.9951">Text rendering plugins domain - code dependencies</text><!--cluster Freeplane--><g id="cluster_Freeplane"><rect fill="none" height="1169" rx="2.5" ry="2.5" style="stroke:#000000;stroke-width:1.5;" width="894" x="370" y="107.2969"/><text fill="#000000" font-family="sans-serif" font-size="14" font-weight="bold" lengthAdjust="spacing" textLength="108" x="763" y="122.292">org.freeplane</text></g><!--cluster TextMechanism--><g id="cluster_TextMechanism"><rect fill="none" height="228" rx="2.5" ry="2.5" style="stroke:#000000;stroke-width:1.5;" width="830" x="402" y="748.2969"/><text fill="#000000" font-family="sans-serif" font-size="14" font-weight="bold" lengthAdjust="spacing" textLength="185" x="724.5" y="763.292">central text mechanism</text></g><!--cluster FormulaPkg--><g id="cluster_FormulaPkg"><rect fill="none" height="228" rx="2.5" ry="2.5" style="stroke:#000000;stroke-width:1.5;" width="249" x="718" y="480.2969"/><text fill="#000000" font-family="sans-serif" font-size="14" font-weight="bold" lengthAdjust="spacing" textLength="113" x="786" y="495.292">formula plugin</text></g><!--cluster LatexPkg--><g id="cluster_LatexPkg"><rect fill="none" height="228" rx="2.5" ry="2.5" style="stroke:#000000;stroke-width:1.5;" width="181" x="752" y="158.2969"/><text fill="#000000" font-family="sans-serif" font-size="14" font-weight="bold" lengthAdjust="spacing" textLength="101" x="792" y="173.292">LaTeX plugin</text></g><!--cluster MarkdownPkg--><g id="cluster_MarkdownPkg"><rect fill="none" height="228" rx="2.5" ry="2.5" style="stroke:#000000;stroke-width:1.5;" width="216" x="734.5" y="1016.2969"/><text fill="#000000" font-family="sans-serif" font-size="14" font-weight="bold" lengthAdjust="spacing" textLength="135" x="775" y="1031.292">Markdown plugin</text></g><!--class TextController--><g id="elem_TextController"><rect codeLine="23" fill="#F1F1F1" height="32" id="TextController" rx="2.5" ry="2.5" style="stroke:#181818;stroke-width:0.5;" width="129" x="778" y="882.2969"/><ellipse cx="793" cy="898.2969" fill="#ADD1B2" rx="11" ry="11" style="stroke:#181818;stroke-width:1.0;"/><path d="M795.9688,903.9375 Q795.3906,904.2344 794.75,904.375 Q794.1094,904.5313 793.4063,904.5313 Q790.9063,904.5313 789.5781,902.8906 Q788.2656,901.2344 788.2656,898.1094 Q788.2656,894.9844 789.5781,893.3281 Q790.9063,891.6719 793.4063,891.6719 Q794.1094,891.6719 794.75,891.8281 Q795.4063,891.9844 795.9688,892.2813 L795.9688,895 Q795.3438,894.4219 794.75,894.1563 Q794.1563,893.875 793.5313,893.875 Q792.1875,893.875 791.5,894.9531 Q790.8125,896.0156 790.8125,898.1094 Q790.8125,900.2031 791.5,901.2813 Q792.1875,902.3438 793.5313,902.3438 Q794.1563,902.3438 794.75,902.0781 Q795.3438,901.7969 795.9688,901.2188 L795.9688,903.9375 Z " fill="#000000"/><text fill="#000000" font-family="sans-serif" font-size="14" lengthAdjust="spacing" textLength="97" x="807" y="903.1436">TextController</text></g><!--class MTextController--><g id="elem_MTextController"><rect codeLine="24" fill="#F1F1F1" height="32" id="MTextController" rx="2.5" ry="2.5" style="stroke:#181818;stroke-width:0.5;" width="141" x="426" y="920.2969"/><ellipse cx="441" cy="936.2969" fill="#ADD1B2" rx="11" ry="11" style="stroke:#181818;stroke-width:1.0;"/><path d="M443.9688,941.9375 Q443.3906,942.2344 442.75,942.375 Q442.1094,942.5313 441.4063,942.5313 Q438.9063,942.5313 437.5781,940.8906 Q436.2656,939.2344 436.2656,936.1094 Q436.2656,932.9844 437.5781,931.3281 Q438.9063,929.6719 441.4063,929.6719 Q442.1094,929.6719 442.75,929.8281 Q443.4063,929.9844 443.9688,930.2813 L443.9688,933 Q443.3438,932.4219 442.75,932.1563 Q442.1563,931.875 441.5313,931.875 Q440.1875,931.875 439.5,932.9531 Q438.8125,934.0156 438.8125,936.1094 Q438.8125,938.2031 439.5,939.2813 Q440.1875,940.3438 441.5313,940.3438 Q442.1563,940.3438 442.75,940.0781 Q443.3438,939.7969 443.9688,939.2188 L443.9688,941.9375 Z " fill="#000000"/><text fill="#000000" font-family="sans-serif" font-size="14" lengthAdjust="spacing" textLength="109" x="455" y="941.1436">MTextController</text></g><!--class IContentTransformer--><g id="elem_IContentTransformer"><rect codeLine="25" fill="#F1F1F1" height="32" id="IContentTransformer" rx="2.5" ry="2.5" style="stroke:#181818;stroke-width:0.5;" width="175" x="1033" y="882.2969"/><ellipse cx="1048" cy="898.2969" fill="#B4A7E5" rx="11" ry="11" style="stroke:#181818;stroke-width:1.0;"/><path d="M1043.9219,894.0625 L1043.9219,891.9063 L1051.3125,891.9063 L1051.3125,894.0625 L1048.8438,894.0625 L1048.8438,902.1406 L1051.3125,902.1406 L1051.3125,904.2969 L1043.9219,904.2969 L1043.9219,902.1406 L1046.3906,902.1406 L1046.3906,894.0625 L1043.9219,894.0625 Z " fill="#000000"/><text fill="#000000" font-family="sans-serif" font-size="14" font-style="italic" lengthAdjust="spacing" textLength="143" x="1062" y="903.1436">IContentTransformer</text></g><!--class FormulaTextTransformer--><g id="elem_FormulaTextTransformer"><rect codeLine="32" fill="#F1F1F1" height="32" id="FormulaTextTransformer" rx="2.5" ry="2.5" style="stroke:#181818;stroke-width:0.5;" width="201" x="742" y="523.2969"/><ellipse cx="757" cy="539.2969" fill="#ADD1B2" rx="11" ry="11" style="stroke:#181818;stroke-width:1.0;"/><path d="M759.9688,544.9375 Q759.3906,545.2344 758.75,545.375 Q758.1094,545.5313 757.4063,545.5313 Q754.9063,545.5313 753.5781,543.8906 Q752.2656,542.2344 752.2656,539.1094 Q752.2656,535.9844 753.5781,534.3281 Q754.9063,532.6719 757.4063,532.6719 Q758.1094,532.6719 758.75,532.8281 Q759.4063,532.9844 759.9688,533.2813 L759.9688,536 Q759.3438,535.4219 758.75,535.1563 Q758.1563,534.875 757.5313,534.875 Q756.1875,534.875 755.5,535.9531 Q754.8125,537.0156 754.8125,539.1094 Q754.8125,541.2031 755.5,542.2813 Q756.1875,543.3438 757.5313,543.3438 Q758.1563,543.3438 758.75,543.0781 Q759.3438,542.7969 759.9688,542.2188 L759.9688,544.9375 Z " fill="#000000"/><text fill="#000000" font-family="sans-serif" font-size="14" lengthAdjust="spacing" textLength="169" x="771" y="544.1436">FormulaTextTransformer</text></g><!--class LatexRenderer--><g id="elem_LatexRenderer"><rect codeLine="36" fill="#F1F1F1" height="32" id="LatexRenderer" rx="2.5" ry="2.5" style="stroke:#181818;stroke-width:0.5;" width="133" x="776" y="201.2969"/><ellipse cx="791" cy="217.2969" fill="#ADD1B2" rx="11" ry="11" style="stroke:#181818;stroke-width:1.0;"/><path d="M793.9688,222.9375 Q793.3906,223.2344 792.75,223.375 Q792.1094,223.5313 791.4063,223.5313 Q788.9063,223.5313 787.5781,221.8906 Q786.2656,220.2344 786.2656,217.1094 Q786.2656,213.9844 787.5781,212.3281 Q788.9063,210.6719 791.4063,210.6719 Q792.1094,210.6719 792.75,210.8281 Q793.4063,210.9844 793.9688,211.2813 L793.9688,214 Q793.3438,213.4219 792.75,213.1563 Q792.1563,212.875 791.5313,212.875 Q790.1875,212.875 789.5,213.9531 Q788.8125,215.0156 788.8125,217.1094 Q788.8125,219.2031 789.5,220.2813 Q790.1875,221.3438 791.5313,221.3438 Q792.1563,221.3438 792.75,221.0781 Q793.3438,220.7969 793.9688,220.2188 L793.9688,222.9375 Z " fill="#000000"/><text fill="#000000" font-family="sans-serif" font-size="14" lengthAdjust="spacing" textLength="101" x="805" y="222.1436">LatexRenderer</text></g><!--class MarkdownRenderer--><g id="elem_MarkdownRenderer"><rect codeLine="40" fill="#F1F1F1" height="32" id="MarkdownRenderer" rx="2.5" ry="2.5" style="stroke:#181818;stroke-width:0.5;" width="168" x="758.5" y="1059.2969"/><ellipse cx="773.5" cy="1075.2969" fill="#ADD1B2" rx="11" ry="11" style="stroke:#181818;stroke-width:1.0;"/><path d="M776.4688,1080.9375 Q775.8906,1081.2344 775.25,1081.375 Q774.6094,1081.5313 773.9063,1081.5313 Q771.4063,1081.5313 770.0781,1079.8906 Q768.7656,1078.2344 768.7656,1075.1094 Q768.7656,1071.9844 770.0781,1070.3281 Q771.4063,1068.6719 773.9063,1068.6719 Q774.6094,1068.6719 775.25,1068.8281 Q775.9063,1068.9844 776.4688,1069.2813 L776.4688,1072 Q775.8438,1071.4219 775.25,1071.1563 Q774.6563,1070.875 774.0313,1070.875 Q772.6875,1070.875 772,1071.9531 Q771.3125,1073.0156 771.3125,1075.1094 Q771.3125,1077.2031 772,1078.2813 Q772.6875,1079.3438 774.0313,1079.3438 Q774.6563,1079.3438 775.25,1079.0781 Q775.8438,1078.7969 776.4688,1078.2188 L776.4688,1080.9375 Z " fill="#000000"/><text fill="#000000" font-family="sans-serif" font-size="14" lengthAdjust="spacing" textLength="136" x="787.5" y="1080.1436">MarkdownRenderer</text></g><!--class NodeTextContent--><g id="elem_NodeTextContent"><rect codeLine="18" fill="#F1F1F1" height="42.5938" id="NodeTextContent" rx="2.5" ry="2.5" style="stroke:#181818;stroke-width:0.5;" width="244" x="7" y="834.7969"/><ellipse cx="22" cy="856.0938" fill="#ADD1B2" rx="11" ry="11" style="stroke:#181818;stroke-width:1.0;"/><path d="M24.9688,861.7344 Q24.3906,862.0313 23.75,862.1719 Q23.1094,862.3281 22.4063,862.3281 Q19.9063,862.3281 18.5781,860.6875 Q17.2656,859.0313 17.2656,855.9063 Q17.2656,852.7813 18.5781,851.125 Q19.9063,849.4688 22.4063,849.4688 Q23.1094,849.4688 23.75,849.625 Q24.4063,849.7813 24.9688,850.0781 L24.9688,852.7969 Q24.3438,852.2188 23.75,851.9531 Q23.1563,851.6719 22.5313,851.6719 Q21.1875,851.6719 20.5,852.75 Q19.8125,853.8125 19.8125,855.9063 Q19.8125,858 20.5,859.0781 Q21.1875,860.1406 22.5313,860.1406 Q23.1563,860.1406 23.75,859.875 Q24.3438,859.5938 24.9688,859.0156 L24.9688,861.7344 Z " fill="#000000"/><text fill="#000000" font-family="sans-serif" font-size="14" lengthAdjust="spacing" textLength="212" x="36" y="852.792">Node content to display or edit</text><text fill="#000000" font-family="sans-serif" font-size="14" lengthAdjust="spacing" textLength="167" x="58.5" y="869.0889">node text, details, notes</text></g><g id="elem_GMN25"><path d="M341,43.2969 L341,91.7109 L652,91.7109 L652,53.2969 L642,43.2969 L341,43.2969 " fill="#FEFFDD" style="stroke:#181818;stroke-width:0.5;"/><path d="M642,43.2969 L642,53.2969 L652,53.2969 L642,43.2969 " fill="#FEFFDD" style="stroke:#181818;stroke-width:1.0;"/><text fill="#000000" font-family="sans-serif" font-size="11" lengthAdjust="spacing" textLength="283" x="347" y="58.5073">The common mechanism explains the co-change:</text><text fill="#000000" font-family="sans-serif" font-size="11" lengthAdjust="spacing" textLength="290" x="347" y="71.312">changes in how node text is transformed or edited</text><text fill="#000000" font-family="sans-serif" font-size="11" lengthAdjust="spacing" textLength="186" x="347" y="84.1167">can affect more than one plugin.</text></g><!--link MTextController to TextController--><g id="link_MTextController_TextController"><path codeLine="27" d="M533,919.9569 C533,909.6569 533,898.2969 533,898.2969 C533,898.2969 669.29,898.2969 760,898.2969 " fill="none" id="MTextController-to-TextController" style="stroke:#181818;stroke-width:1.0;"/><polygon fill="none" points="778,898.2969,760,892.2969,760,904.2969,778,898.2969" style="stroke:#181818;stroke-width:1.0;"/><text fill="#000000" font-family="sans-serif" font-size="11" lengthAdjust="spacing" textLength="45" x="598.67" y="909.5073">extends</text></g><!--link TextController to IContentTransformer--><g id="link_TextController_IContentTransformer"><path codeLine="28" d="M907.33,898.2969 C944.71,898.2969 986.22,898.2969 1026.89,898.2969 " fill="none" id="TextController-to-IContentTransformer" style="stroke:#181818;stroke-width:1.0;"/><polygon fill="#181818" points="1032.89,898.2969,1023.89,894.2969,1027.89,898.2969,1023.89,902.2969,1032.89,898.2969" style="stroke:#181818;stroke-width:1.0;"/><text fill="#000000" font-family="sans-serif" font-size="11" lengthAdjust="spacing" textLength="62" x="877.61" y="909.5073">stores and</text><text fill="#000000" font-family="sans-serif" font-size="11" lengthAdjust="spacing" textLength="121" x="848.11" y="922.312">applies transformers</text></g><!--link TextMechanism to FormulaPkg--><!--link FormulaPkg to LatexPkg--><!--link LatexPkg to MarkdownPkg--><!--link TextMechanism to NodeTextContent--><!--link NodeTextContent to MTextController--><g id="link_NodeTextContent_MTextController"><path codeLine="51" d="M251.21,863.4669 C345.87,863.4669 461,863.4669 461,863.4669 C461,863.4669 461,892.6769 461,914.1369 " fill="none" id="NodeTextContent-to-MTextController" style="stroke:#808080;stroke-width:1.0;stroke-dasharray:7.0,7.0;"/><polygon fill="#808080" points="461,920.1369,465,911.1369,461,915.1369,457,911.1369,461,920.1369" style="stroke:#808080;stroke-width:1.0;"/><text fill="#000000" font-family="sans-serif" font-size="11" lengthAdjust="spacing" textLength="74" x="296.44" y="874.6773">text is edited</text><text fill="#000000" font-family="sans-serif" font-size="11" lengthAdjust="spacing" textLength="100" x="283.44" y="887.482">or displayed here</text></g><!--link FormulaTextTransformer to IContentTransformer--><g id="link_FormulaTextTransformer_IContentTransformer"><path codeLine="54" d="M935,555.7569 C935,625.1469 935,890.2969 935,890.2969 C935,890.2969 966.88,890.2969 1014.91,890.2969 " fill="none" id="FormulaTextTransformer-to-IContentTransformer" style="stroke:#181818;stroke-width:1.0;stroke-dasharray:7.0,7.0;"/><polygon fill="none" points="1032.91,890.2969,1014.91,884.2969,1014.91,896.2969,1032.91,890.2969" style="stroke:#181818;stroke-width:1.0;"/><text fill="#000000" font-family="sans-serif" font-size="11" lengthAdjust="spacing" textLength="45" x="886" y="783.1873">handles</text><text fill="#000000" font-family="sans-serif" font-size="11" lengthAdjust="spacing" textLength="51" x="883" y="795.992">formulas</text></g><!--link LatexRenderer to IContentTransformer--><g id="link_LatexRenderer_IContentTransformer"><path codeLine="55" d="M909.21,217.2969 C991.6,217.2969 1121,217.2969 1121,217.2969 C1121,217.2969 1121,761.0069 1121,864.1369 " fill="none" id="LatexRenderer-to-IContentTransformer" style="stroke:#181818;stroke-width:1.0;stroke-dasharray:7.0,7.0;"/><polygon fill="none" points="1121,882.1369,1127,864.1369,1115,864.1369,1121,882.1369" style="stroke:#181818;stroke-width:1.0;"/><text fill="#000000" font-family="sans-serif" font-size="11" lengthAdjust="spacing" textLength="45" x="1075" y="455.0273">handles</text><text fill="#000000" font-family="sans-serif" font-size="11" lengthAdjust="spacing" textLength="34" x="1080.5" y="467.832">LaTeX</text></g><!--link MarkdownRenderer to IContentTransformer--><g id="link_MarkdownRenderer_IContentTransformer"><path codeLine="56" d="M917,1059.0969 C917,1016.7969 917,906.2969 917,906.2969 C917,906.2969 959.64,906.2969 1014.72,906.2969 " fill="none" id="MarkdownRenderer-to-IContentTransformer" style="stroke:#181818;stroke-width:1.0;stroke-dasharray:7.0,7.0;"/><polygon fill="none" points="1032.72,906.2969,1014.72,900.2969,1014.72,912.2969,1032.72,906.2969" style="stroke:#181818;stroke-width:1.0;"/><text fill="#000000" font-family="sans-serif" font-size="11" lengthAdjust="spacing" textLength="45" x="865" y="936.0473">handles</text><text fill="#000000" font-family="sans-serif" font-size="11" lengthAdjust="spacing" textLength="57" x="859" y="948.852">Markdown</text></g><!--link TextMechanism to GMN25--><g id="link_TextMechanism_GMN25"><path d="M497,748.0344 C497,731.7881 497,708.9715 497,681.4805 C497,626.4984 497,552.8188 497,475.6081 C497,321.1869 497,152.6419 497,91.3069 " fill="none" id="TextMechanism-GMN25" style="stroke:#181818;stroke-width:1.0;stroke-dasharray:7.0,7.0;"/></g><rect fill="#DDDDDD" height="74.0234" id="_legend" rx="7.5" ry="7.5" style="stroke:#000000;stroke-width:1.0;" width="437" x="807" y="1293.2969"/><text fill="#000000" font-family="sans-serif" font-size="11" font-weight="bold" lengthAdjust="spacing" textLength="69" x="812" y="1308.5073">Line styles</text><text fill="#000000" font-family="sans-serif" font-size="11" lengthAdjust="spacing" textLength="252" x="812" y="1321.312">Solid black line: main structural dependency</text><text fill="#000000" font-family="sans-serif" font-size="11" lengthAdjust="spacing" textLength="259" x="812" y="1334.1167">Hollow triangle arrow: inheritance / extension</text><text fill="#000000" font-family="sans-serif" font-size="11" lengthAdjust="spacing" textLength="427" x="812" y="1346.9214">Dashed hollow triangle arrow: implementation of the transformer interface</text><text fill="#000000" font-family="sans-serif" font-size="11" lengthAdjust="spacing" textLength="387" x="812" y="1359.7261">Dashed gray line: indirect dependency through shared text handling</text><!--SRC=[ZLN1QXin4BthAuRqq4liDD0U6e8Xj8G6x12Q70fD3lBkU5TOAosIJEes_VS-QNTjUUD2V34xUZEQUNep4rJGJ0_yAv1ZKx9Jfg9MRofbF9MsaShGX0fRCfNSHeGf57iXDAy21KjELNMWKZakWh96U0vaPCE-bGNVSokT3DQHiOQ5y6jbegMXGallhq9mQha9V5DOSwz-Ctt88BwMfNsE-QoazfoT8FHQLdmVjiWzNYnDfNE0LeR3jcMoBjGsEp0en7DBvny_PLOdpJfQF-VNNpbddw-j2Icny_FiwDO6FduovmeSvMUYLk2EcpPigU5coGxafUhfv3RIYj83cyHbgNohvHPP4vSgF9gOBWKypYdO3r9fVueI0liJafwYUtovBrq48NfUwCIwQhfop8XcE66lXo_w8mJH3bd0qKcTBa5-HIsDyaroYQ4NWmLkX5-N-72firgpomuMHquKadChY85k-aGVmBTVMTS0aI0ZDvfCNcQZI-Y2y0rkVV9uvJ0x5XrE7k9ZJzAKZqQshOPsAUmHCThV0qAYVQDbtmCTTvtfRbqTiD2ROofvHUE0So1-vE7c4cIFWoNZzzI1Hs8if5kZ5qmUPh2D8mtsSR33vvpyX2xHp4-fVoTPZO1c1OznG_90xUeOOxBC1AuUoNGFZoDaSfYN4E-Jh3izSfGEtgj6b_GwtKdqIDXtbPFRqrBwciidA6BnIa8fglAfknYAGAFrFSSbrM0htd-NE3vG2QccrToaDet9sAQn6KB6oRSNkZYk39fEN_udKzHKQlQFffUV5mU2U9Dh4feOF_-RN0Sd8U9qeQKDmJPaLwF7UTZNldi7j2NuYzkYOsOIxHLVYEuVr1cgxJFjHbdaVyzjEGmxBaKX3SdL2lES6dGj0iA0lT6hVYfGKXf_SVl4EJiacdG7HLukPtDCVZGz5eE_F5lEOBotMW6fqKjfBrnGMce-k4qHDb5JkyMs1VmRj89qiPZIKY4Pry05ge0y51ODvjXPDufyN7T4NvFUKEDnlq4udKP0QQGfqrOccrsigEC-LsMwrPebYGZERgewBaW7T28rFILsPUIe8qVy0m00]--></g></svg>