<svg xmlns="http://www.w3.org/2000/svg" xmlns:xlink="http://www.w3.org/1999/xlink" contentStyleType="text/css" data-diagram-type="CLASS" height="308px" preserveAspectRatio="none" style="width:547px;height:308px;background:#FFFFFF;" version="1.1" viewBox="0 0 547 308" width="547px" zoomAndPan="magnify"><?plantuml 1.2026.5?><defs/><g><!--class Dependencies--><g class="entity" data-qualified-name="Dependencies" data-source-line="5" id="ent0001"><rect fill="#F1F1F1" height="96.8906" rx="2.5" ry="2.5" style="stroke:#181818;stroke-width:0.5;" width="525.1738" x="7" y="196.48"/><ellipse cx="215.52" cy="212.48" fill="#ADD1B2" rx="11" ry="11" style="stroke:#181818;stroke-width:1;"/><path d="M218.4888,218.1206 Q217.9106,218.4175 217.27,218.5581 Q216.6294,218.7144 215.9263,218.7144 Q213.4263,218.7144 212.0981,217.0738 Q210.7856,215.4175 210.7856,212.2925 Q210.7856,209.1675 212.0981,207.5113 Q213.4263,205.855 215.9263,205.855 Q216.6294,205.855 217.27,206.0113 Q217.9263,206.1675 218.4888,206.4644 L218.4888,209.1831 Q217.8638,208.605 217.27,208.3394 Q216.6763,208.0581 216.0513,208.0581 Q214.7075,208.0581 214.02,209.1363 Q213.3325,210.1988 213.3325,212.2925 Q213.3325,214.3863 214.02,215.4644 Q214.7075,216.5269 216.0513,216.5269 Q216.6763,216.5269 217.27,216.2613 Q217.8638,215.98 218.4888,215.4019 L218.4888,218.1206 Z " fill="#000000"/><text fill="#000000" font-family="sans-serif" font-size="14" lengthAdjust="spacing" textLength="99.6338" x="236.02" y="217.3267">Dependencies</text><line style="stroke:#181818;stroke-width:0.5;" x1="8" x2="531.1738" y1="228.48" y2="228.48"/><text fill="#000000" font-family="sans-serif" font-size="14" lengthAdjust="spacing" textLength="189.5879" x="13" y="245.4751">-elements : List&lt;Element&gt;</text><text fill="#000000" font-family="sans-serif" font-size="14" lengthAdjust="spacing" textLength="202.501" x="13" y="261.772">-attributeList : List&lt;Integer&gt;</text><line style="stroke:#181818;stroke-width:0.5;" x1="8" x2="531.1738" y1="269.0738" y2="269.0738"/><text fill="#000000" font-family="sans-serif" font-size="14" lengthAdjust="spacing" textLength="513.1738" x="13" y="286.0689">+Dependencies(elements : List&lt;Element&gt;, attributeList : List&lt;Integer&gt;)</text></g><!--class DependenciesBuilder--><g class="entity" data-qualified-name="DependenciesBuilder" data-source-line="11" id="ent0002"><rect fill="#F1F1F1" height="129.4844" rx="2.5" ry="2.5" style="stroke:#181818;stroke-width:0.5;" width="303.0605" x="118.06" y="7"/><ellipse cx="190.767" cy="23" fill="#ADD1B2" rx="11" ry="11" style="stroke:#181818;stroke-width:1;"/><path d="M193.7358,28.6406 Q193.1577,28.9375 192.517,29.0781 Q191.8764,29.2344 191.1733,29.2344 Q188.6733,29.2344 187.3452,27.5938 Q186.0327,25.9375 186.0327,22.8125 Q186.0327,19.6875 187.3452,18.0313 Q188.6733,16.375 191.1733,16.375 Q191.8764,16.375 192.517,16.5313 Q193.1733,16.6875 193.7358,16.9844 L193.7358,19.7031 Q193.1108,19.125 192.517,18.8594 Q191.9233,18.5781 191.2983,18.5781 Q189.9545,18.5781 189.267,19.6563 Q188.5795,20.7188 188.5795,22.8125 Q188.5795,24.9063 189.267,25.9844 Q189.9545,27.0469 191.2983,27.0469 Q191.9233,27.0469 192.517,26.7813 Q193.1108,26.5 193.7358,25.9219 L193.7358,28.6406 Z " fill="#000000"/><text fill="#000000" font-family="sans-serif" font-size="14" lengthAdjust="spacing" textLength="149.1465" x="211.267" y="27.8467">DependenciesBuilder</text><line style="stroke:#181818;stroke-width:0.5;" x1="119.06" x2="420.1205" y1="39" y2="39"/><text fill="#000000" font-family="sans-serif" font-size="14" lengthAdjust="spacing" textLength="193.9082" x="124.06" y="55.9951">-isNodeContained : boolean</text><text fill="#000000" font-family="sans-serif" font-size="14" lengthAdjust="spacing" textLength="240.4541" x="124.06" y="72.292">-attributeList : ArrayList&lt;Integer&gt;</text><line style="stroke:#181818;stroke-width:0.5;" x1="119.06" x2="420.1205" y1="79.5938" y2="79.5938"/><text fill="#000000" font-family="sans-serif" font-size="14" lengthAdjust="spacing" textLength="195.3779" x="124.06" y="96.5889">+setNodeContained() : void</text><text fill="#000000" font-family="sans-serif" font-size="14" lengthAdjust="spacing" textLength="291.0605" x="124.06" y="112.8857">+addAttribute(attribute : Attribute) : void</text><text fill="#000000" font-family="sans-serif" font-size="14" lengthAdjust="spacing" textLength="170.3311" x="124.06" y="129.1826">+build() : Dependencies</text></g><!--link DependenciesBuilder to Dependencies--><g class="link" data-entity-1="ent0002" data-entity-2="ent0001" data-link-type="dependency" data-source-line="19" id="lnk3"><path codeLine="19" d="M269.59,136.72 C269.59,156.39 269.59,172.66 269.59,191.09" fill="none" id="DependenciesBuilder-to-Dependencies" style="stroke:#181818;stroke-width:1;stroke-dasharray:7,7;"/><polygon fill="#181818" points="269.59,196.09,273.59,187.09,269.59,191.09,265.59,187.09,269.59,196.09" style="stroke:#181818;stroke-width:1;stroke-linejoin:miter;stroke-miterlimit:10;"/><text fill="#000000" font-family="sans-serif" font-size="13" lengthAdjust="spacing" textLength="48.3247" x="220.59" y="162.4669">creates</text></g><?plantuml-src VP31IiD048RlUOevfgYbvoA5QZqKn8jFCCd-jelRsR0phLJntSr64ngCtdRuVxxzPlJLIyE93rG7LbsR9LyT3TiwohD_1oqA7IgwPnVVlEpeXOFY8WbUOES659FjOr5qCDgWWJX8xQ7qKH3T408E45DQqgDNkttudbTToFtlEUeRMp7ia7BZQaGi_s9T_m-Q5PzJWdT77npIZwVNf-Xm7yMuNSsrZ2h609P9qNLAVFvjgx0HfPortLFqhalPkU7SvK3CjFuzgbVPhoDSMkTTfhQOprVZyo-fJc23VW40?></g></svg>