<svg xmlns="http://www.w3.org/2000/svg" xmlns:xlink="http://www.w3.org/1999/xlink" contentStyleType="text/css" data-diagram-type="CLASS" height="292px" preserveAspectRatio="none" style="width:546px;height:292px;background:#FFFFFF;" version="1.1" viewBox="0 0 546 292" width="546px" zoomAndPan="magnify"><?plantuml 1.2026.5?><defs/><g><!--class Dependencies--><g class="entity" data-qualified-name="Dependencies" data-source-line="5" id="ent0001"><rect fill="#F1F1F1" height="162.0781" rx="2.5" ry="2.5" style="stroke:#181818;stroke-width:0.5;" width="524.1621" x="7" y="115"/><ellipse cx="215.0142" cy="131" fill="#ADD1B2" rx="11" ry="11" style="stroke:#181818;stroke-width:1;"/><path d="M217.9829,136.6406 Q217.4048,136.9375 216.7642,137.0781 Q216.1235,137.2344 215.4204,137.2344 Q212.9204,137.2344 211.5923,135.5937 Q210.2798,133.9375 210.2798,130.8125 Q210.2798,127.6875 211.5923,126.0312 Q212.9204,124.375 215.4204,124.375 Q216.1235,124.375 216.7642,124.5312 Q217.4204,124.6875 217.9829,124.9844 L217.9829,127.7031 Q217.3579,127.125 216.7642,126.8594 Q216.1704,126.5781 215.5454,126.5781 Q214.2017,126.5781 213.5142,127.6562 Q212.8267,128.7187 212.8267,130.8125 Q212.8267,132.9062 213.5142,133.9844 Q214.2017,135.0469 215.5454,135.0469 Q216.1704,135.0469 216.7642,134.7812 Q217.3579,134.5 217.9829,133.9219 L217.9829,136.6406 Z " fill="#000000"/><text fill="#000000" font-family="sans-serif" font-size="14" lengthAdjust="spacing" textLength="99.6338" x="235.5142" y="135.8467">Dependencies</text><line style="stroke:#181818;stroke-width:0.5;" x1="8" x2="530.1621" y1="147" y2="147"/><text fill="#000000" font-family="sans-serif" font-size="14" lengthAdjust="spacing" textLength="189.5879" x="13" y="163.9951">-elements : List&lt;Element&gt;</text><text fill="#000000" font-family="sans-serif" font-size="14" lengthAdjust="spacing" textLength="202.501" x="13" y="180.292">-attributeList : List&lt;Integer&gt;</text><line style="stroke:#181818;stroke-width:0.5;" x1="8" x2="530.1621" y1="187.5937" y2="187.5937"/><text fill="#000000" font-family="sans-serif" font-size="14" lengthAdjust="spacing" textLength="512.1621" x="13" y="204.5889">+Dependencies(elements : List&lt;Element&gt;, attributeList : List&lt;Integer&gt;,</text><text fill="#000000" font-family="sans-serif" font-size="14" lengthAdjust="spacing" textLength="194.3184" x="13" y="220.8857">isNodeContained : boolean)</text><text fill="#000000" font-family="sans-serif" font-size="14" lengthAdjust="spacing" textLength="337.0869" x="13" y="237.1826">+setElements(elements : List&lt;Element&gt;) : void</text><text fill="#000000" font-family="sans-serif" font-size="14" lengthAdjust="spacing" textLength="371.2803" x="13" y="253.4795">+setAttributeList(attributeList : List&lt;Integer&gt;) : void</text><text fill="#000000" font-family="sans-serif" font-size="14" lengthAdjust="spacing" textLength="334.4346" x="13" y="269.7764">+setNodeContained(contained : boolean) : void</text></g><!--class ScriptEngine--><g class="entity" data-qualified-name="ScriptEngine" data-source-line="15" id="ent0002"><rect fill="#F1F1F1" height="48" rx="2.5" ry="2.5" style="stroke:#181818;stroke-width:0.5;" width="120.5869" x="208.79" y="7"/><ellipse cx="223.79" cy="23" fill="#ADD1B2" rx="11" ry="11" style="stroke:#181818;stroke-width:1;"/><path d="M226.7588,28.6406 Q226.1806,28.9375 225.54,29.0781 Q224.8994,29.2344 224.1963,29.2344 Q221.6963,29.2344 220.3681,27.5938 Q219.0556,25.9375 219.0556,22.8125 Q219.0556,19.6875 220.3681,18.0313 Q221.6963,16.375 224.1963,16.375 Q224.8994,16.375 225.54,16.5313 Q226.1963,16.6875 226.7588,16.9844 L226.7588,19.7031 Q226.1338,19.125 225.54,18.8594 Q224.9463,18.5781 224.3213,18.5781 Q222.9775,18.5781 222.29,19.6563 Q221.6025,20.7188 221.6025,22.8125 Q221.6025,24.9063 222.29,25.9844 Q222.9775,27.0469 224.3213,27.0469 Q224.9463,27.0469 225.54,26.7813 Q226.1338,26.5 226.7588,25.9219 L226.7588,28.6406 Z " fill="#000000"/><text fill="#000000" font-family="sans-serif" font-size="14" lengthAdjust="spacing" textLength="88.5869" x="237.79" y="27.8467">ScriptEngine</text><line style="stroke:#181818;stroke-width:0.5;" x1="209.79" x2="328.3769" y1="39" y2="39"/><line style="stroke:#181818;stroke-width:0.5;" x1="209.79" x2="328.3769" y1="47" y2="47"/></g><!--link ScriptEngine to Dependencies--><g class="link" data-entity-1="ent0002" data-entity-2="ent0001" data-link-type="dependency" data-source-line="18" id="lnk3"><path codeLine="18" d="M269.08,55.35 C269.08,71.22 269.08,87.94 269.08,109.55" fill="none" id="ScriptEngine-to-Dependencies" style="stroke:#181818;stroke-width:1;"/><polygon fill="#181818" points="269.08,114.55,273.08,105.55,269.08,109.55,265.08,105.55,269.08,114.55" style="stroke:#181818;stroke-width:1;stroke-linejoin:miter;stroke-miterlimit:10;"/><text fill="#000000" font-family="sans-serif" font-size="13" lengthAdjust="spacing" textLength="134.8813" x="134.08" y="81.0169">creates and mutates</text></g><?plantuml-src VL3DIWD13BxlK-IunIvuBb8esaEXUEaJf3Dn6vpDB9EqHSLtTtPrf2ksj-JBzqVqbQN7X1suWAehiyJxez76HTdnEy5zfRyKFQ2FPvOMNZ0eNLm22zbRJn2J7M9LZMRmH3s99t5C2XyLG0CKg2CnXGLiMUrX_RqlnoEMzE5K61inQYaDZBk9OttDQtxRQ0uLwtFqz1Z5C1VtcR6FCH3AR4nHiX-lwo6p39mY-o9ONKRMDmlybKwwrEwVLaNmMJwxSubxMqkRYVcp6PyWJRESFdy1BX5Qdb0yT4SRvYy0?></g></svg>