<svg xmlns="http://www.w3.org/2000/svg" xmlns:xlink="http://www.w3.org/1999/xlink" contentStyleType="text/css" data-diagram-type="CLASS" height="434px" preserveAspectRatio="none" style="width:475px;height:434px;background:#FFFFFF;" version="1.1" viewBox="0 0 475 434" width="475px" zoomAndPan="magnify"><?plantuml 1.2026.5?><defs/><g><!--class Node--><g class="entity" data-qualified-name="Node" data-source-line="7" id="ent0001"><rect fill="#F1F1F1" height="64.2969" rx="2.5" ry="2.5" style="stroke:#181818;stroke-width:0.5;" width="145.3486" x="70.14" y="355.48"/><ellipse cx="120.2953" cy="371.48" fill="#B4A7E5" rx="11" ry="11" style="stroke:#181818;stroke-width:1;"/><path d="M116.2171,367.2456 L116.2171,365.0894 L123.6078,365.0894 L123.6078,367.2456 L121.139,367.2456 L121.139,375.3237 L123.6078,375.3237 L123.6078,377.48 L116.2171,377.48 L116.2171,375.3237 L118.6859,375.3237 L118.6859,367.2456 L116.2171,367.2456 Z " fill="#000000"/><text fill="#000000" font-family="sans-serif" font-size="14" font-style="italic" lengthAdjust="spacing" textLength="36.5381" x="140.7953" y="376.3267">Node</text><line style="stroke:#181818;stroke-width:0.5;" x1="71.14" x2="214.4886" y1="387.48" y2="387.48"/><line style="stroke:#181818;stroke-width:0.5;" x1="71.14" x2="214.4886" y1="395.48" y2="395.48"/><text fill="#000000" font-family="sans-serif" font-size="14" lengthAdjust="spacing" textLength="133.3486" x="76.14" y="412.4751">+isLeaf() : boolean</text></g><!--class BranchNode--><g class="entity" data-qualified-name="BranchNode" data-source-line="11" id="ent0002"><rect fill="#F1F1F1" height="129.4844" rx="2.5" ry="2.5" style="stroke:#181818;stroke-width:0.5;" width="271.6221" x="7" y="7"/><ellipse cx="95.6006" cy="23" fill="#ADD1B2" rx="11" ry="11" style="stroke:#181818;stroke-width:1;"/><path d="M98.5693,28.6406 Q97.9912,28.9375 97.3506,29.0781 Q96.71,29.2344 96.0068,29.2344 Q93.5068,29.2344 92.1787,27.5938 Q90.8662,25.9375 90.8662,22.8125 Q90.8662,19.6875 92.1787,18.0313 Q93.5068,16.375 96.0068,16.375 Q96.71,16.375 97.3506,16.5313 Q98.0068,16.6875 98.5693,16.9844 L98.5693,19.7031 Q97.9443,19.125 97.3506,18.8594 Q96.7568,18.5781 96.1318,18.5781 Q94.7881,18.5781 94.1006,19.6563 Q93.4131,20.7188 93.4131,22.8125 Q93.4131,24.9063 94.1006,25.9844 Q94.7881,27.0469 96.1318,27.0469 Q96.7568,27.0469 97.3506,26.7813 Q97.9443,26.5 98.5693,25.9219 L98.5693,28.6406 Z " fill="#000000"/><text fill="#000000" font-family="sans-serif" font-size="14" lengthAdjust="spacing" textLength="85.9209" x="116.1006" y="27.8467">BranchNode</text><line style="stroke:#181818;stroke-width:0.5;" x1="8" x2="277.6221" y1="39" y2="39"/><text fill="#000000" font-family="sans-serif" font-size="14" lengthAdjust="spacing" textLength="159.6191" x="13" y="55.9951">-children : List&lt;Node&gt;</text><line style="stroke:#181818;stroke-width:0.5;" x1="8" x2="277.6221" y1="63.2969" y2="63.2969"/><text fill="#000000" font-family="sans-serif" font-size="14" lengthAdjust="spacing" textLength="154.4033" x="13" y="80.292">+getChildCount() : int</text><text fill="#000000" font-family="sans-serif" font-size="14" lengthAdjust="spacing" textLength="202.2891" x="13" y="96.5889">+getChildren() : List&lt;Node&gt;</text><text fill="#000000" font-family="sans-serif" font-size="14" lengthAdjust="spacing" textLength="259.6221" x="13" y="112.8857">+insert(child: Node, index: int) : void</text><text fill="#000000" font-family="sans-serif" font-size="14" lengthAdjust="spacing" textLength="133.3486" x="13" y="129.1826">+isLeaf() : boolean</text></g><!--class LeafNode--><g class="entity" data-qualified-name="LeafNode" data-source-line="19" id="ent0003"><rect fill="#F1F1F1" height="64.2969" rx="2.5" ry="2.5" style="stroke:#181818;stroke-width:0.5;" width="145.3486" x="315.14" y="355.48"/><ellipse cx="351.2403" cy="371.48" fill="#ADD1B2" rx="11" ry="11" style="stroke:#181818;stroke-width:1;"/><path d="M354.2091,377.1206 Q353.631,377.4175 352.9903,377.5581 Q352.3497,377.7144 351.6466,377.7144 Q349.1466,377.7144 347.8185,376.0737 Q346.506,374.4175 346.506,371.2925 Q346.506,368.1675 347.8185,366.5112 Q349.1466,364.855 351.6466,364.855 Q352.3497,364.855 352.9903,365.0112 Q353.6466,365.1675 354.2091,365.4644 L354.2091,368.1831 Q353.5841,367.605 352.9903,367.3394 Q352.3966,367.0581 351.7716,367.0581 Q350.4278,367.0581 349.7403,368.1362 Q349.0528,369.1987 349.0528,371.2925 Q349.0528,373.3862 349.7403,374.4644 Q350.4278,375.5269 351.7716,375.5269 Q352.3966,375.5269 352.9903,375.2612 Q353.5841,374.98 354.2091,374.4019 L354.2091,377.1206 Z " fill="#000000"/><text fill="#000000" font-family="sans-serif" font-size="14" lengthAdjust="spacing" textLength="66.459" x="369.9293" y="376.3267">LeafNode</text><line style="stroke:#181818;stroke-width:0.5;" x1="316.14" x2="459.4886" y1="387.48" y2="387.48"/><line style="stroke:#181818;stroke-width:0.5;" x1="316.14" x2="459.4886" y1="395.48" y2="395.48"/><text fill="#000000" font-family="sans-serif" font-size="14" lengthAdjust="spacing" textLength="133.3486" x="321.14" y="412.4751">+isLeaf() : boolean</text></g><!--link BranchNode to Node--><g class="link" data-entity-1="ent0002" data-entity-2="ent0001" data-link-type="extension" data-source-line="29" id="lnk4"><path codeLine="29" d="M142.81,136.64 C142.81,203.14 142.81,286.53 142.81,337.33" fill="none" id="BranchNode-to-Node" style="stroke:#181818;stroke-width:1;stroke-dasharray:7,7;"/><polygon fill="none" points="142.81,355.33,148.81,337.33,136.81,337.33,142.81,355.33" style="stroke:#181818;stroke-width:1;stroke-linejoin:miter;stroke-miterlimit:10;"/></g><!--reverse link BranchNode to Node--><g class="link" data-entity-1="ent0002" data-entity-2="ent0001" data-link-type="aggregation" data-source-line="30" id="lnk5"><path codeLine="30" d="M197.4975,147.1357 C206.7375,162.6257 208.91,169.36 213.81,186.48 C228.38,237.33 232.41,255.97 213.81,305.48 C206.77,324.23 193.21,341.49 179.81,355.22" fill="none" id="BranchNode-backto-Node" style="stroke:#181818;stroke-width:1;"/><polygon fill="none" points="191.35,136.83,190.9885,144.032,197.4975,147.1357,197.859,139.9337,191.35,136.83" style="stroke:#181818;stroke-width:1;stroke-linejoin:miter;stroke-miterlimit:10;"/><text fill="#000000" font-family="sans-serif" font-size="13" lengthAdjust="spacing" textLength="52.4443" x="226.81" y="250.5469">children</text><text fill="#000000" font-family="sans-serif" font-size="13" lengthAdjust="spacing" textLength="6.5" x="185.8055" y="156.3894">*</text><text fill="#000000" font-family="sans-serif" font-size="13" lengthAdjust="spacing" textLength="8.271" x="173.7036" y="344.443">1</text></g><!--reverse link Node to LeafNode--><g class="link" data-entity-1="ent0001" data-entity-2="ent0003" data-link-type="extension" data-source-line="34" id="lnk7"><path codeLine="34" d="M233.55,387.63 C266.63,387.63 281.72,387.63 314.8,387.63" fill="none" id="Node-backto-LeafNode" style="stroke:#181818;stroke-width:1;stroke-dasharray:7,7;"/><polygon fill="none" points="215.55,387.63,233.55,393.63,233.55,381.63,215.55,387.63" style="stroke:#181818;stroke-width:1;stroke-linejoin:miter;stroke-miterlimit:10;"/></g><?plantuml-src bPF1Zjem48RlUOfHBuGk8DZUq1Of2pb4eibgmrvwCyd0ZjQnKzkXrRPzi9xxOXsRaj9UA94Y9VDxVi_lVB4lf5fXH0EL5DOcpXdQTWwpIgkINX6cqG2Iha7bI3GQ949DrWd5Kei63AeQ3G99heiz6pK2Mlhv0uGXRJMWRzaPh2g4BIeuaAKjIOfilxFIDLfiOJQTdbMDK2-dAi-mmXqfUYMjA2BbqEm4E-RS2byZW1iWkqQnYuSmXwtM4eMAlaTHI0NtR5Ozzul7K3sJh7bsNhpcE7TUMWIRFRgb5vUwKowuyMv_ATmMwlyqah9eN1oSvs6m4TTg_18SVCD1KtrnLAzSJ3M0z_zz-RFBoeUYp3vcHPv2cIwBV5N0EeNDKmhBedXSPNcoIQzpvTMp2Qp4-Td6qz5q209EB--6C5v0sMe6nXEauO26cM1OxfEoB20Ur_gp6W_PB5DUT5G9vkL12kMUFgo10M0OG7HEDyABtYOWLNSzLWmaxfLGDPyF-FLIeiJeRB2mpMJoRH56ErVUm5k-zN4EVfhn7OHvpuYFUXkYzjycllNPBWSjipmhDuy91vMuSo5eRs89dD47JWVClpDY19yw9eQWPVHysJBnNlZj9WSdy2iIKUyJhF-4knQElDYa41zdTyUVMcdbcUM3v8tCsHyylChy5m00?></g></svg>