<svg xmlns="http://www.w3.org/2000/svg" xmlns:xlink="http://www.w3.org/1999/xlink" contentStyleType="text/css" data-diagram-type="CLASS" height="367px" preserveAspectRatio="none" style="width:672px;height:367px;background:#FFFFFF;" version="1.1" viewBox="0 0 672 367" width="672px" zoomAndPan="magnify"><?plantuml 1.2026.5?><defs/><g><!--class StringMatchingStrategy--><g class="entity" data-qualified-name="StringMatchingStrategy" data-source-line="5" id="ent0001"><rect fill="#F1F1F1" height="80.5938" rx="2.5" ry="2.5" style="stroke:#181818;stroke-width:0.5;" width="307.7158" x="178" y="131.29"/><ellipse cx="244.541" cy="147.29" fill="#B4A7E5" rx="11" ry="11" style="stroke:#181818;stroke-width:1;"/><path d="M240.4629,143.0556 L240.4629,140.8994 L247.8535,140.8994 L247.8535,143.0556 L245.3848,143.0556 L245.3848,151.1338 L247.8535,151.1338 L247.8535,153.29 L240.4629,153.29 L240.4629,151.1338 L242.9316,151.1338 L242.9316,143.0556 L240.4629,143.0556 Z " fill="#000000"/><text fill="#000000" font-family="sans-serif" font-size="14" font-style="italic" lengthAdjust="spacing" textLength="166.1338" x="265.041" y="152.1367">StringMatchingStrategy</text><line style="stroke:#181818;stroke-width:0.5;" x1="179" x2="484.7158" y1="163.29" y2="163.29"/><line style="stroke:#181818;stroke-width:0.5;" x1="179" x2="484.7158" y1="171.29" y2="171.29"/><text fill="#000000" font-family="sans-serif" font-size="14" lengthAdjust="spacing" textLength="220.5957" x="184" y="188.2851">+matches(searchTerm : String,</text><text fill="#000000" font-family="sans-serif" font-size="14" lengthAdjust="spacing" textLength="295.7158" x="184" y="204.582">searchText : String, matchType) : boolean</text></g><!--class ExactStringMatchingStrategy--><g class="entity" data-qualified-name="ExactStringMatchingStrategy" data-source-line="10" id="ent0002"><rect fill="#F1F1F1" height="80.5938" rx="2.5" ry="2.5" style="stroke:#181818;stroke-width:0.5;" width="307.7158" x="7" y="271.89"/><ellipse cx="54.0928" cy="287.89" fill="#ADD1B2" rx="11" ry="11" style="stroke:#181818;stroke-width:1;"/><path d="M57.0615,293.5306 Q56.4834,293.8275 55.8428,293.9681 Q55.2021,294.1244 54.499,294.1244 Q51.999,294.1244 50.6709,292.4838 Q49.3584,290.8275 49.3584,287.7025 Q49.3584,284.5775 50.6709,282.9213 Q51.999,281.265 54.499,281.265 Q55.2021,281.265 55.8428,281.4213 Q56.499,281.5775 57.0615,281.8744 L57.0615,284.5931 Q56.4365,284.015 55.8428,283.7494 Q55.249,283.4681 54.624,283.4681 Q53.2803,283.4681 52.5928,284.5463 Q51.9053,285.6088 51.9053,287.7025 Q51.9053,289.7963 52.5928,290.8744 Q53.2803,291.9369 54.624,291.9369 Q55.249,291.9369 55.8428,291.6713 Q56.4365,291.39 57.0615,290.8119 L57.0615,293.5306 Z " fill="#000000"/><text fill="#000000" font-family="sans-serif" font-size="14" lengthAdjust="spacing" textLength="205.0303" x="74.5928" y="292.7367">ExactStringMatchingStrategy</text><line style="stroke:#181818;stroke-width:0.5;" x1="8" x2="313.7158" y1="303.89" y2="303.89"/><line style="stroke:#181818;stroke-width:0.5;" x1="8" x2="313.7158" y1="311.89" y2="311.89"/><text fill="#000000" font-family="sans-serif" font-size="14" lengthAdjust="spacing" textLength="220.5957" x="13" y="328.8851">+matches(searchTerm : String,</text><text fill="#000000" font-family="sans-serif" font-size="14" lengthAdjust="spacing" textLength="295.7158" x="13" y="345.182">searchText : String, matchType) : boolean</text></g><!--class PseudoDamerauLevenshtein--><g class="entity" data-qualified-name="PseudoDamerauLevenshtein" data-source-line="15" id="ent0003"><rect fill="#F1F1F1" height="80.5938" rx="2.5" ry="2.5" style="stroke:#181818;stroke-width:0.5;" width="307.7158" x="350" y="271.89"/><ellipse cx="399.2529" cy="287.89" fill="#ADD1B2" rx="11" ry="11" style="stroke:#181818;stroke-width:1;"/><path d="M402.2217,293.5306 Q401.6436,293.8275 401.0029,293.9681 Q400.3623,294.1244 399.6592,294.1244 Q397.1592,294.1244 395.8311,292.4838 Q394.5186,290.8275 394.5186,287.7025 Q394.5186,284.5775 395.8311,282.9213 Q397.1592,281.265 399.6592,281.265 Q400.3623,281.265 401.0029,281.4213 Q401.6592,281.5775 402.2217,281.8744 L402.2217,284.5931 Q401.5967,284.015 401.0029,283.7494 Q400.4092,283.4681 399.7842,283.4681 Q398.4404,283.4681 397.7529,284.5463 Q397.0654,285.6088 397.0654,287.7025 Q397.0654,289.7963 397.7529,290.8744 Q398.4404,291.9369 399.7842,291.9369 Q400.4092,291.9369 401.0029,291.6713 Q401.5967,291.39 402.2217,290.8119 L402.2217,293.5306 Z " fill="#000000"/><text fill="#000000" font-family="sans-serif" font-size="14" lengthAdjust="spacing" textLength="200.71" x="419.7529" y="292.7367">PseudoDamerauLevenshtein</text><line style="stroke:#181818;stroke-width:0.5;" x1="351" x2="656.7158" y1="303.89" y2="303.89"/><line style="stroke:#181818;stroke-width:0.5;" x1="351" x2="656.7158" y1="311.89" y2="311.89"/><text fill="#000000" font-family="sans-serif" font-size="14" lengthAdjust="spacing" textLength="220.5957" x="356" y="328.8851">+matches(searchTerm : String,</text><text fill="#000000" font-family="sans-serif" font-size="14" lengthAdjust="spacing" textLength="295.7158" x="356" y="345.182">searchText : String, matchType) : boolean</text></g><!--class FilterController--><g class="entity" data-qualified-name="FilterController" data-source-line="20" id="ent0004"><rect fill="#F1F1F1" height="64.2969" rx="2.5" ry="2.5" style="stroke:#181818;stroke-width:0.5;" width="255.1953" x="204.26" y="7"/><ellipse cx="275.176" cy="23" fill="#ADD1B2" rx="11" ry="11" style="stroke:#181818;stroke-width:1;"/><path d="M278.1448,28.6406 Q277.5666,28.9375 276.926,29.0781 Q276.2854,29.2344 275.5823,29.2344 Q273.0823,29.2344 271.7541,27.5938 Q270.4416,25.9375 270.4416,22.8125 Q270.4416,19.6875 271.7541,18.0313 Q273.0823,16.375 275.5823,16.375 Q276.2854,16.375 276.926,16.5313 Q277.5823,16.6875 278.1448,16.9844 L278.1448,19.7031 Q277.5198,19.125 276.926,18.8594 Q276.3323,18.5781 275.7073,18.5781 Q274.3635,18.5781 273.676,19.6563 Q272.9885,20.7188 272.9885,22.8125 Q272.9885,24.9063 273.676,25.9844 Q274.3635,27.0469 275.7073,27.0469 Q276.3323,27.0469 276.926,26.7813 Q277.5198,26.5 278.1448,25.9219 L278.1448,28.6406 Z " fill="#000000"/><text fill="#000000" font-family="sans-serif" font-size="14" lengthAdjust="spacing" textLength="104.8633" x="295.676" y="27.8467">FilterController</text><line style="stroke:#181818;stroke-width:0.5;" x1="205.26" x2="458.4553" y1="39" y2="39"/><text fill="#000000" font-family="sans-serif" font-size="14" lengthAdjust="spacing" textLength="243.1953" x="210.26" y="55.9951">-strategy : StringMatchingStrategy</text><line style="stroke:#181818;stroke-width:0.5;" x1="205.26" x2="458.4553" y1="63.2969" y2="63.2969"/></g><!--reverse link StringMatchingStrategy to ExactStringMatchingStrategy--><g class="link" data-entity-1="ent0001" data-entity-2="ent0002" data-link-type="extension" data-source-line="24" id="lnk5"><path codeLine="24" d="M246.36,230.25 C246.36,248.91 246.36,252.97 246.36,271.61" fill="none" id="StringMatchingStrategy-backto-ExactStringMatchingStrategy" style="stroke:#181818;stroke-width:1;stroke-dasharray:7,7;"/><polygon fill="none" points="246.36,212.25,240.36,230.25,252.36,230.25,246.36,212.25" style="stroke:#181818;stroke-width:1;stroke-linejoin:miter;stroke-miterlimit:10;"/></g><!--reverse link StringMatchingStrategy to PseudoDamerauLevenshtein--><g class="link" data-entity-1="ent0001" data-entity-2="ent0003" data-link-type="extension" data-source-line="25" id="lnk6"><path codeLine="25" d="M417.86,230.25 C417.86,248.91 417.86,252.97 417.86,271.61" fill="none" id="StringMatchingStrategy-backto-PseudoDamerauLevenshtein" style="stroke:#181818;stroke-width:1;stroke-dasharray:7,7;"/><polygon fill="none" points="417.86,212.25,411.86,230.25,423.86,230.25,417.86,212.25" style="stroke:#181818;stroke-width:1;stroke-linejoin:miter;stroke-miterlimit:10;"/></g><!--reverse link FilterController to StringMatchingStrategy--><g class="link" data-entity-1="ent0004" data-entity-2="ent0001" data-link-type="aggregation" data-source-line="26" id="lnk7"><path codeLine="26" d="M331.86,83.54 C331.86,101.46 331.86,111.9 331.86,130.98" fill="none" id="FilterController-backto-StringMatchingStrategy" style="stroke:#181818;stroke-width:1;"/><polygon fill="none" points="331.86,71.54,327.86,77.54,331.86,83.54,335.86,77.54,331.86,71.54" style="stroke:#181818;stroke-width:1;stroke-linejoin:miter;stroke-miterlimit:10;"/><text fill="#000000" font-family="sans-serif" font-size="13" lengthAdjust="spacing" textLength="29.7832" x="301.86" y="97.3269">uses</text></g><?plantuml-src jPBTIWD138NlynIvL7IBruitnHyG58Js1T9fkZiucvH9Lbj_thtJQbMGxKN1gs5EvkHB3cDFKPQKgSEGo6pidkEiTxuBAfFuodW1zlt4MfhhIvG65vICVrLI5FRrab6pjmeGnJalA31EIaDf7iX3Myvo8-TcZM-0U8RTLcOxCQOSsYdd3kilnpdWNbtvZ_ffcHRKQH5dgeb9u0DWDpxUh2ZuqKY48v2FnlrShwdZJFqzFxDOwnpbltYtCPLihrGyQqgSTvmARRzcFH3vjiD0CfVlez6Xw0xwXlQ7FuDgLGrzXnfxOzi0?></g></svg>