<?xml version="1.0" encoding="us-ascii" standalone="no"?><svg xmlns="http://www.w3.org/2000/svg" xmlns:xlink="http://www.w3.org/1999/xlink" contentStyleType="text/css" height="878px" preserveAspectRatio="none" style="width:805px;height:878px;background:#FFFFFF;" version="1.1" viewBox="0 0 805 878" width="805px" zoomAndPan="magnify"><defs/><g><text fill="#000000" font-family="Helvetica" font-size="14" font-weight="bold" lengthAdjust="spacing" textLength="156" x="317.5" y="22.9951">OSGi and Freeplane</text><!--cluster core--><g id="cluster_core"><path d="M334,43.2969 L452,43.2969 A6,6 0 0 1 456,47.2969 L463,65.5938 L521,65.5938 A4,4 0 0 1 525,69.5938 L525,187.2969 A4,4 0 0 1 521,191.2969 L334,191.2969 A4,4 0 0 1 330,187.2969 L330,47.2969 A4,4 0 0 1 334,43.2969 " fill="none" style="stroke:#000000;stroke-width:1.5;"/><line style="stroke:#000000;stroke-width:1.5;" x1="330" x2="463" y1="65.5938" y2="65.5938"/><text fill="#000000" font-family="Helvetica" font-size="14" font-weight="bold" lengthAdjust="spacing" textLength="120" x="334" y="58.292">Freeplane Main</text><text fill="#000000" font-family="Helvetica" font-size="14" font-style="italic" lengthAdjust="spacing" textLength="179" x="342" y="80.5889">&#171;org.freeplane.main.osgi&#187;</text></g><!--cluster osgi--><g id="cluster_osgi"><path d="M47,365.2969 L177,365.2969 A6,6 0 0 1 181,369.2969 L188,387.5938 L583,387.5938 A4,4 0 0 1 587,391.5938 L587,867.2969 A4,4 0 0 1 583,871.2969 L47,871.2969 A4,4 0 0 1 43,867.2969 L43,369.2969 A4,4 0 0 1 47,365.2969 " fill="none" style="stroke:#000000;stroke-width:1.5;"/><line style="stroke:#000000;stroke-width:1.5;" x1="43" x2="188" y1="387.5938" y2="387.5938"/><text fill="#000000" font-family="Helvetica" font-size="14" font-weight="bold" lengthAdjust="spacing" textLength="132" x="47" y="380.292">OSGi Framework</text><text fill="#000000" font-family="Helvetica" font-size="14" font-style="italic" lengthAdjust="spacing" textLength="149" x="244.5" y="402.5889">&#171;org.osgi.framework&#187;</text></g><!--class ActivatorImpl--><g id="elem_ActivatorImpl"><rect codeLine="26" fill="#FFFFFF" height="80.5938" id="ActivatorImpl" rx="4" ry="4" style="stroke:#444444;stroke-width:0.5;" width="119" x="365.5" y="94.2969"/><rect fill="#F4F6F7" height="32" rx="4" ry="4" style="stroke:#F4F6F7;stroke-width:0.5;" width="119" x="365.5" y="94.2969"/><rect fill="#F4F6F7" height="4" style="stroke:#F4F6F7;stroke-width:0.5;" width="119" x="365.5" y="122.2969"/><rect codeLine="26" fill="none" height="80.5938" id="ActivatorImpl" rx="4" ry="4" style="stroke:#444444;stroke-width:0.5;" width="119" x="365.5" y="94.2969"/><ellipse cx="380.5" cy="110.2969" fill="#ADD1B2" rx="11" ry="11" style="stroke:#181818;stroke-width:1.0;"/><path d="M383.4688,115.9375 Q382.8906,116.2344 382.25,116.375 Q381.6094,116.5313 380.9063,116.5313 Q378.4063,116.5313 377.0781,114.8906 Q375.7656,113.2344 375.7656,110.1094 Q375.7656,106.9844 377.0781,105.3281 Q378.4063,103.6719 380.9063,103.6719 Q381.6094,103.6719 382.25,103.8281 Q382.9063,103.9844 383.4688,104.2813 L383.4688,107 Q382.8438,106.4219 382.25,106.1563 Q381.6563,105.875 381.0313,105.875 Q379.6875,105.875 379,106.9531 Q378.3125,108.0156 378.3125,110.1094 Q378.3125,112.2031 379,113.2813 Q379.6875,114.3438 381.0313,114.3438 Q381.6563,114.3438 382.25,114.0781 Q382.8438,113.7969 383.4688,113.2188 L383.4688,115.9375 Z " fill="#000000"/><text fill="#000000" font-family="Helvetica" font-size="14" lengthAdjust="spacing" textLength="87" x="394.5" y="115.1436">ActivatorImpl</text><line style="stroke:#444444;stroke-width:0.5;" x1="366.5" x2="483.5" y1="126.2969" y2="126.2969"/><line style="stroke:#444444;stroke-width:0.5;" x1="366.5" x2="483.5" y1="134.2969" y2="134.2969"/><ellipse cx="376.5" cy="147.9453" fill="#84BE84" rx="3" ry="3" style="stroke:#038048;stroke-width:1.0;"/><text fill="#000000" font-family="Helvetica" font-size="14" lengthAdjust="spacing" textLength="41" x="385.5" y="151.292">start()</text><ellipse cx="376.5" cy="164.2422" fill="#84BE84" rx="3" ry="3" style="stroke:#038048;stroke-width:1.0;"/><text fill="#000000" font-family="Helvetica" font-size="14" lengthAdjust="spacing" textLength="89" x="385.5" y="167.5889">loadPlugins()</text></g><!--class BundleActivator--><g id="elem_BundleActivator"><rect codeLine="33" fill="#FFFFFF" height="64.2969" id="BundleActivator" rx="4" ry="4" style="stroke:#444444;stroke-width:0.5;" width="142" x="280" y="416.2969"/><rect fill="#F4F6F7" height="32" rx="4" ry="4" style="stroke:#F4F6F7;stroke-width:0.5;" width="142" x="280" y="416.2969"/><rect fill="#F4F6F7" height="4" style="stroke:#F4F6F7;stroke-width:0.5;" width="142" x="280" y="444.2969"/><rect codeLine="33" fill="none" height="64.2969" id="BundleActivator" rx="4" ry="4" style="stroke:#444444;stroke-width:0.5;" width="142" x="280" y="416.2969"/><ellipse cx="295" cy="432.2969" fill="#B4A7E5" rx="11" ry="11" style="stroke:#181818;stroke-width:1.0;"/><path d="M290.9219,428.0625 L290.9219,425.9063 L298.3125,425.9063 L298.3125,428.0625 L295.8438,428.0625 L295.8438,436.1406 L298.3125,436.1406 L298.3125,438.2969 L290.9219,438.2969 L290.9219,436.1406 L293.3906,436.1406 L293.3906,428.0625 L290.9219,428.0625 Z " fill="#000000"/><text fill="#000000" font-family="Helvetica" font-size="14" font-style="italic" lengthAdjust="spacing" textLength="110" x="309" y="437.1436">BundleActivator</text><line style="stroke:#444444;stroke-width:0.5;" x1="281" x2="421" y1="448.2969" y2="448.2969"/><line style="stroke:#444444;stroke-width:0.5;" x1="281" x2="421" y1="456.2969" y2="456.2969"/><ellipse cx="291" cy="469.9453" fill="#84BE84" rx="3" ry="3" style="stroke:#038048;stroke-width:1.0;"/><text fill="#000000" font-family="Helvetica" font-size="14" lengthAdjust="spacing" textLength="41" x="300" y="473.292">start()</text></g><!--class BundleContext--><g id="elem_BundleContext"><rect codeLine="37" fill="#FFFFFF" height="48" id="BundleContext" rx="4" ry="4" style="stroke:#444444;stroke-width:0.5;" width="136" x="109" y="424.2969"/><rect fill="#F4F6F7" height="32" rx="4" ry="4" style="stroke:#F4F6F7;stroke-width:0.5;" width="136" x="109" y="424.2969"/><rect fill="#F4F6F7" height="4" style="stroke:#F4F6F7;stroke-width:0.5;" width="136" x="109" y="452.2969"/><rect codeLine="37" fill="none" height="48" id="BundleContext" rx="4" ry="4" style="stroke:#444444;stroke-width:0.5;" width="136" x="109" y="424.2969"/><ellipse cx="124" cy="440.2969" fill="#B4A7E5" rx="11" ry="11" style="stroke:#181818;stroke-width:1.0;"/><path d="M119.9219,436.0625 L119.9219,433.9063 L127.3125,433.9063 L127.3125,436.0625 L124.8438,436.0625 L124.8438,444.1406 L127.3125,444.1406 L127.3125,446.2969 L119.9219,446.2969 L119.9219,444.1406 L122.3906,444.1406 L122.3906,436.0625 L119.9219,436.0625 Z " fill="#000000"/><text fill="#000000" font-family="Helvetica" font-size="14" font-style="italic" lengthAdjust="spacing" textLength="104" x="138" y="445.1436">BundleContext</text><line style="stroke:#444444;stroke-width:0.5;" x1="110" x2="244" y1="456.2969" y2="456.2969"/><line style="stroke:#444444;stroke-width:0.5;" x1="110" x2="244" y1="464.2969" y2="464.2969"/></g><!--class ServiceRegistry--><g id="elem_ServiceRegistry"><rect codeLine="38" fill="#FFFFFF" height="48" id="ServiceRegistry" rx="4" ry="4" style="stroke:#444444;stroke-width:0.5;" width="138" x="190" y="557.2969"/><rect fill="#F4F6F7" height="32" rx="4" ry="4" style="stroke:#F4F6F7;stroke-width:0.5;" width="138" x="190" y="557.2969"/><rect fill="#F4F6F7" height="4" style="stroke:#F4F6F7;stroke-width:0.5;" width="138" x="190" y="585.2969"/><rect codeLine="38" fill="none" height="48" id="ServiceRegistry" rx="4" ry="4" style="stroke:#444444;stroke-width:0.5;" width="138" x="190" y="557.2969"/><ellipse cx="205" cy="573.2969" fill="#ADD1B2" rx="11" ry="11" style="stroke:#181818;stroke-width:1.0;"/><path d="M207.9688,578.9375 Q207.3906,579.2344 206.75,579.375 Q206.1094,579.5313 205.4063,579.5313 Q202.9063,579.5313 201.5781,577.8906 Q200.2656,576.2344 200.2656,573.1094 Q200.2656,569.9844 201.5781,568.3281 Q202.9063,566.6719 205.4063,566.6719 Q206.1094,566.6719 206.75,566.8281 Q207.4063,566.9844 207.9688,567.2813 L207.9688,570 Q207.3438,569.4219 206.75,569.1563 Q206.1563,568.875 205.5313,568.875 Q204.1875,568.875 203.5,569.9531 Q202.8125,571.0156 202.8125,573.1094 Q202.8125,575.2031 203.5,576.2813 Q204.1875,577.3438 205.5313,577.3438 Q206.1563,577.3438 206.75,577.0781 Q207.3438,576.7969 207.9688,576.2188 L207.9688,578.9375 Z " fill="#000000"/><text fill="#000000" font-family="Helvetica" font-size="14" lengthAdjust="spacing" textLength="106" x="219" y="578.1436">ServiceRegistry</text><line style="stroke:#444444;stroke-width:0.5;" x1="191" x2="327" y1="589.2969" y2="589.2969"/><line style="stroke:#444444;stroke-width:0.5;" x1="191" x2="327" y1="597.2969" y2="597.2969"/></g><!--class ServiceReference--><g id="elem_ServiceReference"><rect codeLine="39" fill="#FFFFFF" height="48" id="ServiceReference" rx="4" ry="4" style="stroke:#444444;stroke-width:0.5;" width="155" x="215.5" y="682.2969"/><rect fill="#F4F6F7" height="32" rx="4" ry="4" style="stroke:#F4F6F7;stroke-width:0.5;" width="155" x="215.5" y="682.2969"/><rect fill="#F4F6F7" height="4" style="stroke:#F4F6F7;stroke-width:0.5;" width="155" x="215.5" y="710.2969"/><rect codeLine="39" fill="none" height="48" id="ServiceReference" rx="4" ry="4" style="stroke:#444444;stroke-width:0.5;" width="155" x="215.5" y="682.2969"/><ellipse cx="230.5" cy="698.2969" fill="#B4A7E5" rx="11" ry="11" style="stroke:#181818;stroke-width:1.0;"/><path d="M226.4219,694.0625 L226.4219,691.9063 L233.8125,691.9063 L233.8125,694.0625 L231.3438,694.0625 L231.3438,702.1406 L233.8125,702.1406 L233.8125,704.2969 L226.4219,704.2969 L226.4219,702.1406 L228.8906,702.1406 L228.8906,694.0625 L226.4219,694.0625 Z " fill="#000000"/><text fill="#000000" font-family="Helvetica" font-size="14" font-style="italic" lengthAdjust="spacing" textLength="123" x="244.5" y="703.1436">ServiceReference</text><line style="stroke:#444444;stroke-width:0.5;" x1="216.5" x2="369.5" y1="714.2969" y2="714.2969"/><line style="stroke:#444444;stroke-width:0.5;" x1="216.5" x2="369.5" y1="722.2969" y2="722.2969"/></g><!--class ServiceRegistration--><g id="elem_ServiceRegistration"><rect codeLine="40" fill="#FFFFFF" height="48" id="ServiceRegistration" rx="4" ry="4" style="stroke:#444444;stroke-width:0.5;" width="165" x="405.5" y="682.2969"/><rect fill="#F4F6F7" height="32" rx="4" ry="4" style="stroke:#F4F6F7;stroke-width:0.5;" width="165" x="405.5" y="682.2969"/><rect fill="#F4F6F7" height="4" style="stroke:#F4F6F7;stroke-width:0.5;" width="165" x="405.5" y="710.2969"/><rect codeLine="40" fill="none" height="48" id="ServiceRegistration" rx="4" ry="4" style="stroke:#444444;stroke-width:0.5;" width="165" x="405.5" y="682.2969"/><ellipse cx="420.5" cy="698.2969" fill="#B4A7E5" rx="11" ry="11" style="stroke:#181818;stroke-width:1.0;"/><path d="M416.4219,694.0625 L416.4219,691.9063 L423.8125,691.9063 L423.8125,694.0625 L421.3438,694.0625 L421.3438,702.1406 L423.8125,702.1406 L423.8125,704.2969 L416.4219,704.2969 L416.4219,702.1406 L418.8906,702.1406 L418.8906,694.0625 L416.4219,694.0625 Z " fill="#000000"/><text fill="#000000" font-family="Helvetica" font-size="14" font-style="italic" lengthAdjust="spacing" textLength="133" x="434.5" y="703.1436">ServiceRegistration</text><line style="stroke:#444444;stroke-width:0.5;" x1="406.5" x2="569.5" y1="714.2969" y2="714.2969"/><line style="stroke:#444444;stroke-width:0.5;" x1="406.5" x2="569.5" y1="722.2969" y2="722.2969"/></g><!--class ServiceListener--><g id="elem_ServiceListener"><rect codeLine="41" fill="#FFFFFF" height="48" id="ServiceListener" rx="4" ry="4" style="stroke:#444444;stroke-width:0.5;" width="138" x="59" y="807.2969"/><rect fill="#F4F6F7" height="32" rx="4" ry="4" style="stroke:#F4F6F7;stroke-width:0.5;" width="138" x="59" y="807.2969"/><rect fill="#F4F6F7" height="4" style="stroke:#F4F6F7;stroke-width:0.5;" width="138" x="59" y="835.2969"/><rect codeLine="41" fill="none" height="48" id="ServiceListener" rx="4" ry="4" style="stroke:#444444;stroke-width:0.5;" width="138" x="59" y="807.2969"/><ellipse cx="74" cy="823.2969" fill="#B4A7E5" rx="11" ry="11" style="stroke:#181818;stroke-width:1.0;"/><path d="M69.9219,819.0625 L69.9219,816.9063 L77.3125,816.9063 L77.3125,819.0625 L74.8438,819.0625 L74.8438,827.1406 L77.3125,827.1406 L77.3125,829.2969 L69.9219,829.2969 L69.9219,827.1406 L72.3906,827.1406 L72.3906,819.0625 L69.9219,819.0625 Z " fill="#000000"/><text fill="#000000" font-family="Helvetica" font-size="14" font-style="italic" lengthAdjust="spacing" textLength="106" x="88" y="828.1436">ServiceListener</text><line style="stroke:#444444;stroke-width:0.5;" x1="60" x2="196" y1="839.2969" y2="839.2969"/><line style="stroke:#444444;stroke-width:0.5;" x1="60" x2="196" y1="847.2969" y2="847.2969"/></g><!--class ServiceEvent--><g id="elem_ServiceEvent"><rect codeLine="42" fill="#FFFFFF" height="48" id="ServiceEvent" rx="4" ry="4" style="stroke:#444444;stroke-width:0.5;" width="121" x="59.5" y="682.2969"/><rect fill="#F4F6F7" height="32" rx="4" ry="4" style="stroke:#F4F6F7;stroke-width:0.5;" width="121" x="59.5" y="682.2969"/><rect fill="#F4F6F7" height="4" style="stroke:#F4F6F7;stroke-width:0.5;" width="121" x="59.5" y="710.2969"/><rect codeLine="42" fill="none" height="48" id="ServiceEvent" rx="4" ry="4" style="stroke:#444444;stroke-width:0.5;" width="121" x="59.5" y="682.2969"/><ellipse cx="74.5" cy="698.2969" fill="#ADD1B2" rx="11" ry="11" style="stroke:#181818;stroke-width:1.0;"/><path d="M77.4688,703.9375 Q76.8906,704.2344 76.25,704.375 Q75.6094,704.5313 74.9063,704.5313 Q72.4063,704.5313 71.0781,702.8906 Q69.7656,701.2344 69.7656,698.1094 Q69.7656,694.9844 71.0781,693.3281 Q72.4063,691.6719 74.9063,691.6719 Q75.6094,691.6719 76.25,691.8281 Q76.9063,691.9844 77.4688,692.2813 L77.4688,695 Q76.8438,694.4219 76.25,694.1563 Q75.6563,693.875 75.0313,693.875 Q73.6875,693.875 73,694.9531 Q72.3125,696.0156 72.3125,698.1094 Q72.3125,700.2031 73,701.2813 Q73.6875,702.3438 75.0313,702.3438 Q75.6563,702.3438 76.25,702.0781 Q76.8438,701.7969 77.4688,701.2188 L77.4688,703.9375 Z " fill="#000000"/><text fill="#000000" font-family="Helvetica" font-size="14" lengthAdjust="spacing" textLength="89" x="88.5" y="703.1436">ServiceEvent</text><line style="stroke:#444444;stroke-width:0.5;" x1="60.5" x2="179.5" y1="714.2969" y2="714.2969"/><line style="stroke:#444444;stroke-width:0.5;" x1="60.5" x2="179.5" y1="722.2969" y2="722.2969"/></g><!--class Bundle_A--><g id="elem_Bundle_A"><rect codeLine="46" fill="#FFFFFF" height="48" id="Bundle_A" rx="4" ry="4" style="stroke:#444444;stroke-width:0.5;" width="97" x="555.5" y="254.2969"/><rect fill="#F4F6F7" height="32" rx="4" ry="4" style="stroke:#F4F6F7;stroke-width:0.5;" width="97" x="555.5" y="254.2969"/><rect fill="#F4F6F7" height="4" style="stroke:#F4F6F7;stroke-width:0.5;" width="97" x="555.5" y="282.2969"/><rect codeLine="46" fill="none" height="48" id="Bundle_A" rx="4" ry="4" style="stroke:#444444;stroke-width:0.5;" width="97" x="555.5" y="254.2969"/><ellipse cx="570.5" cy="270.2969" fill="#ADD1B2" rx="11" ry="11" style="stroke:#181818;stroke-width:1.0;"/><path d="M573.4688,275.9375 Q572.8906,276.2344 572.25,276.375 Q571.6094,276.5313 570.9063,276.5313 Q568.4063,276.5313 567.0781,274.8906 Q565.7656,273.2344 565.7656,270.1094 Q565.7656,266.9844 567.0781,265.3281 Q568.4063,263.6719 570.9063,263.6719 Q571.6094,263.6719 572.25,263.8281 Q572.9063,263.9844 573.4688,264.2813 L573.4688,267 Q572.8438,266.4219 572.25,266.1563 Q571.6563,265.875 571.0313,265.875 Q569.6875,265.875 569,266.9531 Q568.3125,268.0156 568.3125,270.1094 Q568.3125,272.2031 569,273.2813 Q569.6875,274.3438 571.0313,274.3438 Q571.6563,274.3438 572.25,274.0781 Q572.8438,273.7969 573.4688,273.2188 L573.4688,275.9375 Z " fill="#000000"/><text fill="#000000" font-family="Helvetica" font-size="14" lengthAdjust="spacing" textLength="65" x="584.5" y="275.1436">Bundle_A</text><line style="stroke:#444444;stroke-width:0.5;" x1="556.5" x2="651.5" y1="286.2969" y2="286.2969"/><line style="stroke:#444444;stroke-width:0.5;" x1="556.5" x2="651.5" y1="294.2969" y2="294.2969"/></g><g id="elem_GMN13"><path d="M556,126.2969 L556,143.4297 A4,4 0 0 0 560,147.4297 L615.61,147.4297 L606.77,254.2269 L623.61,147.4297 L682,147.4297 A4,4 0 0 0 686,143.4297 L686,132.2969 L676,122.2969 L560,122.2969 A4,4 0 0 0 556,126.2969 " fill="#FFFCDF" style="stroke:#F1C40F;stroke-width:0.5;"/><path d="M676,122.2969 L676,130.2969 A2,2 0 0 0 678,132.2969 L686,132.2969 L676,122.2969 " fill="#FFFCDF" style="stroke:#F1C40F;stroke-width:0.5;"/><text fill="#333333" font-family="Helvetica" font-size="13" lengthAdjust="spacing" textLength="109" x="562" y="139.3638">Service Publisher</text></g><!--class Bundle_B--><g id="elem_Bundle_B"><rect codeLine="49" fill="#FFFFFF" height="48" id="Bundle_B" rx="4" ry="4" style="stroke:#444444;stroke-width:0.5;" width="98" x="188" y="254.2969"/><rect fill="#F4F6F7" height="32" rx="4" ry="4" style="stroke:#F4F6F7;stroke-width:0.5;" width="98" x="188" y="254.2969"/><rect fill="#F4F6F7" height="4" style="stroke:#F4F6F7;stroke-width:0.5;" width="98" x="188" y="282.2969"/><rect codeLine="49" fill="none" height="48" id="Bundle_B" rx="4" ry="4" style="stroke:#444444;stroke-width:0.5;" width="98" x="188" y="254.2969"/><ellipse cx="203" cy="270.2969" fill="#ADD1B2" rx="11" ry="11" style="stroke:#181818;stroke-width:1.0;"/><path d="M205.9688,275.9375 Q205.3906,276.2344 204.75,276.375 Q204.1094,276.5313 203.4063,276.5313 Q200.9063,276.5313 199.5781,274.8906 Q198.2656,273.2344 198.2656,270.1094 Q198.2656,266.9844 199.5781,265.3281 Q200.9063,263.6719 203.4063,263.6719 Q204.1094,263.6719 204.75,263.8281 Q205.4063,263.9844 205.9688,264.2813 L205.9688,267 Q205.3438,266.4219 204.75,266.1563 Q204.1563,265.875 203.5313,265.875 Q202.1875,265.875 201.5,266.9531 Q200.8125,268.0156 200.8125,270.1094 Q200.8125,272.2031 201.5,273.2813 Q202.1875,274.3438 203.5313,274.3438 Q204.1563,274.3438 204.75,274.0781 Q205.3438,273.7969 205.9688,273.2188 L205.9688,275.9375 Z " fill="#000000"/><text fill="#000000" font-family="Helvetica" font-size="14" lengthAdjust="spacing" textLength="66" x="217" y="275.1436">Bundle_B</text><line style="stroke:#444444;stroke-width:0.5;" x1="189" x2="285" y1="286.2969" y2="286.2969"/><line style="stroke:#444444;stroke-width:0.5;" x1="189" x2="285" y1="294.2969" y2="294.2969"/></g><g id="elem_GMN17"><path d="M160,126.2969 L160,143.4297 A4,4 0 0 0 164,147.4297 L225.65,147.4297 L235.7,254.2269 L233.65,147.4297 L294,147.4297 A4,4 0 0 0 298,143.4297 L298,132.2969 L288,122.2969 L164,122.2969 A4,4 0 0 0 160,126.2969 " fill="#FFFCDF" style="stroke:#F1C40F;stroke-width:0.5;"/><path d="M288,122.2969 L288,130.2969 A2,2 0 0 0 290,132.2969 L298,132.2969 L288,122.2969 " fill="#FFFCDF" style="stroke:#F1C40F;stroke-width:0.5;"/><text fill="#333333" font-family="Helvetica" font-size="13" lengthAdjust="spacing" textLength="117" x="166" y="139.3638">Service Consumer</text></g><!--link ActivatorImpl to BundleActivator--><g id="link_ActivatorImpl_BundleActivator"><path codeLine="52" d="M417.99,175.3969 C410.1,218.4569 396.36,289.1669 381,349.2969 C375.23,371.8769 373.0193,379.8807 366.8593,399.0407 " fill="none" id="ActivatorImpl-to-BundleActivator" style="stroke:#555555;stroke-width:1.0;stroke-dasharray:7.0,7.0;"/><polygon fill="none" points="361.35,416.1769,372.5714,400.8772,361.1473,397.2043,361.35,416.1769" style="stroke:#555555;stroke-width:1.0;"/><text fill="#000000" font-family="Helvetica" font-size="13" lengthAdjust="spacing" textLength="76" x="403" y="282.8638">implements</text></g><!--link ActivatorImpl to Bundle_A--><g id="link_ActivatorImpl_Bundle_A"><path codeLine="53" d="M446.43,175.5669 C456.94,192.2669 470.83,210.8769 487,224.2969 C506.99,240.8869 527.4227,251.1858 549.8527,259.8458 " fill="none" id="ActivatorImpl-to-Bundle_A" style="stroke:#555555;stroke-width:1.0;"/><polygon fill="#555555" points="555.45,262.0069,548.4948,255.0337,550.7856,260.206,545.6133,262.4968,555.45,262.0069" style="stroke:#555555;stroke-width:1.0;"/><polygon fill="#000000" points="495.876,219.0218,490.7208,211.0297,487.0077,215.5862,495.876,219.0218" style="stroke:#000000;stroke-width:1.0;"/><text fill="#000000" font-family="Helvetica" font-size="13" lengthAdjust="spacing" textLength="100" x="501" y="220.3638">installs &amp; starts</text></g><!--link ActivatorImpl to Bundle_B--><g id="link_ActivatorImpl_Bundle_B"><path codeLine="54" d="M365.44,174.5469 C349.8,183.5869 332.64,192.5269 316,199.2969 C302.42,204.8169 296,198.8669 284,207.2969 C267.35,218.9869 257.6391,233.2784 249.7591,248.7784 " fill="none" id="ActivatorImpl-to-Bundle_B" style="stroke:#555555;stroke-width:1.0;"/><polygon fill="#555555" points="247.04,254.1269,254.6843,247.9169,249.3059,249.6698,247.553,244.2914,247.04,254.1269" style="stroke:#555555;stroke-width:1.0;"/><polygon fill="#000000" points="284.7919,218.5636,293.9916,216.1521,290.8172,211.2052,284.7919,218.5636" style="stroke:#000000;stroke-width:1.0;"/><text fill="#000000" font-family="Helvetica" font-size="13" lengthAdjust="spacing" textLength="100" x="298" y="220.3638">installs &amp; starts</text></g><!--link Bundle_A to BundleContext--><g id="link_Bundle_A_BundleContext"><path codeLine="56" d="M555.25,298.2769 C510.64,314.7569 442.41,337.7469 381,349.2969 C355.17,354.1569 286.8,346.1569 263,357.2969 C232.08,371.7769 209.9899,397.7439 194.9899,419.2739 " fill="none" id="Bundle_A-to-BundleContext" style="stroke:#555555;stroke-width:1.0;"/><polygon fill="#555555" points="191.56,424.1969,199.9868,419.0989,194.4182,420.0944,193.4228,414.5258,191.56,424.1969" style="stroke:#555555;stroke-width:1.0;"/><polygon fill="#000000" points="449.2602,342.4552,458.7703,342.3614,456.8989,336.7894,449.2602,342.4552" style="stroke:#000000;stroke-width:1.0;"/><text fill="#000000" font-family="Helvetica" font-size="13" lengthAdjust="spacing" textLength="127" x="463" y="345.3638">registers service via</text></g><!--link BundleContext to ServiceRegistry--><g id="link_BundleContext_ServiceRegistry"><path codeLine="57" d="M191.47,472.4169 C206.37,496.2169 226.2652,528.0119 241.2152,551.8819 " fill="none" id="BundleContext-to-ServiceRegistry" style="stroke:#555555;stroke-width:1.0;"/><polygon fill="#555555" points="244.4,556.9669,243.0128,547.2162,241.746,552.7294,236.2328,551.4626,244.4,556.9669" style="stroke:#555555;stroke-width:1.0;"/><polygon fill="#000000" points="232.653,523.1014,230.3447,513.8752,225.3626,516.994,232.653,523.1014" style="stroke:#000000;stroke-width:1.0;"/><text fill="#000000" font-family="Helvetica" font-size="13" lengthAdjust="spacing" textLength="52" x="239" y="523.3638">updates</text></g><!--link ServiceRegistry to ServiceRegistration--><g id="link_ServiceRegistry_ServiceRegistration"><path codeLine="58" d="M302.07,605.4369 C343.01,627.4269 398.9544,657.4675 439.8344,679.4275 " fill="none" id="ServiceRegistry-to-ServiceRegistration" style="stroke:#555555;stroke-width:1.0;stroke-dasharray:7.0,7.0;"/><polygon fill="#555555" points="445.12,682.2669,439.0844,674.4841,440.7153,679.9007,435.2986,681.5316,445.12,682.2669" style="stroke:#555555;stroke-width:1.0;"/><polygon fill="#000000" points="396.4049,646.2291,389.8269,639.3602,387.0458,644.5385,396.4049,646.2291" style="stroke:#000000;stroke-width:1.0;"/><text fill="#000000" font-family="Helvetica" font-size="13" lengthAdjust="spacing" textLength="48" x="401" y="648.3638">creates</text></g><!--link ServiceRegistration to Bundle_A--><g id="link_ServiceRegistration_Bundle_A"><path codeLine="59" d="M517.9,682.0969 C554.81,651.3569 615.67,593.2569 640,527.2969 C669.13,448.3169 636.0112,352.567 616.9512,307.817 " fill="none" id="ServiceRegistration-to-Bundle_A" style="stroke:#555555;stroke-width:1.0;"/><polygon fill="#555555" points="614.6,302.2969,614.4466,312.1445,616.5593,306.897,621.8068,309.0097,614.6,302.2969" style="stroke:#555555;stroke-width:1.0;"/><polygon fill="#000000" points="650.2792,514.0297,645.124,522.0219,650.8062,523.5256,650.2792,514.0297" style="stroke:#000000;stroke-width:1.0;"/><text fill="#000000" font-family="Helvetica" font-size="13" lengthAdjust="spacing" textLength="139" x="658" y="523.3638">returned as receipt to</text></g><!--link Bundle_B to BundleContext--><g id="link_Bundle_B_BundleContext"><path codeLine="61" d="M187.79,279.1569 C146.56,281.9769 89.93,293.3669 61,332.2969 C34.78,367.5769 77.5198,399.5228 119.5198,421.4228 " fill="none" id="Bundle_B-to-BundleContext" style="stroke:#555555;stroke-width:1.0;"/><polygon fill="#555555" points="124.84,424.1969,118.7091,416.4889,120.4065,421.8851,115.0103,423.5825,124.84,424.1969" style="stroke:#555555;stroke-width:1.0;"/><polygon fill="#000000" points="63.8368,345.3711,70.3997,338.4879,65.1004,335.9449,63.8368,345.3711" style="stroke:#000000;stroke-width:1.0;"/><text fill="#000000" font-family="Helvetica" font-size="13" lengthAdjust="spacing" textLength="127" x="75" y="345.3638">requests service via</text></g><!--link Bundle_B to BundleContext--><g id="link_Bundle_B_BundleContext"><path codeLine="66" d="M228.78,302.3069 C217.36,334.2969 198.8088,386.2467 187.3288,418.3767 " fill="none" id="Bundle_B-to-BundleContext-1" style="stroke:#555555;stroke-width:1.0;"/><polygon fill="#555555" points="185.31,424.0269,192.105,416.8975,186.9923,419.3184,184.5714,414.2058,185.31,424.0269" style="stroke:#555555;stroke-width:1.0;"/><polygon fill="#000000" points="220.3184,345.572,226.1282,338.0423,220.5927,336.0654,220.3184,345.572" style="stroke:#000000;stroke-width:1.0;"/><text fill="#000000" font-family="Helvetica" font-size="13" lengthAdjust="spacing" textLength="141" x="231" y="345.3638">subscribes listener via</text></g><!--link ServiceRegistry to ServiceReference--><g id="link_ServiceRegistry_ServiceReference"><path codeLine="62" d="M265.4,605.4369 C271.47,627.4269 278.9615,654.5237 285.0315,676.4837 " fill="none" id="ServiceRegistry-to-ServiceReference" style="stroke:#555555;stroke-width:1.0;stroke-dasharray:7.0,7.0;"/><polygon fill="#555555" points="286.63,682.2669,288.0876,672.5265,285.2979,677.4476,280.3768,674.6578,286.63,682.2669" style="stroke:#555555;stroke-width:1.0;"/><polygon fill="#000000" points="284.3317,648.6827,284.7554,639.1816,279.0899,640.747,284.3317,648.6827" style="stroke:#000000;stroke-width:1.0;"/><text fill="#000000" font-family="Helvetica" font-size="13" lengthAdjust="spacing" textLength="48" x="292" y="648.3638">creates</text></g><!--link ServiceReference to Bundle_B--><g id="link_ServiceReference_Bundle_B"><path codeLine="63" d="M370.7,683.9569 C408.76,672.7269 447.6,659.7669 453,652.2969 C491.42,599.0969 477.5,411.1469 440,357.2969 C405.37,307.5769 340.3156,290.343 292.1556,283.813 " fill="none" id="ServiceReference-to-Bundle_B" style="stroke:#555555;stroke-width:1.0;"/><polygon fill="#555555" points="286.21,283.0069,294.591,288.1798,291.1647,283.6787,295.6658,280.2524,286.21,283.0069" style="stroke:#555555;stroke-width:1.0;"/><polygon fill="#000000" points="479.0369,513.9569,477.8952,523.3987,483.663,522.2665,479.0369,513.9569" style="stroke:#000000;stroke-width:1.0;"/><text fill="#000000" font-family="Helvetica" font-size="13" lengthAdjust="spacing" textLength="142" x="489" y="523.3638">returned to Consumer</text></g><!--link Bundle_B to ServiceListener--><g id="link_Bundle_B_ServiceListener"><path codeLine="65" d="M187.77,280.6369 C145.13,284.3769 84.4,296.2769 46,332.2969 C6.53,369.3169 6,393.1869 6,447.2969 C6,447.2969 6,447.2969 6,707.2969 C6,752.1069 31.9208,777.1234 66.4708,797.9834 " fill="none" id="Bundle_B-to-ServiceListener" style="stroke:#555555;stroke-width:1.0;stroke-dasharray:7.0,7.0;"/><polygon fill="none" points="81.88,807.2869,69.5719,792.8469,63.3696,803.1198,81.88,807.2869" style="stroke:#555555;stroke-width:1.0;"/><text fill="#000000" font-family="Helvetica" font-size="13" lengthAdjust="spacing" textLength="76" x="7" y="585.8638">implements</text></g><!--link ServiceRegistry to ServiceEvent--><g id="link_ServiceRegistry_ServiceEvent"><path codeLine="67" d="M189.92,600.6469 C171.16,608.5869 152.36,619.7569 139,635.2969 C127.84,648.2869 123.9363,661.276 122.0163,676.186 " fill="none" id="ServiceRegistry-to-ServiceEvent" style="stroke:#555555;stroke-width:1.0;"/><polygon fill="#555555" points="121.25,682.1369,126.3667,673.7215,121.8886,677.1778,118.4322,672.6997,121.25,682.1369" style="stroke:#555555;stroke-width:1.0;"/><polygon fill="#000000" points="140.6574,647.5817,148.8899,642.8197,144.5186,638.8902,140.6574,647.5817" style="stroke:#000000;stroke-width:1.0;"/><text fill="#000000" font-family="Helvetica" font-size="13" lengthAdjust="spacing" textLength="111" x="153" y="648.3638">issues on change</text></g><!--link ServiceEvent to ServiceListener--><g id="link_ServiceEvent_ServiceListener"><path codeLine="68" d="M121.5,730.4369 C122.94,752.4269 124.6801,779.3196 126.1101,801.2796 " fill="none" id="ServiceEvent-to-ServiceListener" style="stroke:#555555;stroke-width:1.0;"/><polygon fill="#555555" points="126.5,807.2669,129.9067,798.026,126.1751,802.2774,121.9236,798.5458,126.5,807.2669" style="stroke:#555555;stroke-width:1.0;"/><polygon fill="#000000" points="129.3247,773.8527,131.67,764.6359,125.8046,765.0176,129.3247,773.8527" style="stroke:#000000;stroke-width:1.0;"/><text fill="#000000" font-family="Helvetica" font-size="13" lengthAdjust="spacing" textLength="49" x="138" y="773.3638">triggers</text></g><!--SRC=[VPJ9Rjim48RlUef131GjYWWDwYum0W6sKpK5kWJreSU2baOoOOfKISfkalhTEwGMoueLdeIP-OVVB9JbLY3yM7tcm6GAiKOi1PCO16RBPSaqAy1iMAhsNEQGCM6mvz6gaccYj4GD7tls6ynO9MoifFtE2eHR53kqF66zc4GmO-0n03eBbcnpdsofXDBmQyCjUizSQxMlZPDt_jG2fLFKZNtgZxVV8YFxCDqadiRlum_1eNTzIJ4inmR0aQxu0y9LdMTbxwajcHAKxKGcbSKHw4aSnykR-2bVVBMSlecxUnhhMtyeUM1L2LR1Mbch2aYvniHo9OEWPRpenWBV69SNm0nGrn6khvNEmwprXWLvGsLo7aKDPDtbEINSCQlqbw8KZSUTryOoRL- -EXg4OkcTg78kJMC-ECIEn6zAJ9t0lT9RJ-BkQqZS9-4qtWw2IuiwOmd2WhebiCFfeq2VXQuy9rnI-_2lXST3hxWLwXrFy2Vct5XztpgFsYuWGusI3ECHFWLptHyD-aeXw1R-7CId7KgFHmK4jQSc_prtLhyzRjmgEzfdhHZkghNWPaChTwfTZ6WNFIsrnbI5avuEEmp_HK_QFWDEFYm8rWpYBo-ZFXhjWML267XHpyT0D2vOZ0Y2Bk4nk1tb3BJlEce3fgbbnncfJkESSZZf6LHboYowEuQ-C8pEZdK6YSQpcje_g5-ZhUZtbhf5ftU9lBJkhHvhMepKzAT2OuSbFGlPRkTPmjOvw7Q7Hqpj1fp0-V4FD_Ta_C_MOQgrIJHV4unerUTBwSsdVWHqYJ7K1A2c9XicwU_HgUg8dgI7PZNFSxSDKV0V]--></g></svg>