<?xml version="1.0" encoding="us-ascii" standalone="no"?><svg xmlns="http://www.w3.org/2000/svg" xmlns:xlink="http://www.w3.org/1999/xlink" contentStyleType="text/css" height="361px" preserveAspectRatio="none" style="width:476px;height:361px;background:#FFFFFF;" version="1.1" viewBox="0 0 476 361" width="476px" zoomAndPan="magnify"><defs/><g><text fill="#000000" font-family="sans-serif" font-size="14" font-weight="bold" lengthAdjust="spacing" textLength="294" x="84" y="22.9951">Class Diagram: Dependency Violation</text><!--cluster node--><g id="cluster_node"><path d="M8.5,43.2969 L50.5,43.2969 A3.75,3.75 0 0 1 53,45.7969 L60,65.5938 L466.5,65.5938 A2.5,2.5 0 0 1 469,68.0938 L469,171.7969 A2.5,2.5 0 0 1 466.5,174.2969 L8.5,174.2969 A2.5,2.5 0 0 1 6,171.7969 L6,45.7969 A2.5,2.5 0 0 1 8.5,43.2969 " fill="none" style="stroke:#000000;stroke-width:1.5;"/><line style="stroke:#000000;stroke-width:1.5;" x1="6" x2="60" y1="65.5938" y2="65.5938"/><text fill="#000000" font-family="sans-serif" font-size="14" font-weight="bold" lengthAdjust="spacing" textLength="41" x="10" y="58.292">Node</text><text fill="#000000" font-family="sans-serif" font-size="14" font-style="italic" lengthAdjust="spacing" textLength="204" x="139.5" y="80.5889">&#171;org.freeplane.features.map&#187;</text></g><!--cluster mode--><g id="cluster_mode"><path d="M168.5,223.2969 L212.5,223.2969 A3.75,3.75 0 0 1 215,225.7969 L222,245.5938 L393.5,245.5938 A2.5,2.5 0 0 1 396,248.0938 L396,351.7969 A2.5,2.5 0 0 1 393.5,354.2969 L168.5,354.2969 A2.5,2.5 0 0 1 166,351.7969 L166,225.7969 A2.5,2.5 0 0 1 168.5,223.2969 " fill="none" style="stroke:#000000;stroke-width:1.5;"/><line style="stroke:#000000;stroke-width:1.5;" x1="166" x2="222" y1="245.5938" y2="245.5938"/><text fill="#000000" font-family="sans-serif" font-size="14" font-weight="bold" lengthAdjust="spacing" textLength="43" x="170" y="238.292">Mode</text><text fill="#000000" font-family="sans-serif" font-size="14" font-style="italic" lengthAdjust="spacing" textLength="214" x="178" y="260.5889">&#171;org.freeplane.features.mode&#187;</text></g><!--class MapModel--><g id="elem_MapModel"><rect codeLine="5" fill="#F1F1F1" height="64.2969" id="MapModel" rx="2.5" ry="2.5" style="stroke:#181818;stroke-width:0.5;" width="217" x="22.5" y="94.2969"/><ellipse cx="91.25" cy="110.2969" fill="#ADD1B2" rx="11" ry="11" style="stroke:#181818;stroke-width:1.0;"/><path d="M94.2188,115.9375 Q93.6406,116.2344 93,116.375 Q92.3594,116.5313 91.6563,116.5313 Q89.1563,116.5313 87.8281,114.8906 Q86.5156,113.2344 86.5156,110.1094 Q86.5156,106.9844 87.8281,105.3281 Q89.1563,103.6719 91.6563,103.6719 Q92.3594,103.6719 93,103.8281 Q93.6563,103.9844 94.2188,104.2813 L94.2188,107 Q93.5938,106.4219 93,106.1563 Q92.4063,105.875 91.7813,105.875 Q90.4375,105.875 89.75,106.9531 Q89.0625,108.0156 89.0625,110.1094 Q89.0625,112.2031 89.75,113.2813 Q90.4375,114.3438 91.7813,114.3438 Q92.4063,114.3438 93,114.0781 Q93.5938,113.7969 94.2188,113.2188 L94.2188,115.9375 Z " fill="#000000"/><text fill="#000000" font-family="sans-serif" font-size="14" lengthAdjust="spacing" textLength="71" x="111.75" y="115.1436">MapModel</text><line style="stroke:#181818;stroke-width:0.5;" x1="23.5" x2="238.5" y1="126.2969" y2="126.2969"/><line style="stroke:#181818;stroke-width:0.5;" x1="23.5" x2="238.5" y1="134.2969" y2="134.2969"/><ellipse cx="33.5" cy="147.9453" fill="#84BE84" rx="3" ry="3" style="stroke:#038048;stroke-width:1.0;"/><text fill="#000000" font-family="sans-serif" font-size="14" lengthAdjust="spacing" textLength="191" x="42.5" y="151.292">getCurrentModeController()</text></g><!--class MapController--><g id="elem_MapController"><rect codeLine="9" fill="#F1F1F1" height="64.2969" id="MapController" rx="2.5" ry="2.5" style="stroke:#181818;stroke-width:0.5;" width="178" x="275" y="94.2969"/><ellipse cx="312.5" cy="110.2969" fill="#ADD1B2" rx="11" ry="11" style="stroke:#181818;stroke-width:1.0;"/><path d="M315.4688,115.9375 Q314.8906,116.2344 314.25,116.375 Q313.6094,116.5313 312.9063,116.5313 Q310.4063,116.5313 309.0781,114.8906 Q307.7656,113.2344 307.7656,110.1094 Q307.7656,106.9844 309.0781,105.3281 Q310.4063,103.6719 312.9063,103.6719 Q313.6094,103.6719 314.25,103.8281 Q314.9063,103.9844 315.4688,104.2813 L315.4688,107 Q314.8438,106.4219 314.25,106.1563 Q313.6563,105.875 313.0313,105.875 Q311.6875,105.875 311,106.9531 Q310.3125,108.0156 310.3125,110.1094 Q310.3125,112.2031 311,113.2813 Q311.6875,114.3438 313.0313,114.3438 Q313.6563,114.3438 314.25,114.0781 Q314.8438,113.7969 315.4688,113.2188 L315.4688,115.9375 Z " fill="#000000"/><text fill="#000000" font-family="sans-serif" font-size="14" lengthAdjust="spacing" textLength="96" x="331.5" y="115.1436">MapController</text><line style="stroke:#181818;stroke-width:0.5;" x1="276" x2="452" y1="126.2969" y2="126.2969"/><line style="stroke:#181818;stroke-width:0.5;" x1="276" x2="452" y1="134.2969" y2="134.2969"/><ellipse cx="286" cy="147.9453" fill="#84BE84" rx="3" ry="3" style="stroke:#038048;stroke-width:1.0;"/><text fill="#000000" font-family="sans-serif" font-size="14" lengthAdjust="spacing" textLength="152" x="295" y="151.292">getCurrentController()</text></g><!--class Controller--><g id="elem_Controller"><rect codeLine="18" fill="#F1F1F1" height="64.2969" id="Controller" rx="2.5" ry="2.5" style="stroke:#181818;stroke-width:0.5;" width="99" x="211.5" y="274.2969"/><ellipse cx="226.5" cy="290.2969" fill="#ADD1B2" rx="11" ry="11" style="stroke:#181818;stroke-width:1.0;"/><path d="M229.4688,295.9375 Q228.8906,296.2344 228.25,296.375 Q227.6094,296.5313 226.9063,296.5313 Q224.4063,296.5313 223.0781,294.8906 Q221.7656,293.2344 221.7656,290.1094 Q221.7656,286.9844 223.0781,285.3281 Q224.4063,283.6719 226.9063,283.6719 Q227.6094,283.6719 228.25,283.8281 Q228.9063,283.9844 229.4688,284.2813 L229.4688,287 Q228.8438,286.4219 228.25,286.1563 Q227.6563,285.875 227.0313,285.875 Q225.6875,285.875 225,286.9531 Q224.3125,288.0156 224.3125,290.1094 Q224.3125,292.2031 225,293.2813 Q225.6875,294.3438 227.0313,294.3438 Q227.6563,294.3438 228.25,294.0781 Q228.8438,293.7969 229.4688,293.2188 L229.4688,295.9375 Z " fill="#000000"/><text fill="#000000" font-family="sans-serif" font-size="14" lengthAdjust="spacing" textLength="67" x="240.5" y="295.1436">Controller</text><line style="stroke:#181818;stroke-width:0.5;" x1="212.5" x2="309.5" y1="306.2969" y2="306.2969"/><line style="stroke:#181818;stroke-width:0.5;" x1="212.5" x2="309.5" y1="314.2969" y2="314.2969"/><ellipse cx="222.5" cy="327.9453" fill="#84BE84" rx="3" ry="3" style="stroke:#038048;stroke-width:1.0;"/><text fill="#000000" font-family="sans-serif" font-size="14" lengthAdjust="spacing" textLength="64" x="231.5" y="331.292">Adapter()</text></g><!--link MapModel to Controller--><g id="link_MapModel_Controller"><path codeLine="23" d="M153.64,158.3069 C177.36,190.7769 210.8612,236.6415 234.6412,269.2015 " fill="none" id="MapModel-to-Controller" style="stroke:#181818;stroke-width:1.0;"/><polygon fill="#181818" points="238.18,274.0469,236.1021,264.4197,235.231,270.0091,229.6416,269.1381,238.18,274.0469" style="stroke:#181818;stroke-width:1.0;"/><text fill="#000000" font-family="sans-serif" font-size="13" lengthAdjust="spacing" textLength="75" x="189" y="203.3638">depends on</text></g><!--link MapController to Controller--><g id="link_MapController_Controller"><path codeLine="24" d="M346.06,158.3069 C327.27,190.7769 300.925,236.2936 282.085,268.8536 " fill="none" id="MapController-to-Controller" style="stroke:#181818;stroke-width:1.0;"/><polygon fill="#181818" points="279.08,274.0469,287.0496,268.2603,281.5841,269.7191,280.1252,264.2536,279.08,274.0469" style="stroke:#181818;stroke-width:1.0;"/><text fill="#000000" font-family="sans-serif" font-size="13" lengthAdjust="spacing" textLength="75" x="325" y="203.3638">depends on</text></g><!--SRC=[VL312eCm3BttAuAd3PaV858OUdN7tOED8gjjQUjXZFtxQaLK9eOSGl9UtajyxoL1AT4vg7hiB0uvL6H82LBD6vwzbkXxhHWpsBom8qWUMb02w4250ef2sovhBP6Hg2Xh2VreoMK36ixXmo144mLgD7MWoBatHGeT-NAqbfIVHgLMtcefoLwk4VHbU_uAWECjHnj2hkxhnVrmxZvCEPyrDXR-z5Eu2pH-bOk4eBWS2xSRtz9o4F6z3i9JznUT8TaF]--></g></svg>