<?xml version="1.0" encoding="us-ascii" standalone="no"?><svg xmlns="http://www.w3.org/2000/svg" xmlns:xlink="http://www.w3.org/1999/xlink" contentStyleType="text/css" height="324px" preserveAspectRatio="none" style="width:730px;height:324px;background:#FFFFFF;" version="1.1" viewBox="0 0 730 324" width="730px" zoomAndPan="magnify"><defs/><g><text fill="#000000" font-family="sans-serif" font-size="14" font-weight="bold" lengthAdjust="spacing" textLength="513" x="101.5" y="22.9951">Class Diagram: Dependency Violation - Possible refactor solution</text><!--cluster node--><g id="cluster_node"><path d="M8.5,43.2969 L50.5,43.2969 A3.75,3.75 0 0 1 53,45.7969 L60,65.5938 L466.5,65.5938 A2.5,2.5 0 0 1 469,68.0938 L469,171.7969 A2.5,2.5 0 0 1 466.5,174.2969 L8.5,174.2969 A2.5,2.5 0 0 1 6,171.7969 L6,45.7969 A2.5,2.5 0 0 1 8.5,43.2969 " fill="none" style="stroke:#000000;stroke-width:1.5;"/><line style="stroke:#000000;stroke-width:1.5;" x1="6" x2="60" y1="65.5938" y2="65.5938"/><text fill="#000000" font-family="sans-serif" font-size="14" font-weight="bold" lengthAdjust="spacing" textLength="41" x="10" y="58.292">Node</text><text fill="#000000" font-family="sans-serif" font-size="14" font-style="italic" lengthAdjust="spacing" textLength="204" x="139.5" y="80.5889">&#171;org.freeplane.features.map&#187;</text></g><!--cluster mode--><g id="cluster_mode"><path d="M495.5,43.2969 L539.5,43.2969 A3.75,3.75 0 0 1 542,45.7969 L549,65.5938 L720.5,65.5938 A2.5,2.5 0 0 1 723,68.0938 L723,314.7969 A2.5,2.5 0 0 1 720.5,317.2969 L495.5,317.2969 A2.5,2.5 0 0 1 493,314.7969 L493,45.7969 A2.5,2.5 0 0 1 495.5,43.2969 " fill="none" style="stroke:#000000;stroke-width:1.5;"/><line style="stroke:#000000;stroke-width:1.5;" x1="493" x2="549" y1="65.5938" y2="65.5938"/><text fill="#000000" font-family="sans-serif" font-size="14" font-weight="bold" lengthAdjust="spacing" textLength="43" x="497" y="58.292">Mode</text><text fill="#000000" font-family="sans-serif" font-size="14" font-style="italic" lengthAdjust="spacing" textLength="214" x="505" y="80.5889">&#171;org.freeplane.features.mode&#187;</text></g><!--class MapModel--><g id="elem_MapModel"><rect codeLine="5" fill="#F1F1F1" height="64.2969" id="MapModel" rx="2.5" ry="2.5" style="stroke:#181818;stroke-width:0.5;" width="217" x="22.5" y="94.2969"/><ellipse cx="91.25" cy="110.2969" fill="#ADD1B2" rx="11" ry="11" style="stroke:#181818;stroke-width:1.0;"/><path d="M94.2188,115.9375 Q93.6406,116.2344 93,116.375 Q92.3594,116.5313 91.6563,116.5313 Q89.1563,116.5313 87.8281,114.8906 Q86.5156,113.2344 86.5156,110.1094 Q86.5156,106.9844 87.8281,105.3281 Q89.1563,103.6719 91.6563,103.6719 Q92.3594,103.6719 93,103.8281 Q93.6563,103.9844 94.2188,104.2813 L94.2188,107 Q93.5938,106.4219 93,106.1563 Q92.4063,105.875 91.7813,105.875 Q90.4375,105.875 89.75,106.9531 Q89.0625,108.0156 89.0625,110.1094 Q89.0625,112.2031 89.75,113.2813 Q90.4375,114.3438 91.7813,114.3438 Q92.4063,114.3438 93,114.0781 Q93.5938,113.7969 94.2188,113.2188 L94.2188,115.9375 Z " fill="#000000"/><text fill="#000000" font-family="sans-serif" font-size="14" lengthAdjust="spacing" textLength="71" x="111.75" y="115.1436">MapModel</text><line style="stroke:#181818;stroke-width:0.5;" x1="23.5" x2="238.5" y1="126.2969" y2="126.2969"/><line style="stroke:#181818;stroke-width:0.5;" x1="23.5" x2="238.5" y1="134.2969" y2="134.2969"/><ellipse cx="33.5" cy="147.9453" fill="#84BE84" rx="3" ry="3" style="stroke:#038048;stroke-width:1.0;"/><text fill="#000000" font-family="sans-serif" font-size="14" lengthAdjust="spacing" textLength="191" x="42.5" y="151.292">getCurrentModeController()</text></g><!--class MapController--><g id="elem_MapController"><rect codeLine="9" fill="#F1F1F1" height="64.2969" id="MapController" rx="2.5" ry="2.5" style="stroke:#181818;stroke-width:0.5;" width="178" x="275" y="94.2969"/><ellipse cx="312.5" cy="110.2969" fill="#ADD1B2" rx="11" ry="11" style="stroke:#181818;stroke-width:1.0;"/><path d="M315.4688,115.9375 Q314.8906,116.2344 314.25,116.375 Q313.6094,116.5313 312.9063,116.5313 Q310.4063,116.5313 309.0781,114.8906 Q307.7656,113.2344 307.7656,110.1094 Q307.7656,106.9844 309.0781,105.3281 Q310.4063,103.6719 312.9063,103.6719 Q313.6094,103.6719 314.25,103.8281 Q314.9063,103.9844 315.4688,104.2813 L315.4688,107 Q314.8438,106.4219 314.25,106.1563 Q313.6563,105.875 313.0313,105.875 Q311.6875,105.875 311,106.9531 Q310.3125,108.0156 310.3125,110.1094 Q310.3125,112.2031 311,113.2813 Q311.6875,114.3438 313.0313,114.3438 Q313.6563,114.3438 314.25,114.0781 Q314.8438,113.7969 315.4688,113.2188 L315.4688,115.9375 Z " fill="#000000"/><text fill="#000000" font-family="sans-serif" font-size="14" lengthAdjust="spacing" textLength="96" x="331.5" y="115.1436">MapController</text><line style="stroke:#181818;stroke-width:0.5;" x1="276" x2="452" y1="126.2969" y2="126.2969"/><line style="stroke:#181818;stroke-width:0.5;" x1="276" x2="452" y1="134.2969" y2="134.2969"/><ellipse cx="286" cy="147.9453" fill="#84BE84" rx="3" ry="3" style="stroke:#038048;stroke-width:1.0;"/><text fill="#000000" font-family="sans-serif" font-size="14" lengthAdjust="spacing" textLength="152" x="295" y="151.292">getCurrentController()</text></g><!--class Controller--><g id="elem_Controller"><rect codeLine="18" fill="#F1F1F1" height="64.2969" id="Controller" rx="2.5" ry="2.5" style="stroke:#181818;stroke-width:0.5;" width="154" x="509" y="94.2969"/><ellipse cx="548.75" cy="110.2969" fill="#ADD1B2" rx="11" ry="11" style="stroke:#181818;stroke-width:1.0;"/><path d="M551.7188,115.9375 Q551.1406,116.2344 550.5,116.375 Q549.8594,116.5313 549.1563,116.5313 Q546.6563,116.5313 545.3281,114.8906 Q544.0156,113.2344 544.0156,110.1094 Q544.0156,106.9844 545.3281,105.3281 Q546.6563,103.6719 549.1563,103.6719 Q549.8594,103.6719 550.5,103.8281 Q551.1563,103.9844 551.7188,104.2813 L551.7188,107 Q551.0938,106.4219 550.5,106.1563 Q549.9063,105.875 549.2813,105.875 Q547.9375,105.875 547.25,106.9531 Q546.5625,108.0156 546.5625,110.1094 Q546.5625,112.2031 547.25,113.2813 Q547.9375,114.3438 549.2813,114.3438 Q549.9063,114.3438 550.5,114.0781 Q551.0938,113.7969 551.7188,113.2188 L551.7188,115.9375 Z " fill="#000000"/><text fill="#000000" font-family="sans-serif" font-size="14" lengthAdjust="spacing" textLength="67" x="568.25" y="115.1436">Controller</text><line style="stroke:#181818;stroke-width:0.5;" x1="510" x2="662" y1="126.2969" y2="126.2969"/><line style="stroke:#181818;stroke-width:0.5;" x1="510" x2="662" y1="134.2969" y2="134.2969"/><ellipse cx="520" cy="147.9453" fill="#84BE84" rx="3" ry="3" style="stroke:#038048;stroke-width:1.0;"/><text fill="#000000" font-family="sans-serif" font-size="14" lengthAdjust="spacing" textLength="128" x="529" y="151.292">ConcreteAdapter()</text></g><!--class IController--><g id="elem_IController"><rect codeLine="22" fill="#F1F1F1" height="64.2969" id="IController" rx="2.5" ry="2.5" style="stroke:#181818;stroke-width:0.5;" width="150" x="509" y="237.2969"/><ellipse cx="545.15" cy="253.2969" fill="#B4A7E5" rx="11" ry="11" style="stroke:#181818;stroke-width:1.0;"/><path d="M541.0719,249.0625 L541.0719,246.9063 L548.4625,246.9063 L548.4625,249.0625 L545.9938,249.0625 L545.9938,257.1406 L548.4625,257.1406 L548.4625,259.2969 L541.0719,259.2969 L541.0719,257.1406 L543.5406,257.1406 L543.5406,249.0625 L541.0719,249.0625 Z " fill="#000000"/><text fill="#000000" font-family="sans-serif" font-size="14" font-style="italic" lengthAdjust="spacing" textLength="71" x="563.85" y="258.1436">IController</text><line style="stroke:#181818;stroke-width:0.5;" x1="510" x2="658" y1="269.2969" y2="269.2969"/><line style="stroke:#181818;stroke-width:0.5;" x1="510" x2="658" y1="277.2969" y2="277.2969"/><ellipse cx="520" cy="290.9453" fill="#84BE84" rx="3" ry="3" style="stroke:#038048;stroke-width:1.0;"/><text fill="#000000" font-family="sans-serif" font-size="14" lengthAdjust="spacing" textLength="124" x="529" y="294.292">exposedAdapter()</text></g><!--link MapModel to IController--><g id="link_MapModel_IController"><path codeLine="29" d="M197.48,158.3269 C216.77,166.7169 238.02,175.3769 258,182.2969 C342.49,211.5469 436.3734,235.1587 503.0734,250.5387 " fill="none" id="MapModel-to-IController" style="stroke:#181818;stroke-width:1.0;"/><polygon fill="#181818" points="508.92,251.8869,501.0489,245.967,504.0478,250.7634,499.2514,253.7624,508.92,251.8869" style="stroke:#181818;stroke-width:1.0;"/><text fill="#000000" font-family="sans-serif" font-size="13" lengthAdjust="spacing" textLength="75" x="329" y="203.3638">depends on</text></g><!--link MapController to IController--><g id="link_MapController_IController"><path codeLine="30" d="M400.96,158.6169 C420.07,174.1269 444.13,192.6269 467,207.2969 C483.48,217.8769 496.6896,225.4133 514.0496,234.4633 " fill="none" id="MapController-to-IController" style="stroke:#181818;stroke-width:1.0;"/><polygon fill="#181818" points="519.37,237.2369,513.2384,229.5295,514.9363,234.9255,509.5403,236.6234,519.37,237.2369" style="stroke:#181818;stroke-width:1.0;"/><text fill="#000000" font-family="sans-serif" font-size="13" lengthAdjust="spacing" textLength="75" x="468" y="203.3638">depends on</text></g><!--link IController to Controller--><!--link Controller to IController--><g id="link_Controller_IController"><path codeLine="32" d="M566.5,158.5469 C561.39,168.3369 556.6,179.4369 554,190.2969 C550.22,206.0969 552.7732,217.6572 559.8932,231.6772 " fill="none" id="Controller-to-IController" style="stroke:#181818;stroke-width:1.0;"/><polygon fill="#181818" points="562.61,237.0269,562.1012,227.1912,560.346,232.5688,554.9683,230.8136,562.61,237.0269" style="stroke:#181818;stroke-width:1.0;"/><text fill="#000000" font-family="sans-serif" font-size="13" lengthAdjust="spacing" textLength="76" x="555" y="203.3638">implements</text></g><!--SRC=[VLBDQiCm3BxxAKHF6oDvW5828xtiaBBJBcC7BLOoC_yXEsoZxDsdf9GqeutnmUZJzuFaRB8bg2sc17k3FQFRmfuYUKs-_O4N4onc4pmKy1nICk_IpjHXcmD32dOOGQKYjf_O4smEGTC6C86N1-nsWVkoOw9eqLFP4UQ1APKEOrN1KO6STd9lC3P2iQVQU1wWfrmFpEJp2DN1PmxM4j_TJqs_QicV6-2woZK5kNFwvfpUhQSNjAgEb_OtlANSCcLwr1ZpR0jmuXelHHacmTCD0VgE8P7-nn_PO_BpqA0egeN45lIqn0IodULeLbilWUBrmsZv1cywV7aXpP1QbJCkMd8oxgJ-0000]--></g></svg>