<?xml version="1.0" encoding="us-ascii" standalone="no"?><svg xmlns="http://www.w3.org/2000/svg" xmlns:xlink="http://www.w3.org/1999/xlink" contentStyleType="text/css" height="284px" preserveAspectRatio="none" style="width:1224px;height:284px;background:#FFFFFF;" version="1.1" viewBox="0 0 1224 284" width="1224px" zoomAndPan="magnify"><defs/><g><!--class Node--><g id="elem_Node"><rect codeLine="1" fill="#F1F1F1" height="64.2969" id="Node" rx="2.5" ry="2.5" style="stroke:#181818;stroke-width:0.5;" width="144" x="125.5" y="7"/><ellipse cx="174.25" cy="23" fill="#B4A7E5" rx="11" ry="11" style="stroke:#181818;stroke-width:1.0;"/><path d="M170.1719,18.7656 L170.1719,16.6094 L177.5625,16.6094 L177.5625,18.7656 L175.0938,18.7656 L175.0938,26.8438 L177.5625,26.8438 L177.5625,29 L170.1719,29 L170.1719,26.8438 L172.6406,26.8438 L172.6406,18.7656 L170.1719,18.7656 Z " fill="#000000"/><text fill="#000000" font-family="sans-serif" font-size="14" font-style="italic" lengthAdjust="spacing" textLength="38" x="194.75" y="27.8467">Node</text><line style="stroke:#181818;stroke-width:0.5;" x1="126.5" x2="268.5" y1="39" y2="39"/><line style="stroke:#181818;stroke-width:0.5;" x1="126.5" x2="268.5" y1="47" y2="47"/><ellipse cx="136.5" cy="60.6484" fill="#84BE84" rx="3" ry="3" style="stroke:#038048;stroke-width:1.0;"/><text fill="#000000" font-family="sans-serif" font-size="14" lengthAdjust="spacing" textLength="118" x="145.5" y="63.9951">isLeaf() : boolean</text></g><!--class LeafNode--><g id="elem_LeafNode"><rect codeLine="7" fill="#F1F1F1" height="64.2969" id="LeafNode" rx="2.5" ry="2.5" style="stroke:#181818;stroke-width:0.5;" width="144" x="1073.5" y="180.5"/><ellipse cx="1109.65" cy="196.5" fill="#ADD1B2" rx="11" ry="11" style="stroke:#181818;stroke-width:1.0;"/><path d="M1112.6188,202.1406 Q1112.0406,202.4375 1111.4,202.5781 Q1110.7594,202.7344 1110.0563,202.7344 Q1107.5563,202.7344 1106.2281,201.0938 Q1104.9156,199.4375 1104.9156,196.3125 Q1104.9156,193.1875 1106.2281,191.5313 Q1107.5563,189.875 1110.0563,189.875 Q1110.7594,189.875 1111.4,190.0313 Q1112.0563,190.1875 1112.6188,190.4844 L1112.6188,193.2031 Q1111.9938,192.625 1111.4,192.3594 Q1110.8063,192.0781 1110.1813,192.0781 Q1108.8375,192.0781 1108.15,193.1563 Q1107.4625,194.2188 1107.4625,196.3125 Q1107.4625,198.4063 1108.15,199.4844 Q1108.8375,200.5469 1110.1813,200.5469 Q1110.8063,200.5469 1111.4,200.2813 Q1111.9938,200 1112.6188,199.4219 L1112.6188,202.1406 Z " fill="#000000"/><text fill="#000000" font-family="sans-serif" font-size="14" lengthAdjust="spacing" textLength="65" x="1128.35" y="201.3467">LeafNode</text><line style="stroke:#181818;stroke-width:0.5;" x1="1074.5" x2="1216.5" y1="212.5" y2="212.5"/><line style="stroke:#181818;stroke-width:0.5;" x1="1074.5" x2="1216.5" y1="220.5" y2="220.5"/><ellipse cx="1084.5" cy="234.1484" fill="#84BE84" rx="3" ry="3" style="stroke:#038048;stroke-width:1.0;"/><text fill="#000000" font-family="sans-serif" font-size="14" lengthAdjust="spacing" textLength="118" x="1093.5" y="237.4951">isLeaf() : boolean</text></g><!--class BranchNode--><g id="elem_BranchNode"><rect codeLine="11" fill="#F1F1F1" height="129.4844" id="BranchNode" rx="2.5" ry="2.5" style="stroke:#181818;stroke-width:0.5;" width="265" x="7" y="148"/><ellipse cx="92.25" cy="164" fill="#ADD1B2" rx="11" ry="11" style="stroke:#181818;stroke-width:1.0;"/><path d="M95.2188,169.6406 Q94.6406,169.9375 94,170.0781 Q93.3594,170.2344 92.6563,170.2344 Q90.1563,170.2344 88.8281,168.5938 Q87.5156,166.9375 87.5156,163.8125 Q87.5156,160.6875 88.8281,159.0313 Q90.1563,157.375 92.6563,157.375 Q93.3594,157.375 94,157.5313 Q94.6563,157.6875 95.2188,157.9844 L95.2188,160.7031 Q94.5938,160.125 94,159.8594 Q93.4063,159.5781 92.7813,159.5781 Q91.4375,159.5781 90.75,160.6563 Q90.0625,161.7188 90.0625,163.8125 Q90.0625,165.9063 90.75,166.9844 Q91.4375,168.0469 92.7813,168.0469 Q93.4063,168.0469 94,167.7813 Q94.5938,167.5 95.2188,166.9219 L95.2188,169.6406 Z " fill="#000000"/><text fill="#000000" font-family="sans-serif" font-size="14" lengthAdjust="spacing" textLength="86" x="112.75" y="168.8467">BranchNode</text><line style="stroke:#181818;stroke-width:0.5;" x1="8" x2="271" y1="180" y2="180"/><rect fill="none" height="6" style="stroke:#C82930;stroke-width:1.0;" width="6" x="15" y="190.6484"/><text fill="#000000" font-family="sans-serif" font-size="14" lengthAdjust="spacing" textLength="152" x="27" y="196.9951">children : List&lt;Node&gt;</text><line style="stroke:#181818;stroke-width:0.5;" x1="8" x2="271" y1="204.2969" y2="204.2969"/><ellipse cx="18" cy="217.9453" fill="#84BE84" rx="3" ry="3" style="stroke:#038048;stroke-width:1.0;"/><text fill="#000000" font-family="sans-serif" font-size="14" lengthAdjust="spacing" textLength="139" x="27" y="221.292">getChildCount() : int</text><ellipse cx="18" cy="234.2422" fill="#84BE84" rx="3" ry="3" style="stroke:#038048;stroke-width:1.0;"/><text fill="#000000" font-family="sans-serif" font-size="14" lengthAdjust="spacing" textLength="187" x="27" y="237.5889">getChildren() : List&lt;Node&gt;</text><ellipse cx="18" cy="250.5391" fill="#84BE84" rx="3" ry="3" style="stroke:#038048;stroke-width:1.0;"/><text fill="#000000" font-family="sans-serif" font-size="14" lengthAdjust="spacing" textLength="239" x="27" y="253.8857">insert(child: Node, index: int) : void</text><ellipse cx="18" cy="266.8359" fill="#84BE84" rx="3" ry="3" style="stroke:#038048;stroke-width:1.0;"/><text fill="#000000" font-family="sans-serif" font-size="14" lengthAdjust="spacing" textLength="118" x="27" y="270.1826">isLeaf() : boolean</text></g><g id="elem_GMN8"><path d="M718.5,192.5 L718.5,232.7656 A0,0 0 0 0 718.5,232.7656 L1038.5,232.7656 A0,0 0 0 0 1038.5,232.7656 L1038.5,216.5 L1073.26,212.5 L1038.5,208.5 L1038.5,202.5 L1028.5,192.5 L718.5,192.5 A0,0 0 0 0 718.5,192.5 " fill="#FEFFDD" style="stroke:#181818;stroke-width:0.5;"/><path d="M1028.5,192.5 L1028.5,202.5 L1038.5,202.5 L1028.5,192.5 " fill="#FEFFDD" style="stroke:#181818;stroke-width:0.5;"/><text fill="#000000" font-family="sans-serif" font-size="13" lengthAdjust="spacing" textLength="299" x="724.5" y="209.5669">It manages leaf nodes only. It does not provide</text><text fill="#000000" font-family="sans-serif" font-size="13" lengthAdjust="spacing" textLength="234" x="724.5" y="224.6997">methods for adding/deleting children</text></g><g id="elem_GMN11"><path d="M307.5,192.5 L307.5,208.5 L272.3,212.5 L307.5,216.5 L307.5,232.7656 A0,0 0 0 0 307.5,232.7656 L683.5,232.7656 A0,0 0 0 0 683.5,232.7656 L683.5,202.5 L673.5,192.5 L307.5,192.5 A0,0 0 0 0 307.5,192.5 " fill="#FEFFDD" style="stroke:#181818;stroke-width:0.5;"/><path d="M673.5,192.5 L673.5,202.5 L683.5,202.5 L673.5,192.5 " fill="#FEFFDD" style="stroke:#181818;stroke-width:0.5;"/><text fill="#000000" font-family="sans-serif" font-size="13" lengthAdjust="spacing" textLength="292" x="313.5" y="209.5669">It can manage children. It must reinstantiated</text><text fill="#000000" font-family="sans-serif" font-size="13" lengthAdjust="spacing" textLength="355" x="313.5" y="224.6997">from a LeafNode if a children is added. Adds complexity</text></g><!--reverse link Node to LeafNode--><g id="link_Node_LeafNode"><path codeLine="19" d="M287.7202,45.7163 C467.5802,57.6963 913.17,92.01 1056.5,148 C1075.77,155.53 1094.77,168.16 1110.23,180.18 " fill="none" id="Node-backto-LeafNode" style="stroke:#181818;stroke-width:1.0;stroke-dasharray:7.0,7.0;"/><polygon fill="none" points="269.76,44.52,287.3214,51.703,288.119,39.7295,269.76,44.52" style="stroke:#181818;stroke-width:1.0;"/></g><!--reverse link Node to BranchNode--><g id="link_Node_BranchNode"><path codeLine="20" d="M167.1183,86.7343 C161.6083,95.9843 165.36,90.89 161.5,101 C155.85,115.8 151.57,132.3 148.36,147.94 " fill="none" id="Node-backto-BranchNode" style="stroke:#181818;stroke-width:1.0;stroke-dasharray:7.0,7.0;"/><polygon fill="none" points="176.33,71.27,161.9635,83.6637,172.2731,89.8049,176.33,71.27" style="stroke:#181818;stroke-width:1.0;"/></g><!--link BranchNode to Node--><g id="link_BranchNode_Node"><path codeLine="21" d="M160.98,148 C169.86,121.74 175.9044,103.8571 183.1544,82.4271 " fill="none" id="BranchNode-to-Node" style="stroke:#181818;stroke-width:1.0;"/><polygon fill="none" points="187,71.06,181.2882,75.4617,183.1544,82.4271,188.8662,78.0254,187,71.06" style="stroke:#181818;stroke-width:1.0;"/><text fill="#000000" font-family="sans-serif" font-size="13" lengthAdjust="spacing" textLength="50" x="176.5" y="114.0669">children</text><text fill="#000000" font-family="sans-serif" font-size="13" lengthAdjust="spacing" textLength="8" x="155.0011" y="136.7216">1</text><text fill="#000000" font-family="sans-serif" font-size="13" lengthAdjust="spacing" textLength="7" x="177.1125" y="91.2692">*</text></g><!--SRC=[ZLBBQiCm4BpdAnQVqeTTUZMXqEPK2Fq7rLhP0baRf4r8QFllNSd6Ta8EqSMIPcTsPYq00EiPWr4DmXTfX9yLZEi9RDoXCki7gE6RoA7ogup-hOPlurICa6hkeOxCcVWHb6-wAse9JMUT3kY5khEHDwdWRI7T8czJoPOEddC7YN035ucCtXInFcBWTUvLv-JFSgVnbDKIxKXMtnqeXzZyLjKqZQlhEMi65j6BrmBAag1uB8RwUfh0eEs94HmQ1ZANyfyClVAgnIYuCbAfPKlUdQk4QPAJi64Vw6X7Je_SaOvWA83IslhsHQD3bitSDnMYrxdrmaImRPTTNAMHNetoevT99Nle3v4Xe8oRbMUh68UXca0zgFdjM2EdwS_RcBoXhk1TYzU6-ht3a-NpXRD_]--></g></svg>