<?xml version="1.0" encoding="us-ascii" standalone="no"?><svg xmlns="http://www.w3.org/2000/svg" xmlns:xlink="http://www.w3.org/1999/xlink" contentStyleType="text/css" height="598px" preserveAspectRatio="none" style="width:265px;height:598px;background:#FFFFFF;" version="1.1" viewBox="0 0 265 598" width="265px" zoomAndPan="magnify"><defs/><g><!--cluster Freeplane--><g id="cluster_Freeplane"><path d="M8.5,143 L88.5,143 A3.75,3.75 0 0 1 91,145.5 L98,165.2969 L255.5,165.2969 A2.5,2.5 0 0 1 258,167.7969 L258,588.5 A2.5,2.5 0 0 1 255.5,591 L8.5,591 A2.5,2.5 0 0 1 6,588.5 L6,145.5 A2.5,2.5 0 0 1 8.5,143 " fill="none" style="stroke:#000000;stroke-width:1.5;"/><line style="stroke:#000000;stroke-width:1.5;" x1="6" x2="98" y1="165.2969" y2="165.2969"/><text fill="#000000" font-family="sans-serif" font-size="14" font-weight="bold" lengthAdjust="spacing" textLength="79" x="10" y="157.9951">Freeplane</text></g><!--class ProxyNode--><g id="elem_ProxyNode"><rect codeLine="2" fill="#F1F1F1" height="80.5938" id="ProxyNode" rx="2.5" ry="2.5" style="stroke:#181818;stroke-width:0.5;" width="219" x="22.5" y="178"/><ellipse cx="89.75" cy="194" fill="#B4A7E5" rx="11" ry="11" style="stroke:#181818;stroke-width:1.0;"/><path d="M85.6719,189.7656 L85.6719,187.6094 L93.0625,187.6094 L93.0625,189.7656 L90.5938,189.7656 L90.5938,197.8438 L93.0625,197.8438 L93.0625,200 L85.6719,200 L85.6719,197.8438 L88.1406,197.8438 L88.1406,189.7656 L85.6719,189.7656 Z " fill="#000000"/><text fill="#000000" font-family="sans-serif" font-size="14" font-style="italic" lengthAdjust="spacing" textLength="76" x="110.25" y="198.8467">ProxyNode</text><line style="stroke:#181818;stroke-width:0.5;" x1="23.5" x2="240.5" y1="210" y2="210"/><line style="stroke:#181818;stroke-width:0.5;" x1="23.5" x2="240.5" y1="218" y2="218"/><ellipse cx="33.5" cy="231.6484" fill="#84BE84" rx="3" ry="3" style="stroke:#038048;stroke-width:1.0;"/><text fill="#000000" font-family="sans-serif" font-size="14" lengthAdjust="spacing" textLength="116" x="42.5" y="234.9951">getText() : String</text><ellipse cx="33.5" cy="247.9453" fill="#84BE84" rx="3" ry="3" style="stroke:#038048;stroke-width:1.0;"/><text fill="#000000" font-family="sans-serif" font-size="14" lengthAdjust="spacing" textLength="193" x="42.5" y="251.292">setText(value: Object) : void</text></g><!--class NodeModel--><g id="elem_NodeModel"><rect codeLine="7" fill="#F1F1F1" height="80.5938" id="NodeModel" rx="2.5" ry="2.5" style="stroke:#181818;stroke-width:0.5;" width="204" x="30" y="494"/><ellipse cx="88.25" cy="510" fill="#ADD1B2" rx="11" ry="11" style="stroke:#181818;stroke-width:1.0;"/><path d="M91.2188,515.6406 Q90.6406,515.9375 90,516.0781 Q89.3594,516.2344 88.6563,516.2344 Q86.1563,516.2344 84.8281,514.5938 Q83.5156,512.9375 83.5156,509.8125 Q83.5156,506.6875 84.8281,505.0313 Q86.1563,503.375 88.6563,503.375 Q89.3594,503.375 90,503.5313 Q90.6563,503.6875 91.2188,503.9844 L91.2188,506.7031 Q90.5938,506.125 90,505.8594 Q89.4063,505.5781 88.7813,505.5781 Q87.4375,505.5781 86.75,506.6563 Q86.0625,507.7188 86.0625,509.8125 Q86.0625,511.9063 86.75,512.9844 Q87.4375,514.0469 88.7813,514.0469 Q89.4063,514.0469 90,513.7813 Q90.5938,513.5 91.2188,512.9219 L91.2188,515.6406 Z " fill="#000000"/><text fill="#000000" font-family="sans-serif" font-size="14" lengthAdjust="spacing" textLength="79" x="108.75" y="514.8467">NodeModel</text><line style="stroke:#181818;stroke-width:0.5;" x1="31" x2="233" y1="526" y2="526"/><line style="stroke:#181818;stroke-width:0.5;" x1="31" x2="233" y1="534" y2="534"/><ellipse cx="41" cy="547.6484" fill="#84BE84" rx="3" ry="3" style="stroke:#038048;stroke-width:1.0;"/><text fill="#000000" font-family="sans-serif" font-size="14" lengthAdjust="spacing" textLength="116" x="50" y="550.9951">getText() : String</text><ellipse cx="41" cy="563.9453" fill="#84BE84" rx="3" ry="3" style="stroke:#038048;stroke-width:1.0;"/><text fill="#000000" font-family="sans-serif" font-size="14" lengthAdjust="spacing" textLength="178" x="50" y="567.292">setText(text: String) : void</text></g><!--class NodeProxy--><g id="elem_NodeProxy"><rect codeLine="14" fill="#F1F1F1" height="96.8906" id="NodeProxy" rx="2.5" ry="2.5" style="stroke:#181818;stroke-width:0.5;" width="219" x="22.5" y="320"/><ellipse cx="90.75" cy="336" fill="#ADD1B2" rx="11" ry="11" style="stroke:#181818;stroke-width:1.0;"/><path d="M93.7188,341.6406 Q93.1406,341.9375 92.5,342.0781 Q91.8594,342.2344 91.1563,342.2344 Q88.6563,342.2344 87.3281,340.5938 Q86.0156,338.9375 86.0156,335.8125 Q86.0156,332.6875 87.3281,331.0313 Q88.6563,329.375 91.1563,329.375 Q91.8594,329.375 92.5,329.5313 Q93.1563,329.6875 93.7188,329.9844 L93.7188,332.7031 Q93.0938,332.125 92.5,331.8594 Q91.9063,331.5781 91.2813,331.5781 Q89.9375,331.5781 89.25,332.6563 Q88.5625,333.7188 88.5625,335.8125 Q88.5625,337.9063 89.25,338.9844 Q89.9375,340.0469 91.2813,340.0469 Q91.9063,340.0469 92.5,339.7813 Q93.0938,339.5 93.7188,338.9219 L93.7188,341.6406 Z " fill="#000000"/><text fill="#000000" font-family="sans-serif" font-size="14" lengthAdjust="spacing" textLength="74" x="111.25" y="340.8467">NodeProxy</text><line style="stroke:#181818;stroke-width:0.5;" x1="23.5" x2="240.5" y1="352" y2="352"/><rect fill="none" height="6" style="stroke:#C82930;stroke-width:1.0;" width="6" x="30.5" y="362.6484"/><text fill="#000000" font-family="sans-serif" font-size="14" lengthAdjust="spacing" textLength="153" x="42.5" y="368.9951">delegate : NodeModel</text><line style="stroke:#181818;stroke-width:0.5;" x1="23.5" x2="240.5" y1="376.2969" y2="376.2969"/><ellipse cx="33.5" cy="389.9453" fill="#84BE84" rx="3" ry="3" style="stroke:#038048;stroke-width:1.0;"/><text fill="#000000" font-family="sans-serif" font-size="14" lengthAdjust="spacing" textLength="116" x="42.5" y="393.292">getText() : String</text><ellipse cx="33.5" cy="406.2422" fill="#84BE84" rx="3" ry="3" style="stroke:#038048;stroke-width:1.0;"/><text fill="#000000" font-family="sans-serif" font-size="14" lengthAdjust="spacing" textLength="193" x="42.5" y="409.5889">setText(value: Object) : void</text></g><!--class GroovyScript--><g id="elem_GroovyScript"><rect codeLine="22" fill="#F1F1F1" height="72.5625" id="GroovyScript" rx="2.5" ry="2.5" style="stroke:#181818;stroke-width:0.5;" width="220" x="22" y="7"/><ellipse cx="37" cy="27.1328" fill="#ADD1B2" rx="11" ry="11" style="stroke:#181818;stroke-width:1.0;"/><path d="M39.9688,32.7734 Q39.3906,33.0703 38.75,33.2109 Q38.1094,33.3672 37.4063,33.3672 Q34.9063,33.3672 33.5781,31.7266 Q32.2656,30.0703 32.2656,26.9453 Q32.2656,23.8203 33.5781,22.1641 Q34.9063,20.5078 37.4063,20.5078 Q38.1094,20.5078 38.75,20.6641 Q39.4063,20.8203 39.9688,21.1172 L39.9688,23.8359 Q39.3438,23.2578 38.75,22.9922 Q38.1563,22.7109 37.5313,22.7109 Q36.1875,22.7109 35.5,23.7891 Q34.8125,24.8516 34.8125,26.9453 Q34.8125,29.0391 35.5,30.1172 Q36.1875,31.1797 37.5313,31.1797 Q38.1563,31.1797 38.75,30.9141 Q39.3438,30.6328 39.9688,30.0547 L39.9688,32.7734 Z " fill="#000000"/><text fill="#000000" font-family="sans-serif" font-size="12" font-style="italic" lengthAdjust="spacing" textLength="192" x="49" y="23.1387">&#171;Script user-defined, external&#187;</text><text fill="#000000" font-family="sans-serif" font-size="14" lengthAdjust="spacing" textLength="87" x="101.5" y="38.9639">GroovyScript</text><line style="stroke:#181818;stroke-width:0.5;" x1="23" x2="241" y1="47.2656" y2="47.2656"/><line style="stroke:#181818;stroke-width:0.5;" x1="23" x2="241" y1="55.2656" y2="55.2656"/><ellipse cx="33" cy="68.9141" fill="#84BE84" rx="3" ry="3" style="stroke:#038048;stroke-width:1.0;"/><text fill="#000000" font-family="sans-serif" font-size="14" lengthAdjust="spacing" textLength="116" x="42" y="72.2607">getText() : String</text></g><!--reverse link ProxyNode to NodeProxy--><g id="link_ProxyNode_NodeProxy"><path codeLine="26" d="M132,277.16 C132,295.83 132,300.24 132,319.82 " fill="none" id="ProxyNode-backto-NodeProxy" style="stroke:#181818;stroke-width:1.0;stroke-dasharray:7.0,7.0;"/><polygon fill="none" points="132,259.16,126,277.16,138,277.16,132,259.16" style="stroke:#181818;stroke-width:1.0;"/></g><!--link NodeProxy to NodeModel--><g id="link_NodeProxy_NodeModel"><path codeLine="27" d="M132,417.38 C132,441.67 132,464.84 132,487.86 " fill="none" id="NodeProxy-to-NodeModel" style="stroke:#181818;stroke-width:1.0;"/><polygon fill="#181818" points="132,493.86,136,484.86,132,488.86,128,484.86,132,493.86" style="stroke:#181818;stroke-width:1.0;"/><text fill="#000000" font-family="sans-serif" font-size="13" lengthAdjust="spacing" textLength="80" x="133" y="460.0669">delegates to</text></g><!--link GroovyScript to ProxyNode--><g id="link_GroovyScript_ProxyNode"><path codeLine="28" d="M132,80.35 C132,108.75 132,142.41 132,171.77 " fill="none" id="GroovyScript-to-ProxyNode" style="stroke:#181818;stroke-width:1.0;"/><polygon fill="#181818" points="132,177.77,136,168.77,132,172.77,128,168.77,132,177.77" style="stroke:#181818;stroke-width:1.0;"/><polygon fill="#000000" points="137,123.5664,139.9389,114.5213,134.0611,114.5213,137,123.5664" style="stroke:#000000;stroke-width:1.0;"/><text fill="#000000" font-family="sans-serif" font-size="13" lengthAdjust="spacing" textLength="105" x="146" y="123.0669">calls methods of</text></g><!--SRC=[jP5DQiCm48NtESLRjgJE0OpnCbtr1z8BADBOLQj8HfgOX2HtZsmSopNffb21n80-vhrv0m2DaD-Y9gmzKME49PmMc1njcNmb9E7TkyFnrQaviKHD_447VdX4ZWrxRUiP40QW5MPFETwsNoIverkdrSXU5cCfZGW1dTXBlERlYXoV6t9Fy9vaF-XCCaEqGRLWYar6N_-LmyrSylNidMkF6-brmoYAeTW7yfcYIbjIJuYToLjXod9YVlcBgI7ijDJYl5gbyVlF54QMbPDjv6CO0Unwz8U_ZawDSqXXJC2E-DEf05UXl080]--></g></svg>