<svg xmlns="http://www.w3.org/2000/svg" xmlns:xlink="http://www.w3.org/1999/xlink" contentStyleType="text/css" data-diagram-type="CLASS" height="275px" preserveAspectRatio="none" style="width:467px;height:275px;background:#FFFFFF;" version="1.1" viewBox="0 0 467 275" width="467px" zoomAndPan="magnify"><?plantuml 1.2026.5?><defs/><g><!--class MatchType--><g class="entity" data-qualified-name="MatchType" data-source-line="5" id="ent0001"><rect fill="#F1F1F1" height="113.1875" rx="2.5" ry="2.5" style="stroke:#181818;stroke-width:0.5;" width="111.9824" x="173.63" y="147.59"/><ellipse cx="189.9475" cy="163.59" fill="#EB937F" rx="11" ry="11" style="stroke:#181818;stroke-width:1;"/><path d="M194.0569,169.59 L186.3381,169.59 L186.3381,157.1994 L194.0569,157.1994 L194.0569,159.3556 L188.7912,159.3556 L188.7912,162.0275 L193.5569,162.0275 L193.5569,164.1838 L188.7912,164.1838 L188.7912,167.4338 L194.0569,167.4338 L194.0569,169.59 Z " fill="#000000"/><text fill="#000000" font-family="sans-serif" font-size="14" lengthAdjust="spacing" textLength="77.0547" x="204.2403" y="168.4367">MatchType</text><line style="stroke:#181818;stroke-width:0.5;" x1="174.63" x2="284.6124" y1="179.59" y2="179.59"/><text fill="#000000" font-family="sans-serif" font-size="14" lengthAdjust="spacing" textLength="46.3408" x="179.63" y="196.5851">EXACT</text><text fill="#000000" font-family="sans-serif" font-size="14" lengthAdjust="spacing" textLength="81.3545" x="179.63" y="212.882">SUBSTRING</text><text fill="#000000" font-family="sans-serif" font-size="14" lengthAdjust="spacing" textLength="99.9824" x="179.63" y="229.1789">APPROXIMATE</text><text fill="#000000" font-family="sans-serif" font-size="14" lengthAdjust="spacing" textLength="47.8584" x="179.63" y="245.4757">REGEX</text><line style="stroke:#181818;stroke-width:0.5;" x1="174.63" x2="284.6124" y1="252.7775" y2="252.7775"/></g><!--class FilterController--><g class="entity" data-qualified-name="FilterController" data-source-line="12" id="ent0002"><rect fill="#F1F1F1" height="80.5938" rx="2.5" ry="2.5" style="stroke:#181818;stroke-width:0.5;" width="445.248" x="7" y="7"/><ellipse cx="172.9424" cy="23" fill="#ADD1B2" rx="11" ry="11" style="stroke:#181818;stroke-width:1;"/><path d="M175.9111,28.6406 Q175.333,28.9375 174.6924,29.0781 Q174.0518,29.2344 173.3486,29.2344 Q170.8486,29.2344 169.5205,27.5938 Q168.208,25.9375 168.208,22.8125 Q168.208,19.6875 169.5205,18.0313 Q170.8486,16.375 173.3486,16.375 Q174.0518,16.375 174.6924,16.5313 Q175.3486,16.6875 175.9111,16.9844 L175.9111,19.7031 Q175.2861,19.125 174.6924,18.8594 Q174.0986,18.5781 173.4736,18.5781 Q172.1299,18.5781 171.4424,19.6563 Q170.7549,20.7188 170.7549,22.8125 Q170.7549,24.9063 171.4424,25.9844 Q172.1299,27.0469 173.4736,27.0469 Q174.0986,27.0469 174.6924,26.7813 Q175.2861,26.5 175.9111,25.9219 L175.9111,28.6406 Z " fill="#000000"/><text fill="#000000" font-family="sans-serif" font-size="14" lengthAdjust="spacing" textLength="104.8633" x="193.4424" y="27.8467">FilterController</text><line style="stroke:#181818;stroke-width:0.5;" x1="8" x2="451.248" y1="39" y2="39"/><text fill="#000000" font-family="sans-serif" font-size="14" lengthAdjust="spacing" textLength="174.3369" x="13" y="55.9951">-matchType : MatchType</text><line style="stroke:#181818;stroke-width:0.5;" x1="8" x2="451.248" y1="63.2969" y2="63.2969"/><text fill="#000000" font-family="sans-serif" font-size="14" lengthAdjust="spacing" textLength="433.248" x="13" y="80.292">+matches(searchTerm : String, searchText : String) : boolean</text></g><!--link FilterController to MatchType--><g class="link" data-entity-1="ent0002" data-entity-2="ent0001" data-link-type="dependency" data-source-line="17" id="lnk3"><path codeLine="17" d="M229.62,87.7 C229.62,105.86 229.62,122.6 229.62,142.36" fill="none" id="FilterController-to-MatchType" style="stroke:#181818;stroke-width:1;"/><polygon fill="#181818" points="229.62,147.36,233.62,138.36,229.62,142.36,225.62,138.36,229.62,147.36" style="stroke:#181818;stroke-width:1;stroke-linejoin:miter;stroke-miterlimit:10;"/><text fill="#000000" font-family="sans-serif" font-size="13" lengthAdjust="spacing" textLength="29.7832" x="199.62" y="113.5969">uses</text></g><?plantuml-src PK_B2i8m4BpdA_QeQC6p1w5AbHxKqbReDTRL1jEaPBVumdytAbR1qyxE33ixT5IcaKxMK6f9538xjMqPuzAQJ5qHHe8w2rLoPq_A760lDU6FefL1lZG8rd5bXK3Jrh2KN5Rvaxq9WAW8PxcVsMQQvMcyMdWS9acwBk9bc4T-IwD5L8Yx4AzNOAuqevjPmyvgZUvr9O2wkph-9dXby5QGUeJIUHfTxIsPBsGEG_YGP-x8laTRQpLAyqpzomk2oK-7CRI4z000?></g></svg>