<?xml version="1.0" encoding="us-ascii" standalone="no"?><svg xmlns="http://www.w3.org/2000/svg" xmlns:xlink="http://www.w3.org/1999/xlink" contentStyleType="text/css" height="363px" preserveAspectRatio="none" style="width:1093px;height:363px;background:#FFFFFF;" version="1.1" viewBox="0 0 1093 363" width="1093px" zoomAndPan="magnify"><defs/><g><text fill="#000000" font-family="sans-serif" font-size="14" font-weight="bold" lengthAdjust="spacing" textLength="337" x="371" y="22.9951">Strategy Pattern: text matching algorithms</text><!--class StringMatchingStrategy--><g id="elem_StringMatchingStrategy"><rect codeLine="7" fill="#F1F1F1" height="64.2969" id="StringMatchingStrategy" rx="2.5" ry="2.5" style="stroke:#181818;stroke-width:0.5;" width="522" x="285" y="168.2969"/><ellipse cx="461.25" cy="184.2969" fill="#B4A7E5" rx="11" ry="11" style="stroke:#181818;stroke-width:1.0;"/><path d="M457.1719,180.0625 L457.1719,177.9063 L464.5625,177.9063 L464.5625,180.0625 L462.0938,180.0625 L462.0938,188.1406 L464.5625,188.1406 L464.5625,190.2969 L457.1719,190.2969 L457.1719,188.1406 L459.6406,188.1406 L459.6406,180.0625 L457.1719,180.0625 Z " fill="#000000"/><text fill="#000000" font-family="sans-serif" font-size="14" font-style="italic" lengthAdjust="spacing" textLength="161" x="481.75" y="189.1436">StringMatchingStrategy</text><line style="stroke:#181818;stroke-width:0.5;" x1="286" x2="806" y1="200.2969" y2="200.2969"/><line style="stroke:#181818;stroke-width:0.5;" x1="286" x2="806" y1="208.2969" y2="208.2969"/><text fill="#000000" font-family="sans-serif" font-size="14" lengthAdjust="spacing" textLength="510" x="291" y="225.292">+matches(searchTerm : String, searchText : String, matchType) : boolean</text></g><!--class ExactStringMatchingStrategy--><g id="elem_ExactStringMatchingStrategy"><rect codeLine="11" fill="#F1F1F1" height="64.2969" id="ExactStringMatchingStrategy" rx="2.5" ry="2.5" style="stroke:#181818;stroke-width:0.5;" width="522" x="7" y="292.2969"/><ellipse cx="165.25" cy="308.2969" fill="#ADD1B2" rx="11" ry="11" style="stroke:#181818;stroke-width:1.0;"/><path d="M168.2188,313.9375 Q167.6406,314.2344 167,314.375 Q166.3594,314.5313 165.6563,314.5313 Q163.1563,314.5313 161.8281,312.8906 Q160.5156,311.2344 160.5156,308.1094 Q160.5156,304.9844 161.8281,303.3281 Q163.1563,301.6719 165.6563,301.6719 Q166.3594,301.6719 167,301.8281 Q167.6563,301.9844 168.2188,302.2813 L168.2188,305 Q167.5938,304.4219 167,304.1563 Q166.4063,303.875 165.7813,303.875 Q164.4375,303.875 163.75,304.9531 Q163.0625,306.0156 163.0625,308.1094 Q163.0625,310.2031 163.75,311.2813 Q164.4375,312.3438 165.7813,312.3438 Q166.4063,312.3438 167,312.0781 Q167.5938,311.7969 168.2188,311.2188 L168.2188,313.9375 Z " fill="#000000"/><text fill="#000000" font-family="sans-serif" font-size="14" lengthAdjust="spacing" textLength="197" x="185.75" y="313.1436">ExactStringMatchingStrategy</text><line style="stroke:#181818;stroke-width:0.5;" x1="8" x2="528" y1="324.2969" y2="324.2969"/><line style="stroke:#181818;stroke-width:0.5;" x1="8" x2="528" y1="332.2969" y2="332.2969"/><text fill="#000000" font-family="sans-serif" font-size="14" lengthAdjust="spacing" textLength="510" x="13" y="349.292">+matches(searchTerm : String, searchText : String, matchType) : boolean</text></g><!--class PseudoDamerauLevenshtein--><g id="elem_PseudoDamerauLevenshtein"><rect codeLine="15" fill="#F1F1F1" height="64.2969" id="PseudoDamerauLevenshtein" rx="2.5" ry="2.5" style="stroke:#181818;stroke-width:0.5;" width="522" x="564" y="292.2969"/><ellipse cx="720.75" cy="308.2969" fill="#ADD1B2" rx="11" ry="11" style="stroke:#181818;stroke-width:1.0;"/><path d="M723.7188,313.9375 Q723.1406,314.2344 722.5,314.375 Q721.8594,314.5313 721.1563,314.5313 Q718.6563,314.5313 717.3281,312.8906 Q716.0156,311.2344 716.0156,308.1094 Q716.0156,304.9844 717.3281,303.3281 Q718.6563,301.6719 721.1563,301.6719 Q721.8594,301.6719 722.5,301.8281 Q723.1563,301.9844 723.7188,302.2813 L723.7188,305 Q723.0938,304.4219 722.5,304.1563 Q721.9063,303.875 721.2813,303.875 Q719.9375,303.875 719.25,304.9531 Q718.5625,306.0156 718.5625,308.1094 Q718.5625,310.2031 719.25,311.2813 Q719.9375,312.3438 721.2813,312.3438 Q721.9063,312.3438 722.5,312.0781 Q723.0938,311.7969 723.7188,311.2188 L723.7188,313.9375 Z " fill="#000000"/><text fill="#000000" font-family="sans-serif" font-size="14" lengthAdjust="spacing" textLength="200" x="741.25" y="313.1436">PseudoDamerauLevenshtein</text><line style="stroke:#181818;stroke-width:0.5;" x1="565" x2="1085" y1="324.2969" y2="324.2969"/><line style="stroke:#181818;stroke-width:0.5;" x1="565" x2="1085" y1="332.2969" y2="332.2969"/><text fill="#000000" font-family="sans-serif" font-size="14" lengthAdjust="spacing" textLength="510" x="570" y="349.292">+matches(searchTerm : String, searchText : String, matchType) : boolean</text></g><!--class FilterController--><g id="elem_FilterController"><rect codeLine="19" fill="#F1F1F1" height="64.2969" id="FilterController" rx="2.5" ry="2.5" style="stroke:#181818;stroke-width:0.5;" width="246" x="423" y="44.2969"/><ellipse cx="491.75" cy="60.2969" fill="#ADD1B2" rx="11" ry="11" style="stroke:#181818;stroke-width:1.0;"/><path d="M494.7188,65.9375 Q494.1406,66.2344 493.5,66.375 Q492.8594,66.5313 492.1563,66.5313 Q489.6563,66.5313 488.3281,64.8906 Q487.0156,63.2344 487.0156,60.1094 Q487.0156,56.9844 488.3281,55.3281 Q489.6563,53.6719 492.1563,53.6719 Q492.8594,53.6719 493.5,53.8281 Q494.1563,53.9844 494.7188,54.2813 L494.7188,57 Q494.0938,56.4219 493.5,56.1563 Q492.9063,55.875 492.2813,55.875 Q490.9375,55.875 490.25,56.9531 Q489.5625,58.0156 489.5625,60.1094 Q489.5625,62.2031 490.25,63.2813 Q490.9375,64.3438 492.2813,64.3438 Q492.9063,64.3438 493.5,64.0781 Q494.0938,63.7969 494.7188,63.2188 L494.7188,65.9375 Z " fill="#000000"/><text fill="#000000" font-family="sans-serif" font-size="14" lengthAdjust="spacing" textLength="100" x="512.25" y="65.1436">FilterController</text><line style="stroke:#181818;stroke-width:0.5;" x1="424" x2="668" y1="76.2969" y2="76.2969"/><text fill="#000000" font-family="sans-serif" font-size="14" lengthAdjust="spacing" textLength="234" x="429" y="93.292">-strategy : StringMatchingStrategy</text><line style="stroke:#181818;stroke-width:0.5;" x1="424" x2="668" y1="100.5938" y2="100.5938"/></g><!--reverse link StringMatchingStrategy to ExactStringMatchingStrategy--><g id="link_StringMatchingStrategy_ExactStringMatchingStrategy"><path codeLine="23" d="M407,250.5569 C407,268.9269 407,273.8569 407,292.2069 " fill="none" id="StringMatchingStrategy-backto-ExactStringMatchingStrategy" style="stroke:#181818;stroke-width:1.0;stroke-dasharray:7.0,7.0;"/><polygon fill="none" points="407,232.5569,401,250.5569,413,250.5569,407,232.5569" style="stroke:#181818;stroke-width:1.0;"/></g><!--reverse link StringMatchingStrategy to PseudoDamerauLevenshtein--><g id="link_StringMatchingStrategy_PseudoDamerauLevenshtein"><path codeLine="24" d="M685.5,250.5569 C685.5,268.9269 685.5,273.8569 685.5,292.2069 " fill="none" id="StringMatchingStrategy-backto-PseudoDamerauLevenshtein" style="stroke:#181818;stroke-width:1.0;stroke-dasharray:7.0,7.0;"/><polygon fill="none" points="685.5,232.5569,679.5,250.5569,691.5,250.5569,685.5,232.5569" style="stroke:#181818;stroke-width:1.0;"/></g><!--reverse link FilterController to StringMatchingStrategy--><g id="link_FilterController_StringMatchingStrategy"><path codeLine="25" d="M546,120.5569 C546,138.9269 546,149.8569 546,168.2069 " fill="none" id="FilterController-backto-StringMatchingStrategy" style="stroke:#181818;stroke-width:1.0;"/><polygon fill="none" points="546,108.5569,542,114.5569,546,120.5569,550,114.5569,546,108.5569" style="stroke:#181818;stroke-width:1.0;"/><text fill="#000000" font-family="sans-serif" font-size="13" lengthAdjust="spacing" textLength="30" x="515" y="134.4438">uses</text></g><!--SRC=[lPBDJWCn38JlUGeVGR1LpoikY1y9YKgLsXTmKtSJaOqhsmijF-zEkhHG2MrlS9ra_8r7jcY9O6Q2HiqMfcX6acimsXYqQ3x4t02cXYLQQDKvVOfvZO8j-8IgrsOI5vtHW-SyYwy4uwCl6d39BxiHAqnAHoyfPhBjce350ZiNSm6lqFTXYc6oPtz7UtC05r-HIC-KK7oOaxHGxnsNS11Bz1-nTymBwRo82-P4cDs7StrwkDkWjtybJfMw9TzYIuBT8prJrc0Kyn_XxcCgnTvmDk6KI7fC1NfOiXxeUpTXe9Uhzz7eL74dVKFhkrz1kQg6Rg66JadT9m00]--></g></svg>