<?xml version="1.0" encoding="us-ascii" standalone="no"?><svg xmlns="http://www.w3.org/2000/svg" xmlns:xlink="http://www.w3.org/1999/xlink" contentStyleType="text/css" height="546px" preserveAspectRatio="none" style="width:743px;height:546px;background:#FFFFFF;" version="1.1" viewBox="0 0 743 546" width="743px" zoomAndPan="magnify"><defs/><g><text fill="#000000" font-family="sans-serif" font-size="14" font-weight="bold" lengthAdjust="spacing" textLength="306" x="211.75" y="22.9951">Esempio di Diagramma dei Componenti</text><!--cluster Client Side--><g id="cluster_Client Side"><path d="M8.5,43.2969 L93.5,43.2969 A3.75,3.75 0 0 1 96,45.7969 L103,65.5938 L167.5,65.5938 A2.5,2.5 0 0 1 170,68.0938 L170,156.7969 A2.5,2.5 0 0 1 167.5,159.2969 L8.5,159.2969 A2.5,2.5 0 0 1 6,156.7969 L6,45.7969 A2.5,2.5 0 0 1 8.5,43.2969 " fill="none" style="stroke:#000000;stroke-width:1.5;"/><line style="stroke:#000000;stroke-width:1.5;" x1="6" x2="103" y1="65.5938" y2="65.5938"/><text fill="#000000" font-family="sans-serif" font-size="14" font-weight="bold" lengthAdjust="spacing" textLength="84" x="10" y="58.292">Client Side</text></g><!--cluster Server Side--><g id="cluster_Server Side"><polygon fill="none" points="63,218.2969,73,208.2969,585,208.2969,585,324.2969,575,334.2969,63,334.2969,63,218.2969" style="stroke:#181818;stroke-width:1.0;"/><line style="stroke:#181818;stroke-width:1.0;" x1="575" x2="585" y1="218.2969" y2="208.2969"/><line style="stroke:#181818;stroke-width:1.0;" x1="63" x2="575" y1="218.2969" y2="218.2969"/><line style="stroke:#181818;stroke-width:1.0;" x1="575" x2="575" y1="218.2969" y2="334.2969"/><text fill="#000000" font-family="sans-serif" font-size="14" font-weight="bold" lengthAdjust="spacing" textLength="92" x="274" y="234.292">Server Side</text></g><!--cluster Data Tier--><g id="cluster_Data Tier"><path d="M305,393.2969 C305,383.2969 409,383.2969 409,383.2969 C409,383.2969 513,383.2969 513,393.2969 L513,519.2969 C513,529.2969 409,529.2969 409,529.2969 C409,529.2969 305,529.2969 305,519.2969 L305,393.2969 " fill="none" style="stroke:#181818;stroke-width:1.0;"/><path d="M305,393.2969 C305,403.2969 409,403.2969 409,403.2969 C409,403.2969 513,403.2969 513,393.2969 " fill="none" style="stroke:#181818;stroke-width:1.0;"/><text fill="#000000" font-family="sans-serif" font-size="14" font-weight="bold" lengthAdjust="spacing" textLength="71" x="373.5" y="418.292">Data Tier</text></g><!--entity Client--><g id="elem_Client"><rect fill="#F1F1F1" height="46.2969" rx="2.5" ry="2.5" style="stroke:#181818;stroke-width:0.5;" width="132" x="22" y="97.2969"/><rect fill="#F1F1F1" height="10" style="stroke:#181818;stroke-width:0.5;" width="15" x="134" y="102.2969"/><rect fill="#F1F1F1" height="2" style="stroke:#181818;stroke-width:0.5;" width="4" x="132" y="104.2969"/><rect fill="#F1F1F1" height="2" style="stroke:#181818;stroke-width:0.5;" width="4" x="132" y="108.2969"/><text fill="#000000" font-family="sans-serif" font-size="14" lengthAdjust="spacing" textLength="92" x="37" y="130.292">Browser Web</text></g><!--entity Auth--><g id="elem_Auth"><rect fill="#F1F1F1" height="46.2969" rx="2.5" ry="2.5" style="stroke:#181818;stroke-width:0.5;" width="203" x="197.5" y="272.2969"/><rect fill="#F1F1F1" height="10" style="stroke:#181818;stroke-width:0.5;" width="15" x="380.5" y="277.2969"/><rect fill="#F1F1F1" height="2" style="stroke:#181818;stroke-width:0.5;" width="4" x="378.5" y="279.2969"/><rect fill="#F1F1F1" height="2" style="stroke:#181818;stroke-width:0.5;" width="4" x="378.5" y="283.2969"/><text fill="#000000" font-family="sans-serif" font-size="14" lengthAdjust="spacing" textLength="163" x="212.5" y="305.292">Gestore Autenticazione</text></g><!--entity Ordini--><g id="elem_Ordini"><rect fill="#F1F1F1" height="46.2969" rx="2.5" ry="2.5" style="stroke:#181818;stroke-width:0.5;" width="133" x="435.5" y="272.2969"/><rect fill="#F1F1F1" height="10" style="stroke:#181818;stroke-width:0.5;" width="15" x="548.5" y="277.2969"/><rect fill="#F1F1F1" height="2" style="stroke:#181818;stroke-width:0.5;" width="4" x="546.5" y="279.2969"/><rect fill="#F1F1F1" height="2" style="stroke:#181818;stroke-width:0.5;" width="4" x="546.5" y="283.2969"/><text fill="#000000" font-family="sans-serif" font-size="14" lengthAdjust="spacing" textLength="93" x="450.5" y="305.292">Motore Ordini</text></g><!--entity API--><g id="elem_API"><ellipse cx="88" cy="295.2969" fill="#F1F1F1" rx="8" ry="8" style="stroke:#181818;stroke-width:0.5;"/><text fill="#000000" font-family="sans-serif" font-size="14" lengthAdjust="spacing" textLength="62" x="57" y="325.292">API REST</text></g><!--entity DB--><g id="elem_DB"><rect fill="#F1F1F1" height="46.2969" rx="2.5" ry="2.5" style="stroke:#181818;stroke-width:0.5;" width="176" x="321" y="467.2969"/><rect fill="#F1F1F1" height="10" style="stroke:#181818;stroke-width:0.5;" width="15" x="477" y="472.2969"/><rect fill="#F1F1F1" height="2" style="stroke:#181818;stroke-width:0.5;" width="4" x="475" y="474.2969"/><rect fill="#F1F1F1" height="2" style="stroke:#181818;stroke-width:0.5;" width="4" x="475" y="478.2969"/><text fill="#000000" font-family="sans-serif" font-size="14" lengthAdjust="spacing" textLength="136" x="336" y="500.292">Database Principale</text></g><g id="elem_GMN15"><path d="M603.5,282.7969 L603.5,307.9297 L736.5,307.9297 L736.5,292.7969 L726.5,282.7969 L603.5,282.7969 " fill="#FEFFDD" style="stroke:#181818;stroke-width:0.5;"/><path d="M726.5,282.7969 L726.5,292.7969 L736.5,292.7969 L726.5,282.7969 " fill="#FEFFDD" style="stroke:#181818;stroke-width:1.0;"/><text fill="#000000" font-family="sans-serif" font-size="13" lengthAdjust="spacing" textLength="112" x="609.5" y="299.8638">Verifica token JWT</text></g><!--link Client to API--><g id="link_Client_API"><path d="M88,143.5569 C88,182.4369 88,254.9669 88,280.2569 " fill="none" id="Client-to-API" style="stroke:#181818;stroke-width:1.0;stroke-dasharray:7.0,7.0;"/><polygon fill="#181818" points="88,286.2569,92,277.2569,88,281.2569,84,277.2569,88,286.2569" style="stroke:#181818;stroke-width:1.0;"/><text fill="#000000" font-family="sans-serif" font-size="13" lengthAdjust="spacing" textLength="93" x="89" y="188.3638">Richieste HTTP</text></g><!--link API to Auth--><g id="link_API_Auth"><path d="M97.07,295.2969 C114.93,295.2969 156.51,295.2969 197.32,295.2969 " fill="none" id="API-Auth" style="stroke:#181818;stroke-width:1.0;"/><text fill="#000000" font-family="sans-serif" font-size="13" lengthAdjust="spacing" textLength="64" x="115.25" y="288.3638">Fornita da</text></g><!--link API to Ordini--><g id="link_API_Ordini"><path d="M93.42,286.0069 C105.75,265.9469 138.11,218.9169 180,201.2969 C228.75,180.7969 369.72,179.6969 418,201.2969 C450.16,215.6869 475.1,249.1569 489.17,272.0169 " fill="none" id="API-Ordini" style="stroke:#181818;stroke-width:1.0;"/><text fill="#000000" font-family="sans-serif" font-size="13" lengthAdjust="spacing" textLength="64" x="280" y="188.3638">Fornita da</text></g><!--link Auth to DB--><g id="link_Auth_DB"><path d="M311.62,318.4369 C332.78,355.5669 372.2083,424.7545 393.3883,461.9045 " fill="none" id="Auth-to-DB" style="stroke:#181818;stroke-width:1.0;"/><polygon fill="#181818" points="396.36,467.1169,395.3774,457.3172,393.8836,462.7732,388.4275,461.2794,396.36,467.1169" style="stroke:#181818;stroke-width:1.0;"/><text fill="#000000" font-family="sans-serif" font-size="13" lengthAdjust="spacing" textLength="82" x="338" y="363.3638">Legge/Scrive</text></g><!--link Ordini to DB--><g id="link_Ordini_DB"><path d="M491.33,318.4369 C473.44,355.5669 440.1944,424.5616 422.2944,461.7116 " fill="none" id="Ordini-to-DB" style="stroke:#181818;stroke-width:1.0;"/><polygon fill="#181818" points="419.69,467.1169,427.2002,460.7452,421.8604,462.6125,419.9931,457.2727,419.69,467.1169" style="stroke:#181818;stroke-width:1.0;"/><text fill="#000000" font-family="sans-serif" font-size="13" lengthAdjust="spacing" textLength="82" x="475" y="363.3638">Legge/Scrive</text></g><!--link Auth to GMN15--><g id="link_Auth_GMN15"><path d="M318.27,271.9169 C342.39,244.7069 386.5,201.2669 435.5,183.7969 C490.76,164.0969 512.97,162.1469 567.5,183.7969 C615.15,202.7169 649.68,257.5069 663.43,282.5469 " fill="none" id="Auth-GMN15" style="stroke:#181818;stroke-width:1.0;stroke-dasharray:7.0,7.0;"/></g><!--SRC=[RP3DJiCm48JlVefHBi2XvSwXKjiKA08HDH4ze1xSU9kicjYHOue4ujtP_5Ie4ZThPdRdymOE5M7LKjsmWs74h0klwrh346FfwiPPie6LQdH-r0KXMbOi2b8s5E5R0UyBxpvRyjZIVWVTOaYe7wMiCpAHaZ-9_JUHd_SYUg0sE4-OVuIk9zTVB4xKhH6fl0o_k3xxwWrRxZF3KrBNDuZcoHgRLPeDqycw8p0wwBrkXIAM5p8cFrB7PoVnR7DkT4KzVRpevgwmeQg7OJN-U3gTTLjnXmtd9GiuuJ7B4jM9anvNl7ldBKkJqQC-85uwgWzF9ZDf4-UPYe9kqzppYTIO_z-KYqghvw8CS8TpvnjvFiZj4DoHB9wscVe5]--></g></svg>