<?xml version="1.0" encoding="us-ascii" standalone="no"?><svg xmlns="http://www.w3.org/2000/svg" xmlns:xlink="http://www.w3.org/1999/xlink" contentStyleType="text/css" height="593px" preserveAspectRatio="none" style="width:1434px;height:593px;background:#FFFFFF;" version="1.1" viewBox="0 0 1434 593" width="1434px" zoomAndPan="magnify"><defs/><g><text fill="#000000" font-family="Helvetica" font-size="14" font-weight="bold" lengthAdjust="spacing" textLength="419" x="500.5" y="22.9951">Freeplane Clean Architecture Violations - Case Study</text><!--cluster UILayer--><g id="cluster_UILayer"><path d="M10,85.0869 L190,85.0869 A6,6 0 0 1 194,89.0869 L201,107.3837 L1133,107.3837 A4,4 0 0 1 1137,111.3837 L1137,311.0869 A4,4 0 0 1 1133,315.0869 L10,315.0869 A4,4 0 0 1 6,311.0869 L6,89.0869 A4,4 0 0 1 10,85.0869 " fill="#E8F4F8" style="stroke:#000000;stroke-width:1.5;"/><line style="stroke:#000000;stroke-width:1.5;" x1="6" x2="201" y1="107.3837" y2="107.3837"/><text fill="#000000" font-family="Helvetica" font-size="14" font-weight="bold" lengthAdjust="spacing" textLength="182" x="10" y="100.082">Presentation Layer (UI)</text></g><!--cluster UIFeatures--><g id="cluster_UIFeatures"><path d="M471,144.0869 L559,144.0869 A6,6 0 0 1 563,148.0869 L570,166.3837 L1093,166.3837 A4,4 0 0 1 1097,170.3837 L1097,271.0869 A4,4 0 0 1 1093,275.0869 L471,275.0869 A4,4 0 0 1 467,271.0869 L467,148.0869 A4,4 0 0 1 471,144.0869 " fill="#FFFFFF" style="stroke:#000000;stroke-width:1.5;"/><line style="stroke:#000000;stroke-width:1.5;" x1="467" x2="570" y1="166.3837" y2="166.3837"/><text fill="#000000" font-family="Helvetica" font-size="14" font-weight="bold" lengthAdjust="spacing" textLength="90" x="471" y="159.082">UI Features</text><text fill="#000000" font-family="Helvetica" font-size="14" font-style="italic" lengthAdjust="spacing" textLength="186" x="693" y="181.3789">&#171;org.freeplane.features.ui&#187;</text></g><!--cluster LogicLayer--><g id="cluster_LogicLayer"><path d="M231,380.0869 L395,380.0869 A6,6 0 0 1 399,384.0869 L406,402.3837 L779,402.3837 A4,4 0 0 1 783,406.3837 L783,582.0869 A4,4 0 0 1 779,586.0869 L231,586.0869 A4,4 0 0 1 227,582.0869 L227,384.0869 A4,4 0 0 1 231,380.0869 " fill="#EAF8E8" style="stroke:#000000;stroke-width:1.5;"/><line style="stroke:#000000;stroke-width:1.5;" x1="227" x2="406" y1="402.3837" y2="402.3837"/><text fill="#000000" font-family="Helvetica" font-size="14" font-weight="bold" lengthAdjust="spacing" textLength="166" x="231" y="395.082">Domain Layer (Logic)</text></g><!--cluster NodeLogic--><g id="cluster_NodeLogic"><path d="M523,431.0869 L705,431.0869 A6,6 0 0 1 709,435.0869 L716,453.3837 L747,453.3837 A4,4 0 0 1 751,457.3837 L751,550.0869 A4,4 0 0 1 747,554.0869 L523,554.0869 A4,4 0 0 1 519,550.0869 L519,435.0869 A4,4 0 0 1 523,431.0869 " fill="#FFFFFF" style="stroke:#000000;stroke-width:1.5;"/><line style="stroke:#000000;stroke-width:1.5;" x1="519" x2="716" y1="453.3837" y2="453.3837"/><text fill="#000000" font-family="Helvetica" font-size="14" font-weight="bold" lengthAdjust="spacing" textLength="184" x="523" y="446.082">NodeManagementLogic</text><text fill="#000000" font-family="Helvetica" font-size="14" font-style="italic" lengthAdjust="spacing" textLength="210" x="534" y="468.3789">&#171;org.freeplane.features.node&#187;</text></g><!--cluster MM--><g id="cluster_MM"><path d="M271,435.0869 L386,435.0869 A6,6 0 0 1 390,439.0869 L397,457.3837 L491,457.3837 A4,4 0 0 1 495,461.3837 L495,546.0869 A4,4 0 0 1 491,550.0869 L271,550.0869 A4,4 0 0 1 267,546.0869 L267,439.0869 A4,4 0 0 1 271,435.0869 " fill="#FFFFFF" style="stroke:#000000;stroke-width:1.5;"/><line style="stroke:#000000;stroke-width:1.5;" x1="267" x2="397" y1="457.3837" y2="457.3837"/><text fill="#000000" font-family="Helvetica" font-size="14" font-weight="bold" lengthAdjust="spacing" textLength="117" x="271" y="450.082">MindMap Mode</text><text fill="#000000" font-family="Helvetica" font-size="14" font-style="italic" lengthAdjust="spacing" textLength="212" x="279" y="472.3789">&#171;org.freeplane.map.mindmap&#187;</text></g><!--class JavaColor--><g id="elem_JavaColor"><rect codeLine="26" fill="#FFF0F0" height="48" id="JavaColor" rx="4" ry="4" style="stroke:#444444;stroke-width:0.5;" width="126" x="314" y="203.0869"/><ellipse cx="329" cy="219.0869" fill="#ADD1B2" rx="11" ry="11" style="stroke:#181818;stroke-width:1.0;"/><path d="M331.9688,224.7275 Q331.3906,225.0244 330.75,225.165 Q330.1094,225.3212 329.4063,225.3212 Q326.9063,225.3212 325.5781,223.6806 Q324.2656,222.0244 324.2656,218.8994 Q324.2656,215.7744 325.5781,214.1181 Q326.9063,212.4619 329.4063,212.4619 Q330.1094,212.4619 330.75,212.6181 Q331.4063,212.7744 331.9688,213.0712 L331.9688,215.79 Q331.3438,215.2119 330.75,214.9462 Q330.1563,214.665 329.5313,214.665 Q328.1875,214.665 327.5,215.7431 Q326.8125,216.8056 326.8125,218.8994 Q326.8125,220.9931 327.5,222.0712 Q328.1875,223.1337 329.5313,223.1337 Q330.1563,223.1337 330.75,222.8681 Q331.3438,222.5869 331.9688,222.0087 L331.9688,224.7275 Z " fill="#000000"/><text fill="#000000" font-family="Helvetica" font-size="14" lengthAdjust="spacing" textLength="94" x="343" y="223.9336">java.awt.Color</text><line style="stroke:#444444;stroke-width:0.5;" x1="315" x2="439" y1="235.0869" y2="235.0869"/><line style="stroke:#444444;stroke-width:0.5;" x1="315" x2="439" y1="243.0869" y2="243.0869"/></g><!--class GraphicEnvironment--><g id="elem_GraphicEnvironment"><rect codeLine="27" fill="#FFF0F0" height="48" id="GraphicEnvironment" rx="4" ry="4" style="stroke:#444444;stroke-width:0.5;" width="230" x="49" y="203.0869"/><ellipse cx="64" cy="219.0869" fill="#ADD1B2" rx="11" ry="11" style="stroke:#181818;stroke-width:1.0;"/><path d="M66.9688,224.7275 Q66.3906,225.0244 65.75,225.165 Q65.1094,225.3212 64.4063,225.3212 Q61.9063,225.3212 60.5781,223.6806 Q59.2656,222.0244 59.2656,218.8994 Q59.2656,215.7744 60.5781,214.1181 Q61.9063,212.4619 64.4063,212.4619 Q65.1094,212.4619 65.75,212.6181 Q66.4063,212.7744 66.9688,213.0712 L66.9688,215.79 Q66.3438,215.2119 65.75,214.9462 Q65.1563,214.665 64.5313,214.665 Q63.1875,214.665 62.5,215.7431 Q61.8125,216.8056 61.8125,218.8994 Q61.8125,220.9931 62.5,222.0712 Q63.1875,223.1337 64.5313,223.1337 Q65.1563,223.1337 65.75,222.8681 Q66.3438,222.5869 66.9688,222.0087 L66.9688,224.7275 Z " fill="#000000"/><text fill="#000000" font-family="Helvetica" font-size="14" lengthAdjust="spacing" textLength="198" x="78" y="223.9336">java.awt.GraphicEnvironment</text><line style="stroke:#444444;stroke-width:0.5;" x1="50" x2="278" y1="235.0869" y2="235.0869"/><line style="stroke:#444444;stroke-width:0.5;" x1="50" x2="278" y1="243.0869" y2="243.0869"/></g><!--class IMapViewChangeListener--><g id="elem_IMapViewChangeListener"><rect codeLine="32" fill="#FFFFFF" height="48" id="IMapViewChangeListener" rx="4" ry="4" style="stroke:#444444;stroke-width:0.5;" width="205" x="676.5" y="203.0869"/><rect fill="#F4F6F7" height="32" rx="4" ry="4" style="stroke:#F4F6F7;stroke-width:0.5;" width="205" x="676.5" y="203.0869"/><rect fill="#F4F6F7" height="4" style="stroke:#F4F6F7;stroke-width:0.5;" width="205" x="676.5" y="231.0869"/><rect codeLine="32" fill="none" height="48" id="IMapViewChangeListener" rx="4" ry="4" style="stroke:#444444;stroke-width:0.5;" width="205" x="676.5" y="203.0869"/><ellipse cx="691.5" cy="219.0869" fill="#ADD1B2" rx="11" ry="11" style="stroke:#181818;stroke-width:1.0;"/><path d="M694.4688,224.7275 Q693.8906,225.0244 693.25,225.165 Q692.6094,225.3212 691.9063,225.3212 Q689.4063,225.3212 688.0781,223.6806 Q686.7656,222.0244 686.7656,218.8994 Q686.7656,215.7744 688.0781,214.1181 Q689.4063,212.4619 691.9063,212.4619 Q692.6094,212.4619 693.25,212.6181 Q693.9063,212.7744 694.4688,213.0712 L694.4688,215.79 Q693.8438,215.2119 693.25,214.9462 Q692.6563,214.665 692.0313,214.665 Q690.6875,214.665 690,215.7431 Q689.3125,216.8056 689.3125,218.8994 Q689.3125,220.9931 690,222.0712 Q690.6875,223.1337 692.0313,223.1337 Q692.6563,223.1337 693.25,222.8681 Q693.8438,222.5869 694.4688,222.0087 L694.4688,224.7275 Z " fill="#000000"/><text fill="#000000" font-family="Helvetica" font-size="14" lengthAdjust="spacing" textLength="173" x="705.5" y="223.9336">IMapViewChangeListener</text><line style="stroke:#444444;stroke-width:0.5;" x1="677.5" x2="880.5" y1="235.0869" y2="235.0869"/><line style="stroke:#444444;stroke-width:0.5;" x1="677.5" x2="880.5" y1="243.0869" y2="243.0869"/></g><!--class IMapViewManager--><g id="elem_IMapViewManager"><rect codeLine="34" fill="#FFFFFF" height="48" id="IMapViewManager" rx="4" ry="4" style="stroke:#444444;stroke-width:0.5;" width="156" x="917" y="203.0869"/><rect fill="#F4F6F7" height="32" rx="4" ry="4" style="stroke:#F4F6F7;stroke-width:0.5;" width="156" x="917" y="203.0869"/><rect fill="#F4F6F7" height="4" style="stroke:#F4F6F7;stroke-width:0.5;" width="156" x="917" y="231.0869"/><rect codeLine="34" fill="none" height="48" id="IMapViewManager" rx="4" ry="4" style="stroke:#444444;stroke-width:0.5;" width="156" x="917" y="203.0869"/><ellipse cx="932" cy="219.0869" fill="#ADD1B2" rx="11" ry="11" style="stroke:#181818;stroke-width:1.0;"/><path d="M934.9688,224.7275 Q934.3906,225.0244 933.75,225.165 Q933.1094,225.3212 932.4063,225.3212 Q929.9063,225.3212 928.5781,223.6806 Q927.2656,222.0244 927.2656,218.8994 Q927.2656,215.7744 928.5781,214.1181 Q929.9063,212.4619 932.4063,212.4619 Q933.1094,212.4619 933.75,212.6181 Q934.4063,212.7744 934.9688,213.0712 L934.9688,215.79 Q934.3438,215.2119 933.75,214.9462 Q933.1563,214.665 932.5313,214.665 Q931.1875,214.665 930.5,215.7431 Q929.8125,216.8056 929.8125,218.8994 Q929.8125,220.9931 930.5,222.0712 Q931.1875,223.1337 932.5313,223.1337 Q933.1563,223.1337 933.75,222.8681 Q934.3438,222.5869 934.9688,222.0087 L934.9688,224.7275 Z " fill="#000000"/><text fill="#000000" font-family="Helvetica" font-size="14" lengthAdjust="spacing" textLength="124" x="946" y="223.9336">IMapViewManager</text><line style="stroke:#444444;stroke-width:0.5;" x1="918" x2="1072" y1="235.0869" y2="235.0869"/><line style="stroke:#444444;stroke-width:0.5;" x1="918" x2="1072" y1="243.0869" y2="243.0869"/></g><!--class ViewController--><g id="elem_ViewController"><rect codeLine="36" fill="#FFFFFF" height="48" id="ViewController" rx="4" ry="4" style="stroke:#444444;stroke-width:0.5;" width="131" x="510.5" y="203.0869"/><rect fill="#F4F6F7" height="32" rx="4" ry="4" style="stroke:#F4F6F7;stroke-width:0.5;" width="131" x="510.5" y="203.0869"/><rect fill="#F4F6F7" height="4" style="stroke:#F4F6F7;stroke-width:0.5;" width="131" x="510.5" y="231.0869"/><rect codeLine="36" fill="none" height="48" id="ViewController" rx="4" ry="4" style="stroke:#444444;stroke-width:0.5;" width="131" x="510.5" y="203.0869"/><ellipse cx="525.5" cy="219.0869" fill="#ADD1B2" rx="11" ry="11" style="stroke:#181818;stroke-width:1.0;"/><path d="M528.4688,224.7275 Q527.8906,225.0244 527.25,225.165 Q526.6094,225.3212 525.9063,225.3212 Q523.4063,225.3212 522.0781,223.6806 Q520.7656,222.0244 520.7656,218.8994 Q520.7656,215.7744 522.0781,214.1181 Q523.4063,212.4619 525.9063,212.4619 Q526.6094,212.4619 527.25,212.6181 Q527.9063,212.7744 528.4688,213.0712 L528.4688,215.79 Q527.8438,215.2119 527.25,214.9462 Q526.6563,214.665 526.0313,214.665 Q524.6875,214.665 524,215.7431 Q523.3125,216.8056 523.3125,218.8994 Q523.3125,220.9931 524,222.0712 Q524.6875,223.1337 526.0313,223.1337 Q526.6563,223.1337 527.25,222.8681 Q527.8438,222.5869 528.4688,222.0087 L528.4688,224.7275 Z " fill="#000000"/><text fill="#000000" font-family="Helvetica" font-size="14" lengthAdjust="spacing" textLength="99" x="539.5" y="223.9336">ViewController</text><line style="stroke:#444444;stroke-width:0.5;" x1="511.5" x2="640.5" y1="235.0869" y2="235.0869"/><line style="stroke:#444444;stroke-width:0.5;" x1="511.5" x2="640.5" y1="243.0869" y2="243.0869"/></g><!--class MapController--><g id="elem_MapController"><rect codeLine="44" fill="#FFFFFF" height="56.2656" id="MapController" rx="4" ry="4" style="stroke:#444444;stroke-width:0.5;" width="199" x="535.5" y="482.0869"/><rect fill="#F4F6F7" height="40.2656" rx="4" ry="4" style="stroke:#F4F6F7;stroke-width:0.5;" width="199" x="535.5" y="482.0869"/><rect fill="#F4F6F7" height="4" style="stroke:#F4F6F7;stroke-width:0.5;" width="199" x="535.5" y="518.3525"/><rect codeLine="44" fill="none" height="56.2656" id="MapController" rx="4" ry="4" style="stroke:#444444;stroke-width:0.5;" width="199" x="535.5" y="482.0869"/><ellipse cx="550.5" cy="502.2197" fill="#ADD1B2" rx="11" ry="11" style="stroke:#181818;stroke-width:1.0;"/><path d="M553.4688,507.8603 Q552.8906,508.1572 552.25,508.2978 Q551.6094,508.4541 550.9063,508.4541 Q548.4063,508.4541 547.0781,506.8134 Q545.7656,505.1572 545.7656,502.0322 Q545.7656,498.9072 547.0781,497.2509 Q548.4063,495.5947 550.9063,495.5947 Q551.6094,495.5947 552.25,495.7509 Q552.9063,495.9072 553.4688,496.2041 L553.4688,498.9228 Q552.8438,498.3447 552.25,498.0791 Q551.6563,497.7978 551.0313,497.7978 Q549.6875,497.7978 549,498.8759 Q548.3125,499.9384 548.3125,502.0322 Q548.3125,504.1259 549,505.2041 Q549.6875,506.2666 551.0313,506.2666 Q551.6563,506.2666 552.25,506.0009 Q552.8438,505.7197 553.4688,505.1416 L553.4688,507.8603 Z " fill="#000000"/><text fill="#000000" font-family="Helvetica" font-size="12" font-style="italic" lengthAdjust="spacing" textLength="171" x="562.5" y="498.2255">&#171;central map orchestrator&#187;</text><text fill="#000000" font-family="Helvetica" font-size="14" lengthAdjust="spacing" textLength="96" x="600" y="514.0507">MapController</text><line style="stroke:#444444;stroke-width:0.5;" x1="536.5" x2="733.5" y1="522.3525" y2="522.3525"/><line style="stroke:#444444;stroke-width:0.5;" x1="536.5" x2="733.5" y1="530.3525" y2="530.3525"/></g><!--class MMapController--><g id="elem_MMapController"><rect codeLine="50" fill="#FFFFFF" height="48" id="MMapController" rx="4" ry="4" style="stroke:#444444;stroke-width:0.5;" width="140" x="311" y="486.0869"/><rect fill="#F4F6F7" height="32" rx="4" ry="4" style="stroke:#F4F6F7;stroke-width:0.5;" width="140" x="311" y="486.0869"/><rect fill="#F4F6F7" height="4" style="stroke:#F4F6F7;stroke-width:0.5;" width="140" x="311" y="514.0869"/><rect codeLine="50" fill="none" height="48" id="MMapController" rx="4" ry="4" style="stroke:#444444;stroke-width:0.5;" width="140" x="311" y="486.0869"/><ellipse cx="326" cy="502.0869" fill="#ADD1B2" rx="11" ry="11" style="stroke:#181818;stroke-width:1.0;"/><path d="M328.9688,507.7275 Q328.3906,508.0244 327.75,508.165 Q327.1094,508.3212 326.4063,508.3212 Q323.9063,508.3212 322.5781,506.6806 Q321.2656,505.0244 321.2656,501.8994 Q321.2656,498.7744 322.5781,497.1181 Q323.9063,495.4619 326.4063,495.4619 Q327.1094,495.4619 327.75,495.6181 Q328.4063,495.7744 328.9688,496.0712 L328.9688,498.79 Q328.3438,498.2119 327.75,497.9462 Q327.1563,497.665 326.5313,497.665 Q325.1875,497.665 324.5,498.7431 Q323.8125,499.8056 323.8125,501.8994 Q323.8125,503.9931 324.5,505.0712 Q325.1875,506.1337 326.5313,506.1337 Q327.1563,506.1337 327.75,505.8681 Q328.3438,505.5869 328.9688,505.0087 L328.9688,507.7275 Z " fill="#000000"/><text fill="#000000" font-family="Helvetica" font-size="14" lengthAdjust="spacing" textLength="108" x="340" y="506.9336">MMapController</text><line style="stroke:#444444;stroke-width:0.5;" x1="312" x2="450" y1="518.0869" y2="518.0869"/><line style="stroke:#444444;stroke-width:0.5;" x1="312" x2="450" y1="526.0869" y2="526.0869"/></g><g id="elem_GMN25"><path d="M1161,188.0869 L1161,265.7509 A4,4 0 0 0 1165,269.7509 L1423,269.7509 A4,4 0 0 0 1427,265.7509 L1427,194.0869 L1417,184.0869 L1165,184.0869 A4,4 0 0 0 1161,188.0869 " fill="#FFFCDF" style="stroke:#F1C40F;stroke-width:0.5;"/><path d="M1417,184.0869 L1417,192.0869 A2,2 0 0 0 1419,194.0869 L1427,194.0869 L1417,184.0869 " fill="#FFFCDF" style="stroke:#F1C40F;stroke-width:1.0;"/><text fill="#333333" font-family="Helvetica" font-size="13" font-weight="bold" lengthAdjust="spacing" textLength="90" x="1167" y="201.1538">COMPLIANT:</text><text fill="#333333" font-family="Helvetica" font-size="13" lengthAdjust="spacing" textLength="239" x="1167" y="216.2866">This set of dependencies is compliant</text><text fill="#333333" font-family="Helvetica" font-size="13" lengthAdjust="spacing" textLength="233" x="1167" y="231.4194">with clean architecture: the business</text><text fill="#333333" font-family="Helvetica" font-size="13" lengthAdjust="spacing" textLength="241" x="1167" y="246.5522">logic doesn't know anything about the</text><text fill="#333333" font-family="Helvetica" font-size="13" lengthAdjust="spacing" textLength="120" x="1167" y="261.685">concrete UI object.</text></g><!--link UILayer to LogicLayer--><!--reverse link JavaColor to MapController--><g id="link_JavaColor_MapController"><path codeLine="56" d="M397.868,255.9458 C414.008,277.2058 435.48,304.5969 459,331.0869 C508.48,386.8169 570.65,447.7669 606.31,481.9269 " fill="none" id="JavaColor-backto-MapController" style="stroke:#E74C3C;stroke-width:2.0;"/><polygon fill="#E74C3C" points="394.24,251.1669,396.4961,260.7539,397.2633,255.1493,402.8679,255.9165,394.24,251.1669" style="stroke:#E74C3C;stroke-width:2.0;"/><text fill="#000000" font-family="Helvetica" font-size="13" lengthAdjust="spacing" textLength="65" x="478" y="352.1538">&#171;violates&#187;</text></g><!--reverse link IMapViewChangeListener to MapController--><g id="link_IMapViewChangeListener_MapController"><path codeLine="58" d="M764.2336,256.8965 C737.7336,308.6065 677.19,426.7569 648.98,481.7969 " fill="none" id="IMapViewChangeListener-backto-MapController" style="stroke:#2ECC71;stroke-width:2.0;"/><polygon fill="#2ECC71" points="766.97,251.5569,759.3056,257.7421,764.6896,256.0066,766.4251,261.3906,766.97,251.5569" style="stroke:#2ECC71;stroke-width:2.0;"/><text fill="#000000" font-family="Helvetica" font-size="13" lengthAdjust="spacing" textLength="73" x="720" y="352.1538">&#171;complies&#187;</text></g><!--reverse link IMapViewManager to MapController--><g id="link_IMapViewManager_MapController"><path codeLine="59" d="M972.2611,255.7829 C953.8111,277.6529 928.18,306.1569 899,331.0869 C828.39,391.4069 736.76,449.2069 682.11,481.8269 " fill="none" id="IMapViewManager-backto-MapController" style="stroke:#2ECC71;stroke-width:2.0;"/><polygon fill="#2ECC71" points="976.13,251.1969,967.2693,255.4967,972.9059,255.0186,973.384,260.6552,976.13,251.1969" style="stroke:#2ECC71;stroke-width:2.0;"/><text fill="#000000" font-family="Helvetica" font-size="13" lengthAdjust="spacing" textLength="73" x="886" y="352.1538">&#171;complies&#187;</text></g><!--reverse link IMapViewChangeListener to MMapController--><g id="link_IMapViewChangeListener_MMapController"><path codeLine="61" d="M754.2717,255.7697 C732.0617,279.4097 698.65,310.9269 659,331.0869 C657.22,331.9969 520.73,363.0969 519,364.0869 C465.04,395.0369 419.07,453.5969 396.3,486.0269 " fill="none" id="IMapViewChangeListener-backto-MMapController" style="stroke:#2ECC71;stroke-width:2.0;"/><polygon fill="#2ECC71" points="758.38,251.3969,749.3023,255.2172,754.9564,255.0409,755.1327,260.695,758.38,251.3969" style="stroke:#2ECC71;stroke-width:2.0;"/><text fill="#000000" font-family="Helvetica" font-size="13" lengthAdjust="spacing" textLength="73" x="625" y="352.1538">&#171;complies&#187;</text></g><!--reverse link GraphicEnvironment to MMapController--><g id="link_GraphicEnvironment_MMapController"><path codeLine="62" d="M185.9462,256.1695 C208.5262,284.0495 245.65,325.9369 289,356.0869 C296.19,361.0869 300.65,358.0669 307,364.0869 C343.31,398.4969 364.78,454.6369 374.58,486.0169 " fill="none" id="GraphicEnvironment-backto-MMapController" style="stroke:#E74C3C;stroke-width:2.0;"/><polygon fill="#E74C3C" points="182.17,251.5069,184.726,261.0183,185.3169,255.3924,190.9428,255.9833,182.17,251.5069" style="stroke:#E74C3C;stroke-width:2.0;"/><text fill="#000000" font-family="Helvetica" font-size="13" lengthAdjust="spacing" textLength="65" x="290" y="352.1538">&#171;violates&#187;</text></g><!--link UIFeatures to GMN25--><g id="link_UIFeatures_GMN25"><path d="M473.6116,143.6056 C473.6377,143.3465 473.664,143.0872 473.6908,142.8278 C474.5461,134.5261 475.7637,126.0425 477.4483,117.595 C480.8175,100.7 486.055,83.9494 494,69.0869 C498.83,60.0569 501.89,57.6369 511.5,54.0869 C540.68,43.2969 1042.07,43.9969 1071.5,54.0869 C1146.02,79.6469 1214.81,141.4869 1255.6,183.8569 " fill="none" id="UIFeatures-GMN25" style="stroke:#555555;stroke-width:1.0;stroke-dasharray:7.0,7.0;"/></g><!--SRC=[hPNVRzem4CVVyrUSoiCsD51_i1LL38cbP6KYNQN-s4FLXoCvY4km8zk0sDJ_VHU77m5AjKdp0o7dkwy_lZixLjYK8D14MOgIm4y99NHqb0XBaPrgWWUXKhH2IGCryD4GtDfflF0yCnOoGuqJC0d6QYxa28QO6YhDQ3MLSQIq90tDalsIXZXDRQ2alSO9mHMbCx8Ymf9FbA8nyDi37byn6e-ScAzIfU5dpkTcEbghUM6iV7AZ250w9hsqDznmzYj2jk_ALO96y3auzrvAosViWoDQ0kIaj-8NmKcXSsiNdBYXIbbjAqmgImUWAq4G-9V1FbzmuZUEW_KwI-kP6opkMPM1LJ1Grge9n49pQRWWdhTYFBhHP4XQLoVeuuBJ_Vw-z-48qC1zhp1KkatUPdC9vtwA51yzumphEBTrjx8B-iwc3VLnSFog_pUDMIAYhfm9hUI42LpmldcjmYCNMeFVzo0Wp1lDB65Nhz1gAJsg3rUzMHyk9-fJqMuxGHxBtMpWUY5c3uBcVe9oH7rXBENDjt5xEH0GecIYjpoTBDT7gpJD7Olvbxn2w_rSgWcATGdwQYIYeWhkxweGdQ3PtIh4ElvQnLIGv6bpGIuyjxktmscHxBALc1rytcU9ljMAU06DAKmm0yKddWo_MgLPevm3h_HOOuP2ngm78Q_f-C9m3unrwnFsu-SRzGgtiSf9NJLkxJ4HSKpoYIyPMMkNKkbvsz6rnqhtlE6V-HyjzzzOaZ5VJf-c6GTj6lg2IMVkKYFJRhyYSThr_VEJVOa3hPNhHMgIfSBf_RFSgl5sTBpmVuFzTQvUER-xIVFSFQV5AB6WXgLZo-MhLlqVuKs_rxc-kwXMsN2N20E6d6TC6KakPiHGmEO247a9TfmBct1VvDyWB7s3Bi0c18Ef4JbbxfYwen0hClATXR5KSq2vu8tmDmW7QcfT13j6IaQQ69Kl6ZLuPhswn-kxQzhx0m00]--></g></svg>